<svg width="32" height="32" viewBox="0 0 32 32" fill="none" xmlns="http://www.w3.org/2000/svg">
<g id="Frame">
<g id="Group 1321314904">
<g id="Group 1321314903">
<path id="Vector" d="M22.5435 12.889H18.8136V9.15908C18.8136 8.44573 18.2285 7.8606 17.5151 7.8606H14.8552C14.1419 7.8606 13.5567 8.44573 13.5567 9.15908V12.889H9.8268C9.11345 12.889 8.52832 13.4741 8.52832 14.1875V16.8474C8.52832 17.5607 9.11345 18.1459 9.8268 18.1459H13.5567V21.8758C13.5567 22.5892 14.1419 23.1743 14.8552 23.1743H17.5151C18.2285 23.1743 18.8136 22.5892 18.8136 21.8758V18.1459H22.5435C23.2569 18.1459 23.842 17.5607 23.842 16.8474V14.1875C23.842 13.4741 23.2569 12.889 22.5435 12.889Z" stroke="white" stroke-width="2.33121" stroke-linejoin="round"/>
<path id="Vector_2" d="M16.187 29.1819C23.7343 29.1819 29.8525 23.0636 29.8525 15.5164C29.8525 7.96909 23.7343 1.85083 16.187 1.85083C8.63975 1.85083 2.52148 7.96909 2.52148 15.5164C2.52148 23.0636 8.63975 29.1819 16.187 29.1819Z" stroke="white" stroke-width="2.33121" stroke-linejoin="round"/>
</g>
</g>
</g>
</svg>
