<svg width="32" height="32" viewBox="0 0 32 32" fill="none" xmlns="http://www.w3.org/2000/svg">
<g id="Frame">
<g id="immunization">
<path id="Vector (Stroke)" fill-rule="evenodd" clip-rule="evenodd" d="M10.1191 21.5253C11.4583 22.8645 13.6355 22.8645 14.9747 21.5253L22.8233 13.6766L17.965 8.81824L10.1163 16.6669C8.77709 18.0061 8.77709 20.1833 10.1163 21.5225L10.1191 21.5253ZM16.9048 23.4554C14.4996 25.8606 10.5942 25.8606 8.18896 23.4554L8.1862 23.4526C5.781 21.0474 5.781 17.142 8.1862 14.7368L16.7821 6.1409C17.435 5.48798 18.4949 5.48796 19.1479 6.1409L25.5007 12.4937C26.1536 13.1467 26.1536 14.2066 25.5007 14.8595L16.9048 23.4554Z" fill="#1771DE"/>
<path id="Vector (Stroke)_2" fill-rule="evenodd" clip-rule="evenodd" d="M9.84215 21.7975C10.3751 22.3305 10.3751 23.1946 9.84215 23.7276L4.60134 28.9684C4.06835 29.5014 3.20421 29.5014 2.67122 28.9684C2.13824 28.4354 2.13824 27.5713 2.67122 27.0383L7.91204 21.7975C8.44503 21.2645 9.30917 21.2645 9.84215 21.7975Z" fill="#1771DE"/>
<path id="Vector (Stroke)_3" fill-rule="evenodd" clip-rule="evenodd" d="M26.9612 6.7883L22.4125 11.337L20.4824 9.40685L25.0311 4.85818L26.9612 6.7883Z" fill="#1771DE"/>
<path id="Vector (Stroke)_4" fill-rule="evenodd" clip-rule="evenodd" d="M22.6615 2.15999C23.1944 1.62701 24.0586 1.62701 24.5916 2.15999L29.4541 7.02257C29.9871 7.55555 29.9871 8.41969 29.4541 8.95268C28.9212 9.48566 28.057 9.48566 27.524 8.95268L22.6615 4.09011C22.1285 3.55712 22.1285 2.69298 22.6615 2.15999Z" fill="#1771DE"/>
</g>
</g>
</svg>
