<svg width="32" height="32" viewBox="0 0 32 32" fill="none" xmlns="http://www.w3.org/2000/svg">
<g id="Frame" clip-path="url(#clip0_25_24034)">
<path id="Vector" d="M30.1766 4.87316C28.8414 2.8377 26.6754 1.60539 24.0778 1.4021C21.1488 1.1737 17.999 2.35331 16.0589 4.36869L15.9385 4.49418L15.813 4.37119C14.425 2.99833 12.0407 1.36194 8.56967 1.36194C2.37296 1.43723 0.0237823 6.46688 -0.104218 10.7536C-0.325081 19.307 10.9314 27.6973 15.2859 30.2096C15.4842 30.3251 15.7101 30.3853 15.9385 30.3853C16.1669 30.3853 16.3952 30.3251 16.5935 30.2096C21.3923 27.4012 29.9683 20.695 31.69 13.3688C32.4003 10.347 31.8908 7.48837 30.1766 4.87316ZM11.0644 19.3999C11.6341 19.3999 12.1336 19.036 12.3068 18.4939L13.2178 15.6553L15.434 22.9111C15.5971 23.4457 16.084 23.8172 16.6437 23.8347H16.6814C17.226 23.8347 17.7179 23.4934 17.9061 22.9864L19.6479 18.3282L19.8261 18.6821C20.0495 19.1263 20.4963 19.4024 20.9932 19.4024H25.5611L25.3176 19.686C22.0549 23.4859 17.738 26.4098 16.0338 27.4915L15.941 27.5492L15.8481 27.4915C14.1439 26.4098 9.82708 23.4809 6.56434 19.686L6.32088 19.4024H11.0644V19.3999ZM19.5626 13.542H19.5199C18.9879 13.5571 18.521 13.8909 18.3353 14.3903L16.8094 18.4688L14.4978 10.9067C14.3322 10.3671 13.8202 9.98814 13.2505 9.98312C12.6807 9.98312 12.1813 10.347 12.0081 10.8892L10.1132 16.7897H4.431L4.3808 16.7069C3.13845 14.6463 2.50849 12.6435 2.50849 10.7586C2.50849 8.87378 3.59775 3.97716 8.57469 3.97716C8.63744 3.97716 8.69767 3.97465 8.76042 3.97465C11.3154 3.97465 13.7524 5.62108 14.8367 7.2399C15.0701 7.62641 15.4817 7.85731 15.941 7.85731C16.4003 7.85731 16.8119 7.62641 17.0403 7.24241C18.1245 5.61606 20.5615 3.97214 23.119 3.97214C23.1843 3.97214 23.2495 3.97214 23.3072 3.97465C25.4657 3.97465 27.1121 4.87567 28.2014 6.65261C29.0647 8.06061 29.3709 9.74218 29.3709 10.7561C29.3709 12.641 28.741 14.6438 27.4986 16.7044L27.4484 16.7872H21.844L20.7523 14.3176C20.5389 13.8382 20.0847 13.5395 19.5626 13.5395V13.542Z" fill="white"/>
</g>
<defs>
<clipPath id="clip0_25_24034">
<rect width="32" height="32" fill="white"/>
</clipPath>
</defs>
</svg>
