<svg width="32" height="32" viewBox="0 0 32 32" fill="none" xmlns="http://www.w3.org/2000/svg">
<g id="Frame">
<g id="growth">
<path id="Vector" d="M30.0201 21.8377H27.5721V19.3897C27.5721 18.8609 27.1429 18.4336 26.616 18.4336H23.4219V7.8374C23.4219 7.30868 22.9928 6.88135 22.4659 6.88135H16.0958C15.5671 6.88135 15.1398 7.31049 15.1398 7.8374V13.2514H9.7258C9.19708 13.2514 8.76975 13.6805 8.76975 14.2074V19.6214H3.35395C2.82523 19.6214 2.3979 20.0506 2.3979 20.5775V26.9475C2.3979 27.4762 2.82704 27.9036 3.35395 27.9036H21.5062V30.3516C21.5062 30.8804 21.9354 31.3077 22.4623 31.3077H26.6142C27.1429 31.3077 27.5702 30.8786 27.5702 30.3516V27.9036H30.0183C30.547 27.9036 30.9744 27.4744 30.9744 26.9475V22.7956C30.9744 22.2669 30.5452 21.8395 30.0183 21.8395L30.0201 21.8377ZM17.0501 8.79345H21.5062V21.8377H19.0581C18.5294 21.8377 18.1021 22.2669 18.1021 22.7938V25.9879H17.0501V8.79345ZM10.68 15.1635H15.1362V25.9897H10.68V15.1635ZM4.31 21.5335H8.76613V25.9897H4.31V21.5335ZM29.0623 25.9897H26.6142C26.0855 25.9897 25.6581 26.4188 25.6581 26.9457V29.3938H23.4201V26.9457C23.4201 26.417 22.991 25.9897 22.4641 25.9897H20.016V23.7516H22.4641C22.9928 23.7516 23.4201 23.3225 23.4201 22.7956V20.3475H25.6581V22.7956C25.6581 23.3243 26.0873 23.7516 26.6142 23.7516H29.0623V25.9897ZM2.66045 17.3218C2.47395 17.5083 2.22951 17.6025 1.98325 17.6025C1.737 17.6025 1.49436 17.5083 1.30605 17.3218C1.11955 17.1353 1.02539 16.8909 1.02539 16.6446C1.02539 16.3984 1.11955 16.1558 1.30605 15.9674L14.6726 2.60448H13.5663C13.0376 2.60448 12.6102 2.17535 12.6102 1.64843C12.6102 1.12152 13.0394 0.692383 13.5663 0.692383H16.9831C17.5118 0.692383 17.9391 1.12152 17.9391 1.64843V5.06522C17.9391 5.59395 17.51 6.02127 16.9831 6.02127C16.4562 6.02127 16.027 5.59214 16.027 5.06522V3.95888L2.66045 17.3218Z" fill="#D91625"/>
</g>
</g>
</svg>
