<svg width="32" height="32" viewBox="0 0 32 32" fill="none" xmlns="http://www.w3.org/2000/svg">
<g id="Frame">
<g id="mental">
<path id="Vector" fill-rule="evenodd" clip-rule="evenodd" d="M11.4951 8.47141C11.4951 7.39952 12.3628 6.5318 13.4347 6.5318H15.3437C16.4156 6.5318 17.2833 7.39952 17.2833 8.47141V9.93122H18.7431C19.815 9.93122 20.6827 10.7989 20.6827 11.8708V13.7798C20.6827 14.8517 19.815 15.7194 18.7431 15.7194H17.2833V17.1792C17.2833 18.2511 16.4156 19.1188 15.3437 19.1188H13.4347C12.3628 19.1188 11.4951 18.2511 11.4951 17.1792V15.7194H10.0353C8.96342 15.7194 8.0957 14.8517 8.0957 13.7798V11.8708C8.0957 10.7989 8.96342 9.93122 10.0353 9.93122H11.4951V8.47141ZM13.496 8.53266V10.9214C13.496 11.4727 13.0468 11.9219 12.4956 11.9219H10.1068V13.6981H12.4956C13.0468 13.6981 13.496 14.1473 13.496 14.6986V17.0874H15.2723V14.6986C15.2723 14.1473 15.7214 13.6981 16.2727 13.6981H18.6615V11.9219H16.2727C15.7214 11.9219 15.2723 11.4727 15.2723 10.9214V8.53266H13.496Z" fill="#00B1D9"/>
<path id="Vector_2" d="M28.7472 18.0776L26.7157 14.3719V12.8917C26.7157 10.5846 26.0521 8.34894 24.7965 6.41954C23.5817 4.55139 21.8667 3.06095 19.8556 2.11156C18.3141 1.35614 16.5583 0.958008 14.7718 0.958008C11.6071 0.958008 8.62627 2.20344 6.38041 4.45951C4.13455 6.71558 2.88911 9.70666 2.87891 12.8917C2.87891 16.0257 4.14476 19.078 6.35999 21.3035V29.899C6.34979 30.2053 6.47229 30.4911 6.68666 30.7055C6.90104 30.9199 7.19709 31.0424 7.50334 31.0424H20.2027C20.8458 31.0424 21.3766 30.5217 21.3766 29.8684V27.9186L23.1325 28.184C23.1938 28.184 23.2448 28.1942 23.306 28.1942C25.1844 28.1942 26.7157 26.6629 26.7157 24.7744V21.967C27.5936 21.9262 28.3388 21.5077 28.7676 20.7931C29.2372 20.007 29.2372 18.9964 28.7574 18.0674L28.7472 18.0776ZM8.5344 20.1908L8.56502 20.1601L8.33023 19.9458C6.35999 18.1287 5.22685 15.5561 5.22685 12.8917C5.24727 7.60372 9.52462 3.29575 14.7718 3.29575C16.201 3.29575 17.6097 3.61221 18.8041 4.19409L18.8858 4.24513H18.9062C20.5089 5.01077 21.8667 6.20516 22.8365 7.6956C23.8471 9.23707 24.3779 11.0338 24.3779 12.8917V14.668C24.3779 14.8619 24.429 15.0559 24.5209 15.2294L26.6953 19.1903C26.7973 19.3945 26.7973 19.5476 26.7667 19.5885C26.7565 19.6089 26.6851 19.6293 26.583 19.6293H25.5519C24.9088 19.6293 24.3779 20.1499 24.3779 20.8033V24.7744C24.3779 25.3562 23.9288 25.836 23.4081 25.8565L20.3864 25.3971C19.9373 25.3256 19.5085 25.5196 19.2533 25.8769C19.1104 26.0708 19.0389 26.3158 19.0389 26.5711V28.6944L8.70794 28.7148V20.7931C8.70794 20.5787 8.64669 20.3643 8.5344 20.1806V20.1908Z" fill="#00B1D9"/>
</g>
</g>
</svg>
