<svg width="32" height="32" viewBox="0 0 32 32" fill="none" xmlns="http://www.w3.org/2000/svg">
<g id="Frame">
<path id="Vector" d="M4.29534 30.6073C3.83265 30.6073 3.39824 30.3605 3.16176 29.9621C2.92785 29.5586 2.92785 29.0522 3.16176 28.646L10.7395 13.6988V3.77682H9.80384C9.0764 3.77682 8.48519 3.18561 8.48519 2.45817C8.48519 1.73073 9.0764 1.13953 9.80384 1.13953H22.0984C22.8258 1.13953 23.417 1.73073 23.417 2.45817C23.417 3.18561 22.8258 3.77682 22.0984 3.77682H21.3812V13.6962L28.7327 28.6306C28.9692 29.0496 28.9641 29.556 28.725 29.9596C28.4885 30.358 28.0541 30.6047 27.5914 30.6047H4.29534V30.6073ZM6.84267 27.4225C6.78355 27.5408 6.78869 27.6796 6.86066 27.7927C6.93263 27.9058 7.05088 27.9726 7.18454 27.9726H24.8719C24.9721 27.9726 25.0621 27.9212 25.1161 27.8389C25.1701 27.7541 25.1752 27.6513 25.1315 27.5613L22.6639 22.4487H9.33345L6.84781 27.4251L6.84267 27.4225ZM13.3768 14.0458C13.3768 14.272 13.3177 14.4931 13.2046 14.691L10.7575 19.5877H21.281L18.9238 14.7039C18.8056 14.4957 18.7465 14.272 18.7465 14.0458V3.77682H13.3768V14.0458Z" fill="white"/>
</g>
</svg>
