<svg width="32" height="32" viewBox="0 0 32 32" fill="none" xmlns="http://www.w3.org/2000/svg">
<g id="Frame">
<g id="prevention">
<path id="Vector" d="M28.4364 19.4451C28.4364 17.0951 26.5164 15.1751 24.1664 15.1751C21.8164 15.1751 19.8964 17.0951 19.8964 19.4451C19.8964 21.1151 20.8664 22.5451 22.2664 23.2451C21.6364 25.2051 19.7864 26.5951 17.6964 26.5951C15.0364 26.5951 12.8764 24.4351 12.8764 21.7751V20.0451C17.3064 19.6951 20.7964 15.9851 20.7964 11.4651V2.45508H15.5364C14.7264 2.45508 14.0664 3.11508 14.0664 3.92508C14.0664 4.73508 14.7264 5.39508 15.5364 5.39508H17.8264V11.4651C17.8264 14.5751 15.2964 17.1051 12.1864 17.1051C9.07641 17.1051 6.54641 14.5751 6.54641 11.4651V5.40508H8.83641C9.64641 5.40508 10.3064 4.74508 10.3064 3.93508C10.3064 3.12508 9.64641 2.46508 8.83641 2.46508H3.56641V11.4851C3.56641 15.4551 6.27641 18.8051 9.93641 19.7951V21.7951C9.93641 26.0651 13.4164 29.5451 17.6864 29.5451C21.2864 29.5451 24.4064 27.0251 25.2264 23.5751C27.0664 23.0951 28.4364 21.4351 28.4364 19.4551V19.4451ZM25.9564 19.4451C25.9564 20.4351 25.1464 21.2451 24.1564 21.2451C23.1664 21.2451 22.3564 20.4351 22.3564 19.4451C22.3564 18.4551 23.1664 17.6451 24.1564 17.6451C25.1464 17.6451 25.9564 18.4551 25.9564 19.4451Z" fill="#D91625"/>
</g>
</g>
</svg>
