<svg width="16" height="16" viewBox="0 0 16 16" fill="none" xmlns="http://www.w3.org/2000/svg">
<g id="Frame">
<path id="Vector" d="M1.33203 7.33366C1.33203 5.13377 1.33203 4.03383 2.01545 3.35041C2.69886 2.66699 3.79881 2.66699 5.9987 2.66699H6.66536C8.86523 2.66699 9.96516 2.66699 10.6486 3.35041C11.332 4.03383 11.332 5.13377 11.332 7.33366V8.66699C11.332 10.8669 11.332 11.9668 10.6486 12.6503C9.96516 13.3337 8.86523 13.3337 6.66536 13.3337H5.9987C3.79881 13.3337 2.69886 13.3337 2.01545 12.6503C1.33203 11.9668 1.33203 10.8669 1.33203 8.66699V7.33366Z" stroke="#0B0B0B" stroke-width="1.5"/>
<path id="Vector_2" d="M11.332 5.93691L11.416 5.86765C12.8265 4.70383 13.5318 4.12192 14.0986 4.40289C14.6654 4.68386 14.6654 5.61538 14.6654 7.47841V8.52094C14.6654 10.384 14.6654 11.3155 14.0986 11.5965C13.5318 11.8774 12.8265 11.2955 11.416 10.1317L11.332 10.0624" stroke="#0B0B0B" stroke-width="1.5" stroke-linecap="round"/>
<circle id="Ellipse 75" cx="3" cy="13" r="3" fill="#D91625"/>
</g>
</svg>
