<svg width="16" height="16" viewBox="0 0 16 16" fill="none" xmlns="http://www.w3.org/2000/svg">
<g id="Frame" clip-path="url(#clip0_80_1651)">
<path id="Vector" d="M12 1.33331V2.66665M4 1.33331V2.66665" stroke="#0B0B0B" stroke-width="1.5" stroke-linecap="round" stroke-linejoin="round"/>
<path id="Vector_2" d="M1.66602 8.16213C1.66602 5.25729 1.66602 3.80485 2.50076 2.90243C3.33551 2 4.67901 2 7.36602 2H8.63268C11.3197 2 12.6632 2 13.4979 2.90243C14.3327 3.80485 14.3327 5.25729 14.3327 8.16213V8.50453C14.3327 11.4094 14.3327 12.8618 13.4979 13.7643C12.6632 14.6667 11.3197 14.6667 8.63268 14.6667H7.36602C4.67901 14.6667 3.33551 14.6667 2.50076 13.7643C1.66602 12.8618 1.66602 11.4094 1.66602 8.50453V8.16213Z" stroke="#0B0B0B" stroke-width="1.5" stroke-linecap="round" stroke-linejoin="round"/>
<path id="Vector_3" d="M2 5.33331H14" stroke="#0B0B0B" stroke-width="1.5" stroke-linecap="round" stroke-linejoin="round"/>
</g>
<defs>
<clipPath id="clip0_80_1651">
<rect width="16" height="16" fill="white"/>
</clipPath>
</defs>
</svg>
