<svg width="40" height="40" viewBox="0 0 40 40" fill="none" xmlns="http://www.w3.org/2000/svg">
<g id="Frame 1321315358">
<g id="events">
<path id="Vector" d="M34.2114 5.10149H30.8845V3.51036C30.8845 2.79291 30.3001 2.20853 29.5827 2.20853C28.8652 2.20853 28.2808 2.79291 28.2808 3.51036V5.10149H21.627V3.51036C21.627 2.79291 21.0426 2.20853 20.3252 2.20853C19.6077 2.20853 19.0234 2.79291 19.0234 3.51036V5.10149H12.3695V3.51036C12.3695 2.79291 11.7851 2.20853 11.0677 2.20853C10.3502 2.20853 9.76586 2.79291 9.76586 3.51036V5.10149H6.43894C4.12457 5.10149 2.24414 6.98192 2.24414 9.2963V33.5972C2.24414 35.9116 4.12457 37.792 6.43894 37.792H34.2114C36.5258 37.792 38.4062 35.9116 38.4062 33.5972V9.2963C38.4062 6.98192 36.5258 5.10149 34.2114 5.10149ZM11.0677 10.0195C11.7851 10.0195 12.3695 9.43516 12.3695 8.7177V7.70516H19.0234V8.7177C19.0234 9.43516 19.6077 10.0195 20.3252 10.0195C21.0426 10.0195 21.627 9.43516 21.627 8.7177V7.70516H28.2808V8.7177C28.2808 9.43516 28.8652 10.0195 29.5827 10.0195C30.3001 10.0195 30.8845 9.43516 30.8845 8.7177V7.70516H34.2114C35.0909 7.70516 35.8026 8.41683 35.8026 9.2963V12.0446H4.84781V9.2963C4.84781 8.41683 5.55948 7.70516 6.43894 7.70516H9.76586V8.7177C9.76586 9.43516 10.3502 10.0195 11.0677 10.0195ZM35.8026 33.5972C35.8026 34.4767 35.0909 35.1884 34.2114 35.1884H6.43894C5.55948 35.1884 4.84781 34.4767 4.84781 33.5972V14.6483H35.8026V33.5972Z" fill="white"/>
<path id="Vector_2" d="M14.7829 27.059L14.3779 31.5374C14.3374 31.9887 14.5399 32.44 14.9102 32.7061C15.2805 32.9723 15.7665 33.0301 16.1889 32.8508L20.3258 31.0803L24.4628 32.8508C24.6248 32.9202 24.7984 32.9549 24.9777 32.9549C25.2554 32.9549 25.5216 32.8681 25.7415 32.7061C26.1118 32.44 26.3143 31.9887 26.2738 31.5374L25.8688 27.059L28.8311 23.6743C29.132 23.3329 29.2304 22.8469 29.0915 22.4129C28.9527 21.979 28.5881 21.6492 28.1426 21.545L23.7569 20.5441L21.4541 16.6791C21.2226 16.2856 20.7887 16.0426 20.3374 16.0426C19.8861 16.0426 19.4521 16.2856 19.2207 16.6791L16.9121 20.5441L12.5264 21.545C12.0809 21.6434 11.7164 21.979 11.5775 22.4129C11.4386 22.8469 11.537 23.3271 11.8379 23.6743L14.8003 27.059H14.7829ZM23.2188 26.7408L23.4792 29.6048L20.835 28.4708C20.511 28.3319 20.1349 28.3319 19.8109 28.4708L17.1667 29.6048L17.4271 26.7408C17.4618 26.3879 17.3461 26.0349 17.1088 25.7688L15.2168 23.6048L18.0172 22.9684C18.3644 22.8874 18.6653 22.6675 18.8446 22.3666L20.32 19.8961L21.7955 22.3666C21.9748 22.6733 22.2815 22.8932 22.6228 22.9684L25.429 23.6048L23.537 25.7688C23.3056 26.0349 23.1899 26.3879 23.2188 26.7408Z" fill="white"/>
</g>
</g>
</svg>
