<svg width="40" height="40" viewBox="0 0 40 40" fill="none" xmlns="http://www.w3.org/2000/svg">
<g id="Frame 1321315409">
<g id="event">
<path id="Vector" d="M34.0763 5.40465H30.7998V3.83773C30.7998 3.13099 30.2249 2.55609 29.5182 2.55609C28.8114 2.55609 28.2365 3.13099 28.2365 3.83773V5.40465H21.6835V3.83773C21.6835 3.13099 21.1086 2.55609 20.4019 2.55609C19.6952 2.55609 19.1203 3.13099 19.1203 3.83773V5.40465H12.5673V3.83773C12.5673 3.13099 11.9924 2.55609 11.2856 2.55609C10.5789 2.55609 10.004 3.13099 10.004 3.83773V5.40465H6.7275C4.4452 5.40465 2.59082 7.25903 2.59082 9.53702V33.471C2.59082 35.749 4.4452 37.6034 6.72318 37.6034H34.0763C36.3543 37.6034 38.2087 35.749 38.2087 33.471V9.53702C38.2087 7.25903 36.3543 5.40465 34.0763 5.40465ZM11.2813 10.2481C11.9881 10.2481 12.563 9.67318 12.563 8.96644V7.97009H19.1159V8.96644C19.1159 9.67318 19.6908 10.2481 20.3976 10.2481C21.1043 10.2481 21.6792 9.67318 21.6792 8.96644V7.97009H28.2322V8.96644C28.2322 9.67318 28.8071 10.2481 29.5138 10.2481C30.2206 10.2481 30.7955 9.67318 30.7955 8.96644V7.97009H34.072C34.9365 7.97009 35.6389 8.6725 35.6389 9.53702V12.2429H5.15626V9.53702C5.15626 8.6725 5.85867 7.97009 6.72318 7.97009H9.99968V8.96644C9.99968 9.67318 10.5746 10.2481 11.2813 10.2481ZM35.6432 33.471C35.6432 34.3355 34.9408 35.0379 34.0763 35.0379H6.72318C5.85867 35.0379 5.15626 34.3355 5.15626 33.471V14.8084H35.6454V33.471H35.6432Z" fill="white"/>
<path id="Vector_2" d="M26.147 22.5497H22.7743V19.177C22.7743 18.5323 22.2451 18.0031 21.6004 18.0031H19.1972C18.5524 18.0031 18.0232 18.5323 18.0232 19.177V22.5497H14.6505C14.0058 22.5497 13.4766 23.0789 13.4766 23.7236V26.1269C13.4766 26.7716 14.0058 27.3008 14.6505 27.3008H18.0232V30.6735C18.0232 31.3182 18.5524 31.8475 19.1972 31.8475H21.6004C22.2451 31.8475 22.7743 31.3182 22.7743 30.6735V27.3008H26.147C26.7917 27.3008 27.321 26.7716 27.321 26.1269V23.7236C27.321 23.0789 26.7917 22.5497 26.147 22.5497Z" stroke="white" stroke-width="2" stroke-linejoin="round"/>
</g>
</g>
</svg>
