<svg width="57" height="16" viewBox="0 0 57 16" fill="none" xmlns="http://www.w3.org/2000/svg">
<g id="Frame 1321314407">
<g id="Group 1321314596">
<g id="Layer_1">
<g id="Group">
<path id="Vector" d="M4.29788 5.5116C5.18682 5.5116 5.95024 5.82511 6.5847 6.45037V2.55713H7.95852V12.7667H6.5847V12.005C5.95024 12.6321 5.18854 12.9438 4.29788 12.9438C3.33672 12.9438 2.53203 12.5896 1.87866 11.8811C1.23559 11.1832 0.914062 10.2976 0.914062 9.22594C0.914062 8.15432 1.23559 7.27046 1.87866 6.57081C2.53032 5.86231 3.33672 5.50983 4.29788 5.50983V5.5116ZM4.44231 6.92684C3.85255 6.92684 3.35392 7.15002 2.94985 7.5946C2.54407 8.02148 2.34118 8.56526 2.34118 9.22771C2.34118 9.89016 2.54407 10.4304 2.94985 10.875C3.36423 11.3107 3.86115 11.5286 4.44231 11.5286C5.02347 11.5286 5.54274 11.3107 5.94852 10.875C6.3543 10.4304 6.55719 9.8813 6.55719 9.22771C6.55719 8.57411 6.3543 8.02148 5.94852 7.5946C5.54274 7.15002 5.04067 6.92684 4.44231 6.92684Z" fill="white"/>
<path id="Vector_2" d="M9.23541 4.64053C9.06863 4.45987 8.98438 4.23669 8.98438 3.97277C8.98438 3.70885 9.06863 3.48744 9.23541 3.305C9.41079 3.12256 9.62744 3.03223 9.88363 3.03223C10.1398 3.03223 10.3548 3.12256 10.5319 3.305C10.7072 3.48744 10.7966 3.70885 10.7966 3.97277C10.7966 4.23669 10.709 4.45809 10.5319 4.64053C10.3548 4.82297 10.1398 4.91331 9.88363 4.91331C9.62744 4.91331 9.41251 4.82297 9.23541 4.64053ZM10.5697 12.7671H9.19586V5.68912H10.5697V12.7671Z" fill="white"/>
<path id="Vector_3" d="M14.8213 5.51172C15.7103 5.51172 16.4737 5.82523 17.1081 6.45049V5.68885H18.482V12.5224C18.482 13.5107 18.1467 14.3379 17.4778 15.0004C16.809 15.6717 15.9974 16.0082 15.0466 16.0082C14.3416 16.0082 13.6813 15.8222 13.0641 15.4503C12.464 15.0872 12.0376 14.6107 11.7814 14.0209L13.169 13.5993C13.3185 13.8898 13.561 14.1271 13.8963 14.3149C14.2316 14.5009 14.5961 14.593 14.9933 14.593C15.583 14.593 16.0851 14.3928 16.4995 13.9943C16.9052 13.6046 17.1081 13.114 17.1081 12.5242V12.0069C16.4737 12.634 15.712 12.9457 14.8213 12.9457C13.8602 12.9457 13.0555 12.5915 12.4021 11.883C11.759 11.1851 11.4375 10.2994 11.4375 9.22783C11.4375 8.15622 11.759 7.27235 12.4021 6.57271C13.0538 5.8642 13.8602 5.51172 14.8213 5.51172ZM14.9657 6.92696C14.376 6.92696 13.8774 7.15014 13.4733 7.59472C13.0675 8.0216 12.8646 8.56538 12.8646 9.22783C12.8646 9.89028 13.0675 10.4305 13.4733 10.8751C13.8877 11.3108 14.3846 11.5287 14.9657 11.5287C15.5469 11.5287 16.0662 11.3108 16.472 10.8751C16.8777 10.4305 17.0806 9.88143 17.0806 9.22783C17.0806 8.57423 16.8777 8.0216 16.472 7.59472C16.0662 7.15014 15.5641 6.92696 14.9657 6.92696Z" fill="white"/>
<path id="Vector_4" d="M19.5245 4.64053C19.3577 4.45987 19.2734 4.23669 19.2734 3.97277C19.2734 3.70885 19.3577 3.48744 19.5245 3.305C19.6999 3.12256 19.9165 3.03223 20.1727 3.03223C20.4289 3.03223 20.6438 3.12256 20.8209 3.305C20.9963 3.48744 21.0857 3.70885 21.0857 3.97277C21.0857 4.23669 20.998 4.45809 20.8209 4.64053C20.6438 4.82297 20.4289 4.91331 20.1727 4.91331C19.9165 4.91331 19.7016 4.82297 19.5245 4.64053ZM20.8587 12.7671H19.4849V5.68912H20.8587V12.7671Z" fill="white"/>
<path id="Vector_5" d="M21.5977 6.92709V5.68897H22.6413V4.28613H24.0152V5.68897H25.8395V6.92709H24.0152V10.4129C24.0152 10.6946 24.1028 10.9301 24.2799 11.1214C24.4553 11.3127 24.6771 11.4066 24.9402 11.4066H25.8395V12.7687H24.8353C24.218 12.7687 23.6988 12.565 23.2758 12.1559C22.8528 11.729 22.6413 11.2118 22.6413 10.6042V6.92886H21.5977V6.92709Z" fill="white"/>
<path id="Vector_6" d="M29.6201 5.51105C30.5091 5.51105 31.2725 5.82456 31.907 6.44982V5.68818H33.2808V12.7661H31.907V12.0045C31.2725 12.6315 30.5108 12.9433 29.6201 12.9433C28.659 12.9433 27.8543 12.589 27.2009 11.8805C26.5579 11.1826 26.2363 10.297 26.2363 9.22539C26.2363 8.15378 26.5579 7.26991 27.2009 6.57026C27.8526 5.86176 28.659 5.50928 29.6201 5.50928V5.51105ZM29.7646 6.92629C29.1748 6.92629 28.6762 7.14947 28.2721 7.59406C27.8663 8.02093 27.6634 8.56471 27.6634 9.22716C27.6634 9.88961 27.8663 10.4298 28.2721 10.8744C28.6865 11.3102 29.1834 11.528 29.7646 11.528C30.3457 11.528 30.865 11.3102 31.2708 10.8744C31.6766 10.4298 31.8795 9.88076 31.8795 9.22716C31.8795 8.57356 31.6766 8.02093 31.2708 7.59406C30.865 7.14947 30.3629 6.92629 29.7646 6.92629Z" fill="white"/>
<path id="Vector_7" d="M35.8055 12.7667H34.4316V2.55713H35.8055V12.7667Z" fill="white"/>
<path id="Vector_8" d="M37.031 12.7667V2.55713H38.4048V8.95493L40.9943 5.68695H42.6724L39.9764 9.10372L42.963 12.7649H41.2711L38.4031 9.25251V12.7649H37.0293L37.031 12.7667Z" fill="white"/>
<path id="Vector_9" d="M43.5342 4.64053C43.3675 4.45987 43.2832 4.23669 43.2832 3.97277C43.2832 3.70885 43.3675 3.48744 43.5342 3.305C43.7096 3.12256 43.9263 3.03223 44.1825 3.03223C44.4387 3.03223 44.6536 3.12256 44.8307 3.305C45.0061 3.48744 45.0955 3.70885 45.0955 3.97277C45.0955 4.23669 45.0078 4.45809 44.8307 4.64053C44.6536 4.82297 44.4387 4.91331 44.1825 4.91331C43.9263 4.91331 43.7113 4.82297 43.5342 4.64053ZM44.8685 12.7671H43.4947V5.68912H44.8685V12.7671Z" fill="white"/>
<path id="Vector_10" d="M45.7266 6.92709V5.68897H46.7703V4.28613H48.1441V5.68897H49.9684V6.92709H48.1441V10.4129C48.1441 10.6946 48.2318 10.9301 48.4089 11.1214C48.5842 11.3127 48.806 11.4066 49.0691 11.4066H49.9684V12.7687H48.9642C48.347 12.7687 47.8277 12.565 47.4047 12.1559C46.9817 11.729 46.7703 11.2118 46.7703 10.6042V6.92886H45.7266V6.92709Z" fill="white"/>
</g>
</g>
<path id="Union" fill-rule="evenodd" clip-rule="evenodd" d="M53.691 6.89489C53.1407 6.89489 52.5974 6.75319 52.1177 6.48573C51.9268 6.37945 51.7429 6.25015 51.5726 6.10491C50.8161 5.45486 50.3828 4.50015 50.3828 3.48699C50.3828 1.60769 51.8667 0.0791016 53.691 0.0791016C55.5152 0.0791016 57.0008 1.60769 57.0008 3.48699C57.0008 4.47713 56.583 5.41766 55.854 6.06594C55.6906 6.21118 55.5135 6.34048 55.3261 6.4503C54.8292 6.74079 54.2652 6.89489 53.6927 6.89489H53.691ZM53.6927 0.771662H53.6926L53.4944 0.779276C52.1828 0.88032 51.1363 1.97574 51.0626 3.33374C51.0599 3.38389 51.0585 3.4344 51.0585 3.48522C51.0585 4.03421 51.2184 4.56373 51.5209 5.01711C51.4886 4.17059 51.6489 3.52483 51.798 3.11755C51.9115 2.80637 52.0186 2.6339 52.0292 2.61687L52.03 2.61554L52.0352 2.60668L52.042 2.61377L52.8467 3.45157H54.5593L55.3708 2.60668L55.376 2.61554C55.376 2.61554 55.8866 3.48877 55.8677 5.01027C56.1432 4.59678 56.299 4.11946 56.3234 3.62179C56.3256 3.57643 56.3267 3.5309 56.3267 3.48523C56.3267 1.98855 55.1438 0.769948 53.691 0.769897L53.6927 0.771662Z" fill="white"/>
</g>
</g>
</svg>
