<svg width="20" height="20" viewBox="0 0 20 20" fill="none" xmlns="http://www.w3.org/2000/svg">
<g id="11">
<g id="Layer_1">
<path id="Vector" d="M14.8897 2.04343H5.59344C4.71341 2.04343 4 2.75683 4 3.63686V16.3952C4 17.2752 4.71341 17.9887 5.59344 17.9887H14.8897C15.7697 17.9887 16.4831 17.2752 16.4831 16.3952V3.63686C16.4831 2.75683 15.7697 2.04343 14.8897 2.04343Z" stroke="#1771DE" stroke-width="1.81072" stroke-miterlimit="10"/>
<path id="Vector_2" d="M11.9885 2H8.49382C7.9018 2 7.42188 2.47993 7.42188 3.07195V3.09368C7.42188 3.6857 7.9018 4.16562 8.49382 4.16562H11.9885C12.5805 4.16562 13.0605 3.6857 13.0605 3.09368V3.07195C13.0605 2.47993 12.5805 2 11.9885 2Z" fill="#1771DE"/>
<path id="Vector_3" d="M7.08208 15.5406H10.6637C11.1137 15.5406 11.4785 15.1757 11.4785 14.7257C11.4785 14.2757 11.1137 13.9109 10.6637 13.9109H7.08208C6.63206 13.9109 6.26726 14.2757 6.26726 14.7257C6.26726 15.1757 6.63206 15.5406 7.08208 15.5406Z" fill="#1771DE"/>
<g id="Group">
<path id="Vector_4" d="M10.9629 9.13052V6.40719C10.9629 6.00918 10.6402 5.68652 10.2422 5.68652H10.2386C9.84059 5.68652 9.51793 6.00918 9.51793 6.40719V9.13052C9.51793 9.52853 9.84059 9.85119 10.2386 9.85119H10.2422C10.6402 9.85119 10.9629 9.52853 10.9629 9.13052Z" fill="#1771DE"/>
<path id="Vector_5" d="M8.92112 8.50037H11.5612C11.9632 8.50037 12.2891 8.17447 12.2891 7.77246V7.75797C12.2891 7.35596 11.9632 7.03006 11.5612 7.03006H8.92112C8.5191 7.03006 8.19321 7.35596 8.19321 7.75797V7.77246C8.19321 8.17447 8.5191 8.50037 8.92112 8.50037Z" fill="#1771DE"/>
</g>
<path id="Vector_6" d="M7.07893 12.7881H13.402C13.852 12.7881 14.2168 12.4233 14.2168 11.9733C14.2168 11.5232 13.852 11.1584 13.402 11.1584H7.07893C6.62891 11.1584 6.2641 11.5232 6.2641 11.9733C6.2641 12.4233 6.62891 12.7881 7.07893 12.7881Z" fill="#1771DE"/>
</g>
</g>
</svg>
