<svg width="16" height="16" viewBox="0 0 16 16" fill="none" xmlns="http://www.w3.org/2000/svg">
<g id="Frame" clip-path="url(#clip0_23_18948)">
<path id="Vector" d="M7.9987 14.6663C4.3168 14.6663 1.33203 11.6815 1.33203 7.99967C1.33203 6.13798 2.09513 4.45452 3.32561 3.24502M7.9987 14.6663C7.3567 14.1906 7.45916 13.6367 7.78123 13.0828C8.27643 12.2313 8.27643 12.2313 8.27643 11.0959C8.27643 9.96061 8.9511 9.42827 11.332 9.90441C12.4018 10.1184 13.1814 8.64027 14.5702 9.12834M7.9987 14.6663C11.2959 14.6663 14.034 12.2727 14.5702 9.12834M3.32561 3.24502C3.8918 3.30477 4.20881 3.6081 4.73534 4.16445C5.73496 5.22069 6.73456 5.30882 7.40103 4.95674C8.40063 4.42863 7.56063 3.57321 8.73383 3.10833C9.4531 2.82335 9.59016 2.077 9.24976 1.4502M3.32561 3.24502C4.52866 2.06248 6.17849 1.33301 7.9987 1.33301C8.4263 1.33301 8.8445 1.37327 9.24976 1.4502M14.5702 9.12834C14.6328 8.76147 14.6654 8.38441 14.6654 7.99967C14.6654 4.74539 12.3336 2.03571 9.24976 1.4502" stroke="white" stroke-width="1.5" stroke-linejoin="round"/>
</g>
<defs>
<clipPath id="clip0_23_18948">
<rect width="16" height="16" fill="white"/>
</clipPath>
</defs>
</svg>
