<svg width="145" height="51" viewBox="0 0 145 51" fill="none" xmlns="http://www.w3.org/2000/svg">
<path d="M85.4388 42.3235H84.1504C83.7505 42.3235 83.4058 42.3925 83.1261 42.5284C82.8463 42.6682 82.6316 42.883 82.4858 43.1666C82.344 43.4385 82.2711 43.7872 82.2711 44.2009C82.2711 44.6145 82.3479 44.9455 82.4976 45.2134C82.6375 45.4518 82.8345 45.6389 83.0867 45.7709C83.0354 45.8812 82.9822 45.9974 82.931 46.1137C82.864 46.2614 82.799 46.4091 82.738 46.5549L81.9993 48.2786C81.9638 48.3554 81.9638 48.4224 81.9993 48.4776C82.017 48.5071 82.0643 48.5544 82.1588 48.5544H82.734C82.7793 48.5544 82.8227 48.5386 82.8562 48.5091C82.8877 48.4855 82.9113 48.4598 82.931 48.4224L83.9593 45.9679H84.7394V48.3476C84.7394 48.4717 84.8182 48.5544 84.9364 48.5544H85.4388C85.5629 48.5544 85.6456 48.4717 85.6456 48.3476V42.5284C85.6456 42.4043 85.5629 42.3215 85.4388 42.3215V42.3235ZM84.7394 43.1745V45.174H84.1504C83.7899 45.174 83.5338 45.0991 83.39 44.9553C83.2502 44.8096 83.1773 44.5613 83.1773 44.2186C83.1773 43.8463 83.2541 43.5764 83.4078 43.4168C83.5594 43.2553 83.8057 43.1725 84.1386 43.1725H84.7375L84.7394 43.1745Z" fill="white"/>
<path d="M80.7576 42.0674H81.2422C81.3565 42.0674 81.4491 42.16 81.4491 42.2742V44.4116C81.4491 44.5259 81.3565 44.6184 81.2422 44.6184H80.7576C80.6434 44.6184 80.5508 44.5259 80.5508 44.4116V42.2742C80.5508 42.16 80.6434 42.0674 80.7576 42.0674Z" fill="white"/>
<path d="M79.0628 45.2429C79.2421 45.1208 79.3839 44.973 79.4864 44.8036C79.6243 44.5653 79.6952 44.2678 79.6952 43.9191C79.6952 43.3912 79.5435 42.9873 79.2421 42.7214C78.9466 42.4574 78.4876 42.3254 77.8809 42.3254H76.7107C76.5866 42.3254 76.5039 42.4082 76.5039 42.5323V48.3515C76.5039 48.4756 76.5866 48.5583 76.7107 48.5583H77.9715C78.6098 48.5583 79.0944 48.4086 79.4076 48.1131C79.7307 47.8097 79.8942 47.3586 79.8942 46.7716C79.8942 46.3343 79.8016 45.9757 79.6184 45.7078C79.4824 45.501 79.2953 45.3473 79.0628 45.2449V45.2429ZM78.5743 44.6933C78.4403 44.8371 78.2237 44.91 77.9262 44.91H77.4101V43.1765H77.871C78.2079 43.1765 78.4463 43.2415 78.5842 43.3734C78.7201 43.4936 78.789 43.7083 78.789 44.0117C78.789 44.3151 78.7181 44.5475 78.5763 44.6953L78.5743 44.6933ZM77.4101 45.7433H77.9892C78.3379 45.7433 78.594 45.8201 78.7536 45.9738C78.9112 46.1254 78.99 46.3756 78.99 46.7164C78.99 47.0572 78.9112 47.3251 78.7555 47.4748C78.5979 47.6226 78.33 47.6975 77.9636 47.6975H77.412V45.7433H77.4101Z" fill="white"/>
<path d="M73.5922 42.2505C72.9874 42.2505 72.5166 42.4238 72.1955 42.7646C71.8764 43.1035 71.7148 43.6019 71.7148 44.248V46.6415C71.7148 47.2797 71.8764 47.7762 72.1955 48.115C72.5166 48.4558 72.9874 48.6291 73.5922 48.6291C74.197 48.6291 74.6776 48.4558 74.9987 48.115C75.3179 47.7762 75.4794 47.2797 75.4794 46.6415V44.248C75.4794 43.6038 75.3179 43.1035 74.9987 42.7646C74.6776 42.4238 74.2048 42.2505 73.5922 42.2505ZM74.5732 44.2756V46.6139C74.5732 47.0138 74.4885 47.3113 74.323 47.4984C74.1576 47.6796 73.9172 47.7683 73.5922 47.7683C73.2672 47.7683 73.0367 47.6796 72.8712 47.5004C72.7038 47.3113 72.619 47.0138 72.619 46.6139V44.2756C72.619 43.8717 72.7038 43.5723 72.8712 43.3891C73.0367 43.202 73.2731 43.1114 73.5922 43.1114C73.9113 43.1114 74.1556 43.202 74.323 43.3911C74.4905 43.5743 74.5732 43.8717 74.5732 44.2756Z" fill="white"/>
<path d="M69.107 42.3235H67.9743C67.8561 42.3235 67.7773 42.4062 67.7773 42.5303V48.3495C67.7773 48.4736 67.8561 48.5564 67.9743 48.5564H68.4865C68.6047 48.5564 68.6835 48.4736 68.6835 48.3495V46.2634H69.1346C69.7473 46.2634 70.2161 46.09 70.5313 45.7492C70.8445 45.4104 71.0021 44.9199 71.0021 44.2934C71.0021 43.667 70.8426 43.1449 70.5293 42.8179C70.2142 42.489 69.7355 42.3235 69.1051 42.3235H69.107ZM70.0979 44.321C70.0979 44.7032 70.0191 44.9849 69.8655 45.1602C69.7138 45.3276 69.4557 45.4123 69.0992 45.4123H68.6835V43.1666H69.1169C69.4557 43.1666 69.7039 43.2533 69.8556 43.4286C70.0152 43.6059 70.0979 43.9053 70.0979 44.323V44.321Z" fill="white"/>
<path d="M64.8656 42.2505C64.2609 42.2505 63.79 42.4238 63.4689 42.7646C63.1498 43.1035 62.9883 43.6019 62.9883 44.248V46.6415C62.9883 47.2797 63.1498 47.7762 63.4689 48.115C63.79 48.4558 64.2609 48.6291 64.8656 48.6291C65.4704 48.6291 65.9511 48.4558 66.2722 48.115C66.5913 47.7762 66.7528 47.2797 66.7528 46.6415V44.248C66.7528 43.6038 66.5913 43.1035 66.2722 42.7646C65.9511 42.4238 65.4783 42.2505 64.8656 42.2505ZM65.8467 44.2756V46.6139C65.8467 47.0138 65.7619 47.3113 65.5965 47.4984C65.431 47.6796 65.1907 47.7683 64.8656 47.7683C64.5406 47.7683 64.3101 47.6796 64.1446 47.4984C63.9772 47.3093 63.8925 47.0118 63.8925 46.6119V44.2736C63.8925 43.8698 63.9772 43.5703 64.1446 43.3871C64.3101 43.2 64.5465 43.1094 64.8656 43.1094C65.1848 43.1094 65.429 43.2 65.5965 43.3891C65.7619 43.5723 65.8467 43.8698 65.8467 44.2736V44.2756Z" fill="white"/>
<path d="M62.3021 47.6876H62.1091L60.8267 42.4949C60.8109 42.3905 60.7321 42.3235 60.6218 42.3235H59.9087C59.8614 42.3235 59.7728 42.3392 59.7097 42.4496L58.4115 47.6856H58.2185C58.1003 47.6856 58.0215 47.7684 58.0215 47.8925V49.565C58.0215 49.6891 58.1003 49.7718 58.2185 49.7718H58.7307C58.8489 49.7718 58.9277 49.6891 58.9277 49.565V48.5564H61.5949V49.565C61.5949 49.6891 61.6737 49.7718 61.7919 49.7718H62.3041C62.3652 49.7718 62.4203 49.7462 62.4558 49.6989C62.4775 49.6733 62.5011 49.63 62.5011 49.565V47.8925C62.5011 47.7684 62.4223 47.6856 62.3041 47.6856L62.3021 47.6876ZM60.0466 44.5594C60.1017 44.3269 60.153 44.0984 60.2022 43.8738C60.218 43.8108 60.2317 43.7458 60.2475 43.6827C60.2613 43.7438 60.2751 43.8049 60.2908 43.8659C60.346 44.0905 60.4012 44.319 60.4544 44.5495L61.1675 47.6876H59.3256L60.0466 44.5594Z" fill="white"/>
<path d="M56.8475 45.3177C57.011 45.1975 57.147 45.0439 57.2533 44.8548C57.4031 44.5809 57.4779 44.252 57.4779 43.8718C57.4779 42.81 56.9007 42.2485 55.8094 42.2485C55.2479 42.2485 54.8185 42.3963 54.5329 42.6878C54.2531 42.9735 54.1211 43.395 54.1408 43.9348C54.1408 44.0077 54.1704 44.053 54.196 44.0766L54.2137 44.0924C54.2531 44.118 54.2945 44.1318 54.3378 44.1318H54.8579C54.9525 44.1318 55.047 44.0688 55.045 43.921C55.0332 43.6275 55.0844 43.4167 55.1967 43.2946C55.3051 43.1705 55.4981 43.1074 55.77 43.1074C56.0556 43.1074 56.2625 43.1744 56.3846 43.3064C56.5067 43.4344 56.5698 43.6531 56.5698 43.9604C56.5698 44.3111 56.4949 44.5711 56.3452 44.7366C56.2053 44.8922 55.9729 44.969 55.6518 44.969H55.1396C55.045 44.969 54.9525 45.0321 54.9525 45.1759V45.623C54.9525 45.7649 55.047 45.8299 55.1396 45.8299H55.7424C56.1029 45.8299 56.359 45.9047 56.5067 46.0525C56.6565 46.1923 56.7313 46.4287 56.7313 46.7557C56.7313 47.1281 56.6565 47.394 56.5126 47.5457C56.3669 47.6915 56.1206 47.7663 55.7779 47.7663C55.4981 47.7663 55.2933 47.7013 55.1751 47.5772C55.0588 47.4492 55.0017 47.2423 55.0076 46.9567C55.0076 46.807 54.9131 46.742 54.8185 46.742H54.2984C54.2472 46.742 54.2019 46.7597 54.1645 46.7971C54.129 46.8326 54.1093 46.8838 54.1113 46.9449C54.0916 47.4945 54.2236 47.92 54.5033 48.2056C54.783 48.4853 55.2086 48.6252 55.77 48.6252C56.3984 48.6252 56.8712 48.4656 57.1745 48.1485C57.4838 47.8333 57.6394 47.3585 57.6394 46.736C57.6394 46.3342 57.5528 46.0032 57.3814 45.7531C57.2514 45.558 57.0721 45.4103 56.8436 45.3118L56.8475 45.3177Z" fill="white"/>
<path d="M143.946 32.2156C143.625 31.8748 143.152 31.7014 142.539 31.7014C141.927 31.7014 141.464 31.8748 141.143 32.2156C140.824 32.5544 140.662 33.0528 140.662 33.6989V36.0924C140.662 36.7307 140.824 37.2271 141.143 37.5659C141.464 37.9067 141.935 38.0801 142.539 38.0801C143.144 38.0801 143.625 37.9067 143.946 37.5659C144.265 37.2271 144.427 36.7307 144.427 36.0924V33.6989C144.427 33.0548 144.265 32.5544 143.946 32.2156ZM143.52 33.7265V36.0648C143.52 36.4647 143.436 36.7622 143.27 36.9493C143.105 37.1306 142.866 37.2192 142.539 37.2192C142.212 37.2192 141.984 37.1306 141.818 36.9513C141.651 36.7622 141.566 36.4647 141.566 36.0648V33.7265C141.566 33.3227 141.651 33.0232 141.818 32.84C141.984 32.6529 142.22 32.5623 142.539 32.5623C142.859 32.5623 143.103 32.6529 143.27 32.842C143.438 33.0252 143.52 33.3227 143.52 33.7265Z" fill="white"/>
<path d="M139.995 31.7742H137.601C137.509 31.7742 137.414 31.8372 137.414 31.981V37.8002C137.414 37.9243 137.493 38.007 137.611 38.007H138.123C138.241 38.007 138.32 37.9243 138.32 37.8002V32.6429H139.997C140.095 32.6429 140.194 32.5759 140.194 32.4282V31.981C140.194 31.8569 140.115 31.7742 139.997 31.7742H139.995Z" fill="white"/>
<path d="M134.502 31.7014C133.898 31.7014 133.427 31.8748 133.106 32.2156C132.787 32.5544 132.625 33.0528 132.625 33.6989V36.0924C132.625 36.7326 132.787 37.2271 133.106 37.5659C133.427 37.9067 133.898 38.0801 134.502 38.0801C135.107 38.0801 135.588 37.9067 135.909 37.5659C136.228 37.2271 136.39 36.7307 136.39 36.0924V33.6989C136.39 33.0548 136.228 32.5544 135.909 32.2156C135.588 31.8748 135.115 31.7014 134.502 31.7014ZM135.483 33.7265V36.0648C135.483 36.4647 135.399 36.7622 135.233 36.9493C135.068 37.1306 134.829 37.2192 134.502 37.2192C134.175 37.2192 133.947 37.1306 133.781 36.9513C133.614 36.7622 133.529 36.4647 133.529 36.0648V33.7265C133.529 33.3227 133.614 33.0232 133.781 32.84C133.947 32.6529 134.183 32.5623 134.502 32.5623C134.821 32.5623 135.066 32.6529 135.233 32.842C135.401 33.0252 135.483 33.3227 135.483 33.7265Z" fill="white"/>
<path d="M130.652 34.7588L132.138 32.0561C132.165 31.999 132.165 31.9517 132.159 31.9162C132.15 31.8433 132.092 31.7764 131.99 31.7764H131.442C131.411 31.7764 131.379 31.7823 131.332 31.8C131.295 31.8177 131.265 31.8512 131.243 31.8965L129.862 34.4003H129.494V31.9852C129.494 31.8611 129.415 31.7783 129.297 31.7783H128.785C128.667 31.7783 128.588 31.8611 128.588 31.9852V37.8044C128.588 37.9285 128.667 38.0112 128.785 38.0112H129.297C129.415 38.0112 129.494 37.9285 129.494 37.8044V35.2691H129.882L131.342 37.8871C131.367 37.9364 131.397 37.9698 131.45 37.9955C131.482 38.0053 131.513 38.0112 131.545 38.0112H132.13C132.256 38.0112 132.293 37.9265 132.295 37.9147C132.325 37.8556 132.325 37.7906 132.293 37.7256L130.654 34.7608L130.652 34.7588Z" fill="white"/>
<path d="M125.791 34.0494H125.34V31.981C125.34 31.8569 125.261 31.7742 125.143 31.7742H124.631C124.512 31.7742 124.434 31.8569 124.434 31.981V37.8002C124.434 37.9243 124.512 38.007 124.631 38.007H125.809C126.463 38.007 126.959 37.8278 127.28 37.4732C127.605 37.1225 127.771 36.6104 127.771 35.9544C127.771 35.2984 127.603 34.8453 127.276 34.5321C126.949 34.211 126.449 34.0494 125.791 34.0494ZM126.864 35.9563C126.87 36.3779 126.786 36.6892 126.614 36.8763C126.445 37.0615 126.165 37.156 125.783 37.156H125.34V34.9005H125.783C126.175 34.9005 126.455 34.9812 126.62 35.1388C126.784 35.2964 126.866 35.5702 126.866 35.9563H126.864Z" fill="white"/>
<path d="M122.701 34.0338H123.213C123.312 34.0338 123.41 33.9668 123.41 33.8348C123.468 33.4054 123.428 33.0272 123.292 32.712C123.16 32.3889 122.944 32.1368 122.648 31.9673C122.362 31.792 122.008 31.7034 121.596 31.7034C120.989 31.7034 120.519 31.8826 120.199 32.2372C119.88 32.582 119.719 33.0941 119.719 33.756V36.0313C119.719 36.6932 119.88 37.2074 120.199 37.56C120.521 37.9087 120.991 38.084 121.596 38.084C122.201 38.084 122.678 37.8949 123.007 37.5206C123.332 37.1424 123.471 36.6203 123.42 35.9663C123.406 35.8087 123.3 35.7536 123.206 35.7536H122.713C122.63 35.7536 122.583 35.789 122.559 35.8205C122.536 35.8521 122.51 35.9052 122.526 35.9702C122.559 36.3642 122.496 36.6775 122.339 36.902C122.185 37.1187 121.947 37.2251 121.608 37.2251C121.289 37.2251 121.05 37.1305 120.881 36.9414C120.712 36.7405 120.627 36.4253 120.627 36.0077V33.7876C120.627 33.3699 120.712 33.0587 120.879 32.8637C121.05 32.6647 121.289 32.5682 121.608 32.5682C121.927 32.5682 122.167 32.6686 122.321 32.8735C122.479 33.0843 122.542 33.4034 122.506 33.8329C122.506 33.957 122.585 34.0397 122.703 34.0397L122.701 34.0338Z" fill="white"/>
<path d="M119.031 37.1383H118.838L117.555 31.9456C117.539 31.8411 117.459 31.7742 117.35 31.7742H116.637C116.59 31.7742 116.501 31.7899 116.438 31.9002L115.142 37.1363H114.949C114.831 37.1363 114.752 37.2191 114.752 37.3432V39.0156C114.752 39.1398 114.831 39.2225 114.949 39.2225H115.461C115.579 39.2225 115.658 39.1398 115.658 39.0156V38.007H118.325V39.0156C118.325 39.1398 118.404 39.2225 118.522 39.2225H119.035C119.096 39.2225 119.151 39.1969 119.186 39.1496C119.208 39.124 119.232 39.0807 119.232 39.0156V37.3432C119.232 37.2191 119.153 37.1363 119.035 37.1363L119.031 37.1383ZM116.775 34.01C116.83 33.7776 116.881 33.5491 116.931 33.3245C116.946 33.2615 116.96 33.1965 116.976 33.1334C116.99 33.1945 117.004 33.2556 117.019 33.3166C117.075 33.5412 117.13 33.7697 117.183 34.0002L117.896 37.1383H116.056L116.777 34.01H116.775Z" fill="white"/>
<path d="M113.048 31.914C113.011 31.8254 112.936 31.7742 112.844 31.7742H112.14C112.036 31.7742 111.957 31.8313 111.928 31.9318L110.423 37.7569C110.395 37.8475 110.419 37.9046 110.444 37.9381C110.464 37.9637 110.509 38.007 110.596 38.007H111.136C111.234 38.007 111.309 37.9499 111.339 37.8494L111.654 36.5651H113.32L113.639 37.8514L113.651 37.8829C113.714 37.9933 113.797 38.009 113.842 38.009H114.4C114.481 38.009 114.526 37.9736 114.551 37.944C114.577 37.9125 114.603 37.8573 114.585 37.7628L113.052 31.916L113.048 31.914ZM112.324 33.819C112.373 33.6161 112.418 33.4171 112.461 33.2221C112.467 33.1984 112.471 33.1768 112.477 33.1531L112.495 33.2359C112.544 33.4309 112.591 33.6279 112.641 33.8288L113.106 35.7042H111.863L112.324 33.819Z" fill="white"/>
<path d="M109.704 31.7742H108.9C108.807 31.7742 108.732 31.8254 108.691 31.9239L107.657 35.1388L106.611 31.9121C106.573 31.8234 106.498 31.7722 106.406 31.7722H105.602C105.484 31.7722 105.405 31.855 105.405 31.9771L105.305 37.8002C105.305 37.9243 105.383 38.0071 105.502 38.0071H106.004C106.122 38.0071 106.201 37.9243 106.201 37.8022L106.264 33.9904V33.6318C106.301 33.7461 106.339 33.8603 106.378 33.9746L107.426 37.0359C107.446 37.1324 107.525 37.1915 107.629 37.1915H107.667C107.773 37.1915 107.85 37.1304 107.87 37.0339L108.908 34.0002C108.953 33.8663 108.998 33.7323 109.042 33.5964L109.105 37.7982C109.105 37.9224 109.183 38.0051 109.302 38.0051H109.804C109.922 38.0051 110.001 37.9224 110.001 37.7963L109.901 31.9791C109.901 31.855 109.822 31.7722 109.704 31.7722V31.7742Z" fill="white"/>
<path d="M102.491 31.7014C101.886 31.7014 101.415 31.8748 101.094 32.2156C100.775 32.5544 100.613 33.0528 100.613 33.6989V36.0924C100.613 36.7326 100.775 37.2271 101.094 37.5659C101.415 37.9067 101.886 38.0801 102.491 38.0801C103.095 38.0801 103.574 37.9067 103.897 37.5659C104.216 37.2271 104.378 36.7307 104.378 36.0924V33.6989C104.378 33.0548 104.216 32.5544 103.897 32.2156C103.576 31.8748 103.103 31.7014 102.491 31.7014ZM103.472 33.7265V36.0648C103.472 36.4647 103.387 36.7622 103.221 36.9493C103.056 37.1306 102.818 37.2192 102.491 37.2192C102.164 37.2192 101.935 37.1306 101.77 36.9513C101.602 36.7622 101.517 36.4647 101.517 36.0648V33.7265C101.517 33.3227 101.602 33.0232 101.77 32.84C101.935 32.6529 102.172 32.5623 102.491 32.5623C102.81 32.5623 103.054 32.6529 103.221 32.842C103.389 33.0252 103.472 33.3227 103.472 33.7265Z" fill="white"/>
<path d="M98.0074 31.7742H96.8747C96.7565 31.7742 96.6777 31.8569 96.6777 31.981V37.8002C96.6777 37.9243 96.7565 38.007 96.8747 38.007H97.3869C97.5051 38.007 97.5839 37.9243 97.5839 37.8002V35.714H98.035C98.6477 35.714 99.1165 35.5407 99.4337 35.1999C99.7469 34.8611 99.9045 34.3705 99.9045 33.7441C99.9045 33.1177 99.7449 32.5956 99.4317 32.2686C99.1165 31.9396 98.6378 31.7742 98.0074 31.7742ZM98.9983 33.7717C98.9983 34.1539 98.9195 34.4356 98.7659 34.6109C98.6142 34.7783 98.3561 34.863 97.9996 34.863H97.5839V32.6173H98.0173C98.3561 32.6173 98.6043 32.704 98.756 32.8793C98.9156 33.0566 98.9983 33.356 98.9983 33.7737V33.7717Z" fill="white"/>
<path d="M95.7564 31.7742H93.3629C93.2703 31.7742 93.1758 31.8372 93.1758 31.981V37.8002C93.1758 37.9243 93.2546 38.007 93.3728 38.007H93.885C94.0032 38.007 94.082 37.9243 94.082 37.8002V32.6429H95.7584C95.8569 32.6429 95.9554 32.5759 95.9554 32.4282V31.981C95.9554 31.8569 95.8766 31.7742 95.7584 31.7742H95.7564Z" fill="white"/>
<path d="M89.8339 34.7706C89.9974 34.6504 90.1333 34.4968 90.2397 34.3076C90.3894 34.0338 90.4643 33.7048 90.4643 33.3246C90.4643 32.2628 89.8871 31.7014 88.7957 31.7014C88.2343 31.7014 87.8029 31.8492 87.5192 32.1407C87.2395 32.4264 87.1075 32.8479 87.1272 33.3877C87.1272 33.4606 87.1567 33.5059 87.1823 33.5315L87.2001 33.5453C87.2395 33.5709 87.2808 33.5847 87.3242 33.5847H87.8442C87.9388 33.5847 88.0334 33.5216 88.0334 33.3739C88.0215 33.0804 88.0728 32.8696 88.185 32.7475C88.2934 32.6233 88.4864 32.5623 88.7583 32.5623C89.0439 32.5623 89.2508 32.6293 89.3729 32.7612C89.495 32.8893 89.5581 33.1079 89.5581 33.4153C89.5581 33.7659 89.4832 34.0259 89.3335 34.1914C89.1936 34.347 88.9612 34.4239 88.6401 34.4239H88.1279C88.0353 34.4239 87.9408 34.4869 87.9408 34.6307V35.0779C87.9408 35.2197 88.0353 35.2847 88.1279 35.2847H88.7307C89.0912 35.2847 89.3473 35.3596 89.495 35.5073C89.6448 35.6472 89.7196 35.8836 89.7196 36.2106C89.7196 36.5829 89.6448 36.8489 89.499 37.0005C89.3532 37.1463 89.107 37.2192 88.7642 37.2192C88.4845 37.2192 88.2816 37.1542 88.1614 37.0301C88.0452 36.902 87.988 36.6952 87.992 36.4115C87.992 36.2618 87.8974 36.1968 87.8048 36.1968H87.2848C87.2336 36.1968 87.1863 36.2165 87.1508 36.252C87.1154 36.2874 87.0957 36.3386 87.0957 36.3997C87.076 36.9513 87.208 37.3748 87.4877 37.6605C87.7674 37.9402 88.1929 38.0801 88.7544 38.0801C89.3828 38.0801 89.8555 37.9205 90.1589 37.6033C90.4682 37.2881 90.6238 36.8134 90.6238 36.1909C90.6238 35.789 90.5371 35.4581 90.3658 35.2079C90.2357 35.0129 90.0565 34.8651 89.828 34.7666L89.8339 34.7706Z" fill="white"/>
<path d="M83.9984 34.6936C84.1777 34.5715 84.3195 34.4237 84.4219 34.2543C84.5598 34.016 84.6307 33.7185 84.6307 33.3698C84.6307 32.8419 84.4791 32.438 84.1777 32.1721C83.8822 31.9081 83.4232 31.7742 82.8164 31.7742H81.6463C81.5222 31.7742 81.4395 31.8569 81.4395 31.981V37.8002C81.4395 37.9243 81.5222 38.007 81.6463 38.007H82.9071C83.5453 38.007 84.0299 37.8573 84.3451 37.5618C84.6682 37.2585 84.8317 36.8074 84.8317 36.2203C84.8317 35.783 84.7391 35.4245 84.5559 35.1565C84.42 34.9497 84.2328 34.7961 84.0004 34.6936H83.9984ZM83.5099 34.144C83.3759 34.2878 83.1592 34.3607 82.8617 34.3607H82.3456V32.6252H82.8066C83.1434 32.6252 83.3818 32.6902 83.5197 32.8222C83.6556 32.9423 83.7246 33.1571 83.7246 33.4604C83.7246 33.7638 83.6537 33.9963 83.5118 34.144H83.5099ZM83.9235 36.1652C83.9235 36.5178 83.8447 36.7739 83.6891 36.9236C83.5315 37.0713 83.2636 37.1462 82.8972 37.1462H82.3456V35.192H82.9248C83.2735 35.192 83.5296 35.2688 83.6891 35.4225C83.8467 35.5742 83.9255 35.8244 83.9255 36.1652H83.9235Z" fill="white"/>
<path d="M80.1193 31.7742H79.6071C79.489 31.7742 79.4102 31.8569 79.4102 31.981V37.8002C79.4102 37.9243 79.489 38.007 79.6071 38.007H80.1193C80.2375 38.007 80.3163 37.9243 80.3163 37.8002V31.981C80.3163 31.8569 80.2375 31.7742 80.1193 31.7742Z" fill="white"/>
<path d="M78.5215 37.1383H78.2339V31.981C78.2339 31.8569 78.1551 31.7742 78.0369 31.7742H77.5248C77.4066 31.7742 77.3278 31.8569 77.3278 31.981V37.1383H75.5292V31.981C75.5292 31.8569 75.4504 31.7742 75.3322 31.7742H74.82C74.7018 31.7742 74.623 31.8569 74.623 31.981V37.8002C74.623 37.9243 74.7018 38.007 74.82 38.007H77.8124V39.0156C77.8124 39.1398 77.8912 39.2225 78.0094 39.2225H78.5215C78.6397 39.2225 78.7185 39.1398 78.7185 39.0156V37.3432C78.7185 37.2191 78.6397 37.1363 78.5215 37.1363V37.1383Z" fill="white"/>
<path d="M72.932 34.6936C73.1113 34.5715 73.2531 34.4237 73.3555 34.2543C73.4934 34.0179 73.5643 33.7185 73.5643 33.3698C73.5643 32.8419 73.4127 32.438 73.1113 32.1721C72.8158 31.9081 72.3568 31.7742 71.75 31.7742H70.5799C70.4558 31.7742 70.373 31.8569 70.373 31.981V37.8002C70.373 37.9243 70.4558 38.007 70.5799 38.007H71.8407C72.4789 38.007 72.9635 37.8573 73.2767 37.5618C73.5998 37.2585 73.7633 36.8074 73.7633 36.2203C73.7633 35.783 73.6707 35.4245 73.4875 35.1565C73.3516 34.9497 73.1644 34.7961 72.932 34.6936ZM72.4435 34.144C72.3095 34.2878 72.0928 34.3607 71.7934 34.3607H71.2773V32.6252H71.7382C72.0751 32.6252 72.3134 32.6902 72.4513 32.8222C72.5873 32.9423 72.6562 33.159 72.6562 33.4604C72.6562 33.7618 72.5853 33.9963 72.4435 34.144ZM71.2792 35.194H71.8584C72.2071 35.194 72.4632 35.2708 72.6227 35.4245C72.7803 35.5761 72.8591 35.8263 72.8591 36.1671C72.8591 36.5079 72.7803 36.7758 72.6247 36.9255C72.4671 37.0733 72.1992 37.1482 71.8328 37.1482H71.2812V35.194H71.2792Z" fill="white"/>
<path d="M69.051 31.7742H68.5388C68.4206 31.7742 68.3418 31.8569 68.3418 31.981V37.8002C68.3418 37.9243 68.4206 38.007 68.5388 38.007H69.051C69.1692 38.007 69.248 37.9243 69.248 37.8002V31.981C69.248 31.8569 69.1692 31.7742 69.051 31.7742Z" fill="white"/>
<path d="M67.7678 37.7295L66.3337 34.814L67.6831 32.06C67.7245 31.9832 67.7284 31.9162 67.6949 31.8591C67.6733 31.8217 67.626 31.7764 67.5275 31.7764H66.9346C66.8498 31.7764 66.7809 31.8217 66.7395 31.9024L66.0619 33.3228L65.859 33.7818C65.8334 33.8448 65.8058 33.9078 65.7802 33.9709L65.7053 33.7936C65.6442 33.6399 65.5792 33.4882 65.5103 33.3385L64.8188 31.9024C64.7873 31.8236 64.7184 31.7783 64.6297 31.7783H64.0092C63.9442 31.7783 63.8871 31.8079 63.8516 31.8611L63.8358 31.8926C63.8201 31.9399 63.824 31.9931 63.8516 32.06L65.2128 34.8002L63.759 37.7374C63.7236 37.8142 63.7236 37.8812 63.759 37.9364C63.7767 37.9659 63.824 38.0132 63.9186 38.0132H64.5312C64.6179 38.0132 64.6908 37.962 64.7263 37.8792L65.4689 36.3407C65.5359 36.1871 65.6029 36.0314 65.6699 35.8758C65.7014 35.8049 65.7309 35.7359 65.7605 35.667C65.788 35.734 65.8156 35.8029 65.8452 35.8738C65.9122 36.0334 65.9831 36.193 66.0579 36.3545L66.7888 37.891C66.8282 37.9698 66.8991 38.0152 66.9818 38.0152H67.6122C67.7363 38.0152 67.7757 37.9304 67.7875 37.893C67.8013 37.8398 67.7954 37.7847 67.7698 37.7354L67.7678 37.7295Z" fill="white"/>
<path d="M63.7217 37.761L62.1891 31.9143C62.1516 31.8256 62.0768 31.7744 61.9842 31.7744H61.2809C61.1765 31.7744 61.0977 31.8315 61.0701 31.932L59.5631 37.7571C59.5356 37.8477 59.5592 37.9048 59.5848 37.9383C59.6045 37.9639 59.6498 38.0073 59.7365 38.0073H60.2763C60.3747 38.0073 60.4496 37.9502 60.4792 37.8497L60.7943 36.5653H62.4609L62.78 37.8517L62.7919 37.8832C62.851 37.9876 62.9278 38.0093 62.981 38.0093H63.5385C63.6192 38.0093 63.6645 37.9738 63.6902 37.9443C63.7158 37.9127 63.7414 37.8576 63.7236 37.763L63.7217 37.761ZM61.4661 33.8192C61.5153 33.6183 61.5607 33.4193 61.604 33.2223C61.6099 33.1987 61.6138 33.177 61.6197 33.1534L61.6375 33.2361C61.6867 33.4311 61.734 33.6281 61.7833 33.8291L62.2482 35.7044H61.0051L61.4661 33.8192Z" fill="white"/>
<path d="M58.8963 32.6509C58.7072 32.318 58.4353 32.0737 58.0886 31.922C57.803 31.7979 57.4681 31.7251 57.0938 31.7073V31.3153C57.0938 31.1656 56.9992 31.1006 56.9066 31.1006H56.3866C56.2881 31.1006 56.1896 31.1676 56.1896 31.3153V31.7073C55.8153 31.727 55.4824 31.8019 55.1948 31.9319C54.8481 32.0816 54.5762 32.3279 54.3871 32.6627C54.2078 32.9898 54.1152 33.4231 54.1152 33.9471V35.8028C54.1152 36.3505 54.2059 36.7976 54.3871 37.1325C54.5762 37.4714 54.8441 37.7196 55.1869 37.8713C55.4725 37.9934 55.8094 38.0623 56.1896 38.0781V38.4701C56.1896 38.6198 56.2881 38.6848 56.3866 38.6848H56.9066C57.0012 38.6848 57.0938 38.6179 57.0938 38.4701V38.0781C57.472 38.0604 57.8049 37.9914 58.0866 37.8713C58.4333 37.7274 58.7072 37.4812 58.8963 37.1404C59.0834 36.8075 59.176 36.3564 59.176 35.8009V33.9452C59.176 33.4133 59.0814 32.9779 58.8943 32.6509H58.8963ZM58.1122 33.1158C58.2186 33.3227 58.2718 33.6103 58.2718 33.9728V35.7733C58.2718 36.1653 58.2186 36.4726 58.1103 36.6893C58.0137 36.8942 57.8699 37.0321 57.6729 37.1128C57.5094 37.1818 57.3085 37.2231 57.078 37.235V32.5485C57.3144 32.5623 57.5153 32.6056 57.6808 32.6785C57.8739 32.7652 58.0157 32.907 58.1142 33.1158H58.1122ZM55.1731 36.6873C55.0726 36.4726 55.0214 36.1653 55.0214 35.7713V33.9708C55.0214 33.6083 55.0726 33.3187 55.1731 33.1119C55.2775 32.905 55.4213 32.7632 55.6144 32.6765C55.7798 32.6036 55.9808 32.5603 56.2093 32.5465V37.231C55.9808 37.2172 55.7798 37.1759 55.6144 37.1089C55.4213 37.0281 55.2775 36.8902 55.177 36.6853L55.1731 36.6873Z" fill="white"/>
<path d="M104.327 25.4056C104.203 25.4056 104.172 25.3386 104.229 25.2067L105.395 22.6477C105.489 22.4389 105.59 22.2261 105.692 22.0075C105.797 21.7809 105.901 21.5623 106.006 21.3535V21.3259C105.57 21.1269 105.237 20.8334 105.011 20.4453C104.784 20.0572 104.67 19.5648 104.67 18.9679C104.67 18.371 104.774 17.8312 104.983 17.4037C105.202 16.9782 105.529 16.6552 105.964 16.4365C106.409 16.21 106.969 16.0957 107.643 16.0957H109.989C110.093 16.0957 110.144 16.1469 110.144 16.2513V25.25C110.144 25.3544 110.093 25.4056 109.989 25.4056H108.694C108.6 25.4056 108.553 25.3544 108.553 25.25V21.6529H107.487L105.923 25.2914C105.913 25.3288 105.889 25.3583 105.852 25.3761C105.824 25.3958 105.791 25.4036 105.751 25.4036H104.329L104.327 25.4056ZM107.696 20.3586H108.549V17.5022H107.668C107.186 17.5022 106.829 17.6263 106.602 17.8726C106.384 18.109 106.275 18.4833 106.275 18.9954C106.275 19.4781 106.384 19.8287 106.602 20.0474C106.829 20.2562 107.195 20.3606 107.698 20.3606L107.696 20.3586Z" fill="white"/>
<path d="M101.775 25.4056C101.68 25.4056 101.633 25.3544 101.633 25.25V16.2513C101.633 16.1469 101.68 16.0957 101.775 16.0957H103.083C103.177 16.0957 103.225 16.1469 103.225 16.2513V25.25C103.225 25.3544 103.177 25.4056 103.083 25.4056H101.775Z" fill="white"/>
<path d="M99.2015 27.3539C99.1069 27.3539 99.0597 27.3026 99.0597 27.1982V25.4076H94.0422C93.9477 25.4076 93.9004 25.3563 93.9004 25.2519V16.2533C93.9004 16.1489 93.9477 16.0977 94.0422 16.0977H95.3503C95.4448 16.0977 95.4921 16.1489 95.4921 16.2533V23.9577H98.2205V16.2533C98.2205 16.1489 98.2677 16.0977 98.3623 16.0977H99.6703C99.7649 16.0977 99.8122 16.1489 99.8122 16.2533V23.9577H100.466C100.571 23.9577 100.622 24.0148 100.622 24.1291V27.2002C100.622 27.3046 100.571 27.3558 100.466 27.3558H99.2015V27.3539Z" fill="white"/>
<path d="M93.1232 25.2362L90.777 16.2237C90.7395 16.139 90.6765 16.0957 90.5918 16.0957H88.872C88.7873 16.0957 88.7302 16.139 88.7006 16.2237L86.3545 25.2362C86.3269 25.3505 86.3643 25.4076 86.4687 25.4076H87.8752C87.9698 25.4076 88.023 25.3642 88.0309 25.2795L88.4485 23.418H90.9956L91.4133 25.2795C91.4408 25.3642 91.494 25.4076 91.5689 25.4076H93.005C93.1094 25.4076 93.1468 25.3505 93.1192 25.2362H93.1232ZM88.7519 22.0804L89.3271 19.5214C89.4039 19.1984 89.4689 18.8812 89.5261 18.5699C89.593 18.2469 89.6541 17.9297 89.7112 17.6185H89.7388C89.7959 17.9317 89.8531 18.2488 89.9102 18.5699C89.9772 18.8832 90.0481 19.2003 90.1229 19.5214L90.6982 22.0804H88.7519Z" fill="white"/>
<path d="M84.1282 25.4056C84.0336 25.4056 83.9863 25.3544 83.9863 25.25V16.2513C83.9863 16.1469 84.0336 16.0957 84.1282 16.0957H85.4362C85.5308 16.0957 85.578 16.1469 85.578 16.2513V25.25C85.578 25.3544 85.5308 25.4056 85.4362 25.4056H84.1282Z" fill="white"/>
<path d="M81.557 27.3539C81.4624 27.3539 81.4151 27.3026 81.4151 27.1982V25.4076H76.3977C76.3031 25.4076 76.2559 25.3563 76.2559 25.2519V16.2533C76.2559 16.1489 76.3031 16.0977 76.3977 16.0977H77.7057C77.8003 16.0977 77.8476 16.1489 77.8476 16.2533V23.9577H80.5759V16.2533C80.5759 16.1489 80.6232 16.0977 80.7178 16.0977H82.0258C82.1204 16.0977 82.1676 16.1489 82.1676 16.2533V23.9577H82.8217C82.9261 23.9577 82.9773 24.0148 82.9773 24.1291V27.2002C82.9773 27.3046 82.9261 27.3558 82.8217 27.3558H81.557V27.3539Z" fill="white"/>
<path d="M71.7701 25.5199C70.7753 25.5199 70.0169 25.2539 69.4948 24.724C68.9827 24.1842 68.7266 23.3923 68.7266 22.3502V19.1668C68.7266 18.1149 68.9827 17.323 69.4948 16.793C70.0149 16.2533 70.7733 15.9834 71.7701 15.9834C72.7669 15.9834 73.547 16.2533 74.0592 16.793C74.5812 17.323 74.8412 18.1149 74.8412 19.1668V22.3502C74.8412 23.3923 74.5812 24.1842 74.0592 24.724C73.547 25.2539 72.7846 25.5199 71.7701 25.5199ZM71.7701 24.0838C72.2626 24.0838 72.6329 23.936 72.8792 23.6425C73.1254 23.349 73.2495 22.8939 73.2495 22.2773V19.2358C73.2495 18.6113 73.1274 18.1503 72.8792 17.8568C72.6329 17.5633 72.2626 17.4155 71.7701 17.4155C71.2776 17.4155 70.9368 17.5633 70.6906 17.8568C70.4443 18.1503 70.3202 18.6093 70.3202 19.2358V22.2773C70.3202 22.8939 70.4424 23.347 70.6906 23.6425C70.9368 23.936 71.2973 24.0838 71.7701 24.0838Z" fill="white"/>
<path d="M64.5513 25.5199C63.5664 25.5199 62.8119 25.2539 62.2918 24.724C61.7698 24.1843 61.5098 23.3687 61.5098 22.2793V19.2377C61.5098 18.1582 61.7698 17.3466 62.2918 16.8068C62.8139 16.2572 63.5664 15.9814 64.5513 15.9814C65.2329 15.9814 65.8121 16.1134 66.2849 16.3794C66.7577 16.6453 67.1044 17.0235 67.323 17.516C67.5417 17.9987 67.6067 18.5719 67.522 19.2358C67.5122 19.3402 67.4649 19.3914 67.3802 19.3914H66.0721C65.9677 19.3914 65.9205 19.3402 65.9303 19.2358C65.9776 18.6487 65.887 18.1976 65.6604 17.8844C65.4339 17.5712 65.0675 17.4156 64.5651 17.4156C64.0628 17.4156 63.7181 17.5672 63.4699 17.8706C63.2236 18.1641 63.0995 18.633 63.0995 19.2771V22.2045C63.0995 22.8585 63.2216 23.3372 63.4699 23.6406C63.7259 23.9341 64.0904 24.0818 64.5651 24.0818C65.0872 24.0818 65.4555 23.9163 65.6742 23.5834C65.8929 23.2525 65.9815 22.8112 65.9441 22.2616C65.9342 22.1473 65.9776 22.0902 66.0721 22.0902H67.3802C67.4747 22.0902 67.5279 22.1513 67.5358 22.2754C67.6205 23.2702 67.4038 24.0621 66.8818 24.6492C66.3597 25.2263 65.5836 25.5159 64.5513 25.5159V25.5199Z" fill="white"/>
<path d="M61.0138 25.2362L58.6676 16.2237C58.6302 16.139 58.5671 16.0957 58.4824 16.0957H56.7627C56.678 16.0957 56.6208 16.139 56.5913 16.2237L54.2451 25.2362C54.2175 25.3505 54.2549 25.4076 54.3593 25.4076H55.7659C55.8604 25.4076 55.9136 25.3642 55.9215 25.2795L56.3391 23.418H58.8863L59.3039 25.2795C59.3315 25.3642 59.3846 25.4076 59.4595 25.4076H60.8956C61 25.4076 61.0374 25.3505 61.0098 25.2362H61.0138ZM56.6425 22.0804L57.2177 19.5214C57.2945 19.1984 57.3595 18.8812 57.4167 18.5699C57.4837 18.2469 57.5447 17.9297 57.6019 17.6185H57.6294C57.6866 17.9317 57.7437 18.2488 57.8008 18.5699C57.8678 18.8832 57.9387 19.2003 58.0136 19.5214L58.5888 22.0804H56.6425Z" fill="white"/>
<path d="M138.431 12.3409L136.084 3.32849C136.047 3.24378 135.984 3.20044 135.899 3.20044H134.179C134.095 3.20044 134.038 3.24378 134.008 3.32849L131.662 12.3409C131.632 12.4552 131.672 12.5123 131.776 12.5123H133.183C133.277 12.5123 133.328 12.469 133.338 12.3843L133.756 10.5227H136.303L136.721 12.3843C136.748 12.469 136.801 12.5123 136.876 12.5123H138.312C138.417 12.5123 138.454 12.4552 138.427 12.3409H138.431ZM134.061 9.1851L134.636 6.62616C134.713 6.30309 134.778 5.98593 134.835 5.67468C134.902 5.35161 134.963 5.03445 135.021 4.7232H135.048C135.105 5.03642 135.162 5.35358 135.22 5.67468C135.287 5.9879 135.357 6.30506 135.432 6.62616L136.008 9.1851H134.061Z" fill="white"/>
<path d="M125.456 12.5123C125.362 12.5123 125.314 12.4611 125.314 12.3567V3.35802C125.314 3.25361 125.362 3.20239 125.456 3.20239H126.764C126.859 3.20239 126.906 3.25361 126.906 3.35802V7.13832H127.574L129.506 3.30089C129.526 3.26346 129.55 3.23982 129.577 3.22997C129.615 3.21027 129.648 3.20239 129.678 3.20239H131.084C131.142 3.20239 131.175 3.22209 131.185 3.25952C131.195 3.29695 131.185 3.34423 131.157 3.40136L128.969 7.65247L131.427 12.3153C131.457 12.3724 131.461 12.4197 131.441 12.4571C131.421 12.4946 131.384 12.5143 131.327 12.5143H129.82C129.782 12.5143 129.749 12.5103 129.719 12.5005C129.692 12.4906 129.668 12.4631 129.648 12.4158L127.602 8.54879H126.904V12.3586C126.904 12.4631 126.857 12.5143 126.762 12.5143H125.454L125.456 12.5123Z" fill="white"/>
<path d="M118.876 12.5123C118.782 12.5123 118.734 12.4611 118.734 12.3567V3.35802C118.734 3.25361 118.782 3.20239 118.876 3.20239H120.184C120.279 3.20239 120.326 3.25361 120.326 3.35802V6.50006H121.094C122.127 6.50006 122.891 6.74631 123.383 7.23879C123.886 7.73127 124.136 8.45621 124.136 9.4136C124.136 10.4183 123.89 11.1865 123.397 11.7165C122.915 12.2464 122.136 12.5123 121.067 12.5123H118.878H118.876ZM120.326 11.09H121.051C121.581 11.09 121.965 10.958 122.201 10.6921C122.438 10.4163 122.552 9.99079 122.542 9.4136C122.542 8.85414 122.424 8.45621 122.188 8.21982C121.951 7.98342 121.571 7.86523 121.051 7.86523H120.326V11.092V11.09Z" fill="white"/>
<path d="M114.344 12.6266C113.359 12.6266 112.605 12.3606 112.085 11.8307C111.563 11.2909 111.303 10.4754 111.303 9.38602V6.34444C111.303 5.26491 111.563 4.4533 112.085 3.91354C112.607 3.36393 113.359 3.08813 114.344 3.08813C115.026 3.08813 115.605 3.22012 116.078 3.48606C116.553 3.752 116.897 4.13023 117.116 4.62271C117.335 5.10535 117.4 5.6786 117.315 6.34247C117.305 6.44687 117.258 6.49809 117.173 6.49809H115.865C115.761 6.49809 115.713 6.44687 115.723 6.34247C115.771 5.75543 115.68 5.30431 115.453 4.99109C115.227 4.67787 114.86 4.52225 114.358 4.52225C113.856 4.52225 113.509 4.67393 113.263 4.9773C113.017 5.27082 112.892 5.73967 112.892 6.38384V9.31116C112.892 9.96518 113.015 10.4439 113.263 10.7472C113.519 11.0408 113.883 11.1885 114.358 11.1885C114.88 11.1885 115.249 11.023 115.467 10.6901C115.686 10.3592 115.774 9.9179 115.737 9.36829C115.727 9.25403 115.771 9.1969 115.865 9.1969H117.173C117.268 9.1969 117.321 9.25797 117.329 9.38208C117.413 10.3769 117.197 11.1688 116.675 11.7558C116.153 12.333 115.377 12.6226 114.344 12.6226V12.6266Z" fill="white"/>
<path d="M104.009 12.5123C103.914 12.5123 103.867 12.4611 103.867 12.3567V3.35802C103.867 3.25361 103.914 3.20239 104.009 3.20239H105.317C105.412 3.20239 105.459 3.25361 105.459 3.35802V7.03983H108.274V3.35802C108.274 3.25361 108.325 3.20239 108.43 3.20239H109.724C109.828 3.20239 109.879 3.25361 109.879 3.35802V12.3567C109.879 12.4611 109.828 12.5123 109.724 12.5123H108.43C108.325 12.5123 108.274 12.4611 108.274 12.3567V8.47591H105.459V12.3567C105.459 12.4611 105.412 12.5123 105.317 12.5123H104.009Z" fill="white"/>
<path d="M100.857 12.5123C100.762 12.5123 100.715 12.4611 100.715 12.3567V3.35801C100.715 3.2536 100.762 3.20238 100.857 3.20238H102.165C102.259 3.20238 102.306 3.2536 102.306 3.35801V12.3567C102.306 12.4611 102.259 12.5123 102.165 12.5123H100.857ZM100.415 2.36319C100.149 2.36319 99.9465 2.29621 99.8047 2.16423C99.653 2.02239 99.5781 1.82737 99.5781 1.58113V1.39595C99.5781 1.13986 99.655 0.944836 99.8047 0.812851C99.9465 0.671015 100.151 0.600098 100.415 0.600098C100.679 0.600098 100.884 0.671015 101.026 0.812851C101.168 0.944836 101.239 1.13986 101.239 1.39595V1.58113C101.239 1.82737 101.168 2.02239 101.026 2.16423C100.884 2.29621 100.679 2.36319 100.415 2.36319ZM102.661 2.36319C102.395 2.36319 102.188 2.29621 102.037 2.16423C101.895 2.02239 101.824 1.82737 101.824 1.58113V1.39595C101.824 1.13986 101.895 0.944836 102.037 0.812851C102.188 0.671015 102.397 0.600098 102.661 0.600098C102.925 0.600098 103.14 0.671015 103.272 0.812851C103.414 0.944836 103.485 1.13986 103.485 1.39595V1.58113C103.485 1.82737 103.414 2.02239 103.272 2.16423C103.14 2.29621 102.935 2.36319 102.661 2.36319Z" fill="white"/>
<path d="M99.9395 12.3409L97.5934 3.32849C97.5559 3.24378 97.4929 3.20044 97.4082 3.20044H95.6884C95.6037 3.20044 95.5466 3.24378 95.519 3.32849L93.1728 12.3409C93.1452 12.4552 93.1827 12.5123 93.2871 12.5123H94.6936C94.7882 12.5123 94.8414 12.469 94.8492 12.3843L95.2669 10.5227H97.814L98.2316 12.3843C98.2592 12.469 98.3124 12.5123 98.3872 12.5123H99.8233C99.9277 12.5123 99.9652 12.4552 99.9376 12.3409H99.9395ZM95.5702 9.1851L96.1454 6.62616C96.2203 6.30309 96.2873 5.98593 96.3444 5.67468C96.4114 5.35161 96.4725 5.03445 96.5296 4.7232H96.5572C96.6143 5.03642 96.6714 5.35358 96.7285 5.67468C96.7955 5.9879 96.8664 6.30506 96.9413 6.62616L97.5165 9.1851H95.5702Z" fill="white"/>
<path d="M88.1692 12.5123C88.0746 12.5123 88.0273 12.4611 88.0273 12.3567V3.35802C88.0273 3.25361 88.0746 3.20239 88.1692 3.20239H90.2869C91.3093 3.20239 92.0637 3.45257 92.5464 3.95491C93.029 4.45724 93.2713 5.20976 93.2713 6.21442C93.2713 7.21909 93.0251 7.93418 92.5326 8.44636C92.0401 8.95854 91.3014 9.21463 90.3144 9.21463H89.6171V12.3567C89.6171 12.4611 89.5698 12.5123 89.4752 12.5123H88.1672H88.1692ZM89.619 7.8081H90.2731C90.7557 7.8081 91.1123 7.68005 91.3388 7.42396C91.5653 7.16787 91.6796 6.77388 91.6796 6.24397C91.6796 5.66678 91.5653 5.24915 91.3388 4.99306C91.1123 4.73697 90.7616 4.60893 90.2869 4.60893H89.619V7.8081Z" fill="white"/>
<path d="M81.2414 12.5123C81.1469 12.5123 81.0996 12.4611 81.0996 12.3567V3.35802C81.0996 3.25361 81.1469 3.20239 81.2414 3.20239H82.5495C82.644 3.20239 82.6913 3.25361 82.6913 3.35802V7.13832H83.3591L85.2916 3.30089C85.3113 3.26346 85.335 3.23982 85.3626 3.22997C85.4 3.21027 85.4335 3.20239 85.463 3.20239H86.8696C86.9267 3.20239 86.9602 3.22209 86.97 3.25952C86.9799 3.29695 86.97 3.34423 86.9424 3.40136L84.7538 7.65247L87.2123 12.3153C87.2399 12.3724 87.2458 12.4197 87.2261 12.4571C87.2064 12.4946 87.169 12.5143 87.1118 12.5143H85.6048C85.5674 12.5143 85.5339 12.5103 85.5044 12.5005C85.4768 12.4906 85.4532 12.4631 85.4335 12.4158L83.3867 8.54879H82.6893V12.3586C82.6893 12.4631 82.6421 12.5143 82.5475 12.5143H81.2395L81.2414 12.5123Z" fill="white"/>
<path d="M75.1193 12.5123C75.072 12.5123 75.0346 12.4926 75.0051 12.4552C74.9854 12.4177 74.9854 12.3705 75.0051 12.3133L76.185 9.32889L73.8546 3.40136C73.8349 3.34423 73.8349 3.29695 73.8546 3.25952C73.8822 3.22209 73.9216 3.20239 73.9689 3.20239H75.4759C75.5507 3.20239 75.6039 3.23982 75.6315 3.31665L76.5692 6.07456C76.6539 6.3405 76.7347 6.60053 76.8115 6.85662C76.8883 7.10286 76.9592 7.36289 77.0242 7.63869H77.0518C77.1287 7.36486 77.2035 7.09892 77.2784 6.84283C77.3631 6.58674 77.4438 6.33065 77.5207 6.07456L78.4879 3.31665C78.4978 3.24179 78.549 3.20239 78.6435 3.20239H80.1367C80.184 3.20239 80.2175 3.22209 80.2352 3.25952C80.2549 3.29695 80.2549 3.34029 80.2352 3.38757L76.6953 12.4C76.6756 12.4749 76.6184 12.5143 76.5239 12.5143H75.1173L75.1193 12.5123Z" fill="white"/>
<path d="M68.427 12.5123C68.3324 12.5123 68.2852 12.4611 68.2852 12.3567V3.35802C68.2852 3.25361 68.3324 3.20239 68.427 3.20239H72.8771C72.9716 3.20239 73.0189 3.25361 73.0189 3.35802V4.48088C73.0189 4.58529 72.9716 4.63651 72.8771 4.63651H69.8769V7.11074H72.621C72.7155 7.11074 72.7628 7.16196 72.7628 7.26637V8.31831C72.7628 8.42272 72.7155 8.47394 72.621 8.47394H69.8769V11.0743H72.8771C72.9716 11.0743 73.0189 11.1255 73.0189 11.2299V12.3527C73.0189 12.4571 72.9716 12.5084 72.8771 12.5084H68.427V12.5123Z" fill="white"/>
<path d="M63.899 12.6266C62.914 12.6266 62.1595 12.3606 61.6395 11.8307C61.1175 11.2909 60.8574 10.4754 60.8574 9.38602V6.34444C60.8574 5.26491 61.1175 4.4533 61.6395 3.91354C62.1595 3.36393 62.914 3.08813 63.899 3.08813C64.5806 3.08813 65.1598 3.22012 65.6325 3.48606C66.1053 3.752 66.452 4.13023 66.6707 4.62271C66.8894 5.10535 66.9544 5.6786 66.8697 6.34247C66.8598 6.44687 66.8125 6.49809 66.7278 6.49809H65.4198C65.3154 6.49809 65.2681 6.44687 65.278 6.34247C65.3252 5.75543 65.2346 5.30431 65.0081 4.99109C64.7815 4.67787 64.4151 4.52225 63.9128 4.52225C63.4105 4.52225 63.0657 4.67393 62.8175 4.9773C62.5713 5.27082 62.4472 5.73967 62.4472 6.38384V9.31116C62.4472 9.96518 62.5693 10.4439 62.8175 10.7472C63.0736 11.0408 63.438 11.1885 63.9128 11.1885C64.4348 11.1885 64.8032 11.023 65.0219 10.6901C65.2405 10.3592 65.3292 9.9179 65.2917 9.36829C65.2819 9.25403 65.3252 9.1969 65.4198 9.1969H66.7278C66.8224 9.1969 66.8756 9.25797 66.8835 9.38208C66.9682 10.3769 66.7515 11.1688 66.2294 11.7558C65.7074 12.333 64.9312 12.6226 63.899 12.6226V12.6266Z" fill="white"/>
<path d="M54.3939 12.5123C54.2895 12.5123 54.2383 12.4611 54.2383 12.3567V3.35802C54.2383 3.25361 54.2895 3.20239 54.3939 3.20239H56.6258C57.5832 3.20239 58.2944 3.39742 58.7573 3.78549C59.2222 4.16372 59.4547 4.73697 59.4547 5.50525C59.4547 6.02728 59.3503 6.45279 59.1414 6.78373C58.9425 7.1068 58.6253 7.37077 58.19 7.57959V7.60717C58.712 7.73915 59.104 7.99524 59.37 8.37544C59.6457 8.74579 59.7817 9.23827 59.7817 9.85289C59.7817 10.763 59.5315 11.4348 59.0272 11.8721C58.5347 12.2976 57.7566 12.5123 56.6968 12.5123H54.3939ZM55.83 11.1629H56.7263C57.2286 11.1629 57.599 11.0486 57.8354 10.8221C58.0718 10.5956 58.19 10.2351 58.19 9.74258C58.19 9.27767 58.0718 8.93293 57.8354 8.70442C57.599 8.46803 57.2286 8.34983 56.7263 8.34983H55.83V11.1649V11.1629ZM55.83 7.11074H56.6258C57.0533 7.11074 57.3646 7.0024 57.5635 6.78373C57.7723 6.55719 57.8767 6.22427 57.8767 5.78892C57.8767 5.35356 57.7723 5.04034 57.5635 4.85123C57.3547 4.65226 57.0179 4.5518 56.5549 4.5518H55.83V7.11074Z" fill="white"/>
<mask id="mask0_23_31755" style="mask-type:luminance" maskUnits="userSpaceOnUse" x="0" y="3" width="23" height="23">
<path d="M22.2603 3.1355H0V25.3958H22.2603V3.1355Z" fill="white"/>
</mask>
<g mask="url(#mask0_23_31755)">
<path d="M22.2603 3.1355H0V25.3958H22.2603V3.1355Z" fill="#1771DE"/>
<path d="M4.83811 25.6478C5.07253 22.3816 7.80483 19.7931 11.1301 19.7931C14.4553 19.7931 17.1876 22.3797 17.4221 25.6478H19.9652C19.7269 20.981 15.856 17.2559 11.1301 17.2559C6.40421 17.2559 2.53131 20.979 2.29492 25.6478H4.83811Z" fill="white"/>
<path d="M11.1297 15.8258C8.67912 15.8258 6.68555 13.8323 6.68555 11.3817C6.68555 8.93107 8.67912 6.9375 11.1297 6.9375C13.5803 6.9375 15.5719 8.93107 15.5719 11.3817C15.5719 13.8323 13.5783 15.8258 11.1297 15.8258ZM11.1297 9.11428C9.87881 9.11428 8.86232 10.1327 8.86232 11.3817C8.86232 12.6306 9.88078 13.6491 11.1297 13.6491C12.3787 13.6491 13.3971 12.6306 13.3971 11.3817C13.3971 10.1327 12.3787 9.11428 11.1297 9.11428Z" fill="white"/>
</g>
<path d="M46.7407 3.1355H24.4805V25.3958H46.7407V3.1355Z" fill="#142678"/>
<path d="M39.7323 22.2515C38.7433 22.2515 37.7525 21.8753 36.998 21.1208L35.6092 19.732L34.2204 21.1208C32.7134 22.6278 30.2608 22.6278 28.7538 21.1208C28.023 20.39 27.6211 19.4207 27.6211 18.3865C27.6211 17.3523 28.023 16.3831 28.7538 15.6523L30.1426 14.2635L28.7558 12.8766C28.0249 12.1458 27.6231 11.1766 27.6231 10.1424C27.6231 9.10814 28.0249 8.13893 28.7558 7.40808C30.2628 5.90108 32.7153 5.90108 34.2223 7.40808L35.6092 8.79492L36.996 7.40808C38.503 5.90108 40.9556 5.90108 42.4626 7.40808C43.1934 8.13893 43.5953 9.10814 43.5953 10.1424C43.5953 11.1766 43.1934 12.1458 42.4626 12.8766L41.0758 14.2635L42.4646 15.6523C43.1954 16.3831 43.5973 17.3523 43.5973 18.3865C43.5973 19.4207 43.1954 20.39 42.4646 21.1208C41.7101 21.8753 40.7212 22.2515 39.7303 22.2515H39.7323ZM36.9566 18.3885L38.3434 19.7753C39.1078 20.5397 40.3528 20.5397 41.1191 19.7753C41.4894 19.405 41.6943 18.9125 41.6943 18.3885C41.6943 17.8645 41.4894 17.372 41.1191 17.0017L39.7323 15.6148L36.9566 18.3905V18.3885ZM31.4881 15.6129L30.1012 16.9997C29.7309 17.37 29.526 17.8625 29.526 18.3865C29.526 18.9105 29.7309 19.403 30.1012 19.7734C30.8656 20.5377 32.1106 20.5377 32.8769 19.7734L34.2637 18.3865L31.4881 15.6109V15.6129ZM32.8335 14.2674L35.6092 17.043L38.3848 14.2674L35.6092 11.4918L32.8335 14.2674ZM31.4881 8.18424C30.9857 8.18424 30.4834 8.37532 30.1012 8.75749C29.7309 9.12784 29.526 9.62032 29.526 10.1443C29.526 10.6683 29.7309 11.1608 30.1012 11.5312L31.4881 12.918L34.2637 10.1424L32.8769 8.75552C32.4947 8.37335 31.9924 8.18227 31.49 8.18227L31.4881 8.18424ZM36.9546 10.1463L39.7303 12.9219L41.1171 11.5351C41.4875 11.1647 41.6923 10.6723 41.6923 10.1483C41.6923 9.62426 41.4875 9.13177 41.1171 8.76143C40.3508 7.99709 39.1058 7.99709 38.3415 8.76143L36.9546 10.1483V10.1463Z" fill="white"/>
<mask id="mask1_23_31755" style="mask-type:luminance" maskUnits="userSpaceOnUse" x="0" y="27" width="23" height="23">
<path d="M22.2603 27.6375H0V49.8977H22.2603V27.6375Z" fill="white"/>
</mask>
<g mask="url(#mask1_23_31755)">
<path d="M22.2603 27.6375H0V49.8977H22.2603V27.6375Z" fill="#00B1D9"/>
<path d="M21.4638 33.037H17.1989H16.864V27.9408C16.864 27.7812 16.8798 27.6256 16.9014 27.4739H14.5296C14.5178 27.6275 14.508 27.7832 14.508 27.9408V33.037H10.9976C7.65851 33.037 4.94197 35.7535 4.94197 39.0926V42.9792H0.367786C0.190492 42.9792 0.013198 42.9891 -0.160156 43.0048V45.3806C0.013198 45.353 0.188522 45.3353 0.367786 45.3353H4.93803V49.7341C4.93803 49.872 4.92621 50.008 4.91046 50.1419H7.27832C7.28817 50.006 7.29408 49.8701 7.29408 49.7341V45.3353H10.8045C14.1435 45.3353 16.8601 42.6187 16.8601 39.2797V35.393H21.4638C21.7829 35.393 22.0942 35.3654 22.3995 35.3142V32.901C22.1021 32.9877 21.7889 33.037 21.4638 33.037ZM14.504 39.2797C14.504 41.3206 12.8434 42.9792 10.8045 42.9792H7.29802V39.0926C7.29802 37.0517 8.95867 35.393 10.9976 35.393H14.504V39.2797Z" fill="white"/>
</g>
<path d="M46.6802 27.6375H24.4199V49.8977H46.6802V27.6375Z" fill="#D91625"/>
<path d="M42.8914 32.9681L42.7515 32.8282C40.6949 30.7716 37.4997 30.6239 35.3091 32.4204C33.1619 30.7736 30.0651 30.9312 28.0991 32.8952C25.9617 35.0326 25.9617 38.5115 28.0991 40.6489L34.2079 46.7576C34.5999 47.1496 35.116 47.3466 35.6302 47.3466C36.1443 47.3466 36.6605 47.1496 37.0525 46.7576L40.6259 43.1842L43.1416 40.6686C43.2184 40.5819 43.2913 40.4932 43.3602 40.4026C45.0741 38.1943 44.9184 34.9951 42.8914 32.9681ZM35.642 45.3472C35.642 45.3472 35.6223 45.3531 35.6164 45.3472L29.5076 39.2384C28.1484 37.8791 28.1484 35.6649 29.5076 34.3037C30.1873 33.6241 31.0816 33.2833 31.974 33.2833C32.6182 33.2833 33.2604 33.4625 33.8257 33.8171C32.9688 34.6524 32.3424 35.2946 31.9622 35.7319C30.9752 36.8626 31.1112 38.6513 32.2616 39.7171C33.2288 40.6134 34.9703 41.0015 36.9244 39.4767L39.2174 41.7717L35.642 45.3472ZM41.4848 39.524L41.278 39.7309L40.6378 40.3731L36.9599 36.6893L36.8929 36.7563L36.2547 37.4063C35.2106 38.4681 34.2 38.7951 33.6169 38.2554C33.2938 37.956 33.156 37.3985 33.4652 37.0439C33.8198 36.6381 34.4463 35.9978 35.3012 35.1665C35.5258 34.9479 35.7641 34.7174 36.0183 34.4751C36.1325 34.3667 36.2487 34.2544 36.3689 34.1402C36.495 34.02 36.6309 33.9137 36.7708 33.8171C38.1616 32.8341 40.0803 32.9799 41.341 34.2407L41.4809 34.3805C42.7279 35.6275 42.8776 37.5639 41.932 38.9784C41.802 39.1714 41.6542 39.3546 41.4848 39.526V39.524Z" fill="white"/>
</svg>
