<svg width="145" height="51" viewBox="0 0 145 51" fill="none" xmlns="http://www.w3.org/2000/svg">
<path d="M85.4388 42.3223H84.1504C83.7505 42.3223 83.4058 42.3912 83.1261 42.5272C82.8463 42.667 82.6316 42.8817 82.4858 43.1654C82.344 43.4373 82.2711 43.7859 82.2711 44.1996C82.2711 44.6133 82.3479 44.9443 82.4976 45.2122C82.6375 45.4505 82.8345 45.6377 83.0867 45.7697C83.0354 45.88 82.9822 45.9962 82.931 46.1124C82.864 46.2602 82.799 46.4079 82.738 46.5537L81.9993 48.2774C81.9638 48.3542 81.9638 48.4212 81.9993 48.4764C82.017 48.5059 82.0643 48.5532 82.1588 48.5532H82.734C82.7793 48.5532 82.8227 48.5374 82.8562 48.5079C82.8877 48.4842 82.9113 48.4586 82.931 48.4212L83.9593 45.9667H84.7394V48.3463C84.7394 48.4705 84.8182 48.5532 84.9364 48.5532H85.4388C85.5629 48.5532 85.6456 48.4705 85.6456 48.3463V42.5272C85.6456 42.4031 85.5629 42.3203 85.4388 42.3203V42.3223ZM84.7394 43.1733V45.1728H84.1504C83.7899 45.1728 83.5338 45.0979 83.39 44.9541C83.2502 44.8083 83.1773 44.5601 83.1773 44.2174C83.1773 43.845 83.2541 43.5752 83.4078 43.4156C83.5594 43.2541 83.8057 43.1713 84.1386 43.1713H84.7375L84.7394 43.1733Z" fill="#142678"/>
<path d="M80.7576 42.0664H81.2422C81.3565 42.0664 81.4491 42.159 81.4491 42.2733V44.4106C81.4491 44.5249 81.3565 44.6175 81.2422 44.6175H80.7576C80.6434 44.6175 80.5508 44.5249 80.5508 44.4106V42.2733C80.5508 42.159 80.6434 42.0664 80.7576 42.0664Z" fill="#142678"/>
<path d="M79.0628 45.2417C79.2421 45.1196 79.3839 44.9718 79.4864 44.8024C79.6243 44.564 79.6952 44.2666 79.6952 43.9179C79.6952 43.39 79.5435 42.9861 79.2421 42.7202C78.9466 42.4562 78.4876 42.3242 77.8809 42.3242H76.7107C76.5866 42.3242 76.5039 42.407 76.5039 42.5311V48.3502C76.5039 48.4744 76.5866 48.5571 76.7107 48.5571H77.9715C78.6098 48.5571 79.0944 48.4074 79.4076 48.1119C79.7307 47.8085 79.8942 47.3574 79.8942 46.7704C79.8942 46.333 79.8016 45.9745 79.6184 45.7066C79.4824 45.4998 79.2953 45.3461 79.0628 45.2437V45.2417ZM78.5743 44.6921C78.4403 44.8359 78.2237 44.9088 77.9262 44.9088H77.4101V43.1752H77.871C78.2079 43.1752 78.4463 43.2402 78.5842 43.3722C78.7201 43.4924 78.789 43.7071 78.789 44.0105C78.789 44.3139 78.7181 44.5463 78.5763 44.6941L78.5743 44.6921ZM77.4101 45.7421H77.9892C78.3379 45.7421 78.594 45.8189 78.7536 45.9725C78.9112 46.1242 78.99 46.3744 78.99 46.7152C78.99 47.056 78.9112 47.3239 78.7555 47.4736C78.5979 47.6214 78.33 47.6962 77.9636 47.6962H77.412V45.7421H77.4101Z" fill="#142678"/>
<path d="M73.5922 42.25C72.9874 42.25 72.5166 42.4234 72.1955 42.7642C71.8764 43.103 71.7148 43.6014 71.7148 44.2475V46.641C71.7148 47.2792 71.8764 47.7757 72.1955 48.1145C72.5166 48.4553 72.9874 48.6287 73.5922 48.6287C74.197 48.6287 74.6776 48.4553 74.9987 48.1145C75.3179 47.7757 75.4794 47.2792 75.4794 46.641V44.2475C75.4794 43.6033 75.3179 43.103 74.9987 42.7642C74.6776 42.4234 74.2048 42.25 73.5922 42.25ZM74.5732 44.2751V46.6134C74.5732 47.0133 74.4885 47.3108 74.323 47.4979C74.1576 47.6791 73.9172 47.7678 73.5922 47.7678C73.2672 47.7678 73.0367 47.6791 72.8712 47.4999C72.7038 47.3108 72.619 47.0133 72.619 46.6134V44.2751C72.619 43.8713 72.7038 43.5718 72.8712 43.3886C73.0367 43.2015 73.2731 43.1109 73.5922 43.1109C73.9113 43.1109 74.1556 43.2015 74.323 43.3906C74.4905 43.5738 74.5732 43.8713 74.5732 44.2751Z" fill="#142678"/>
<path d="M69.107 42.3223H67.9743C67.8561 42.3223 67.7773 42.405 67.7773 42.5291V48.3483C67.7773 48.4724 67.8561 48.5551 67.9743 48.5551H68.4865C68.6047 48.5551 68.6835 48.4724 68.6835 48.3483V46.2621H69.1346C69.7473 46.2621 70.2161 46.0888 70.5313 45.748C70.8445 45.4092 71.0021 44.9186 71.0021 44.2922C71.0021 43.6658 70.8426 43.1437 70.5293 42.8167C70.2142 42.4877 69.7355 42.3223 69.1051 42.3223H69.107ZM70.0979 44.3198C70.0979 44.7019 70.0191 44.9836 69.8655 45.159C69.7138 45.3264 69.4557 45.4111 69.0992 45.4111H68.6835V43.1654H69.1169C69.4557 43.1654 69.7039 43.2521 69.8556 43.4274C70.0152 43.6047 70.0979 43.9041 70.0979 44.3217V44.3198Z" fill="#142678"/>
<path d="M64.8656 42.25C64.2609 42.25 63.79 42.4234 63.4689 42.7642C63.1498 43.103 62.9883 43.6014 62.9883 44.2475V46.641C62.9883 47.2792 63.1498 47.7757 63.4689 48.1145C63.79 48.4553 64.2609 48.6287 64.8656 48.6287C65.4704 48.6287 65.9511 48.4553 66.2722 48.1145C66.5913 47.7757 66.7528 47.2792 66.7528 46.641V44.2475C66.7528 43.6033 66.5913 43.103 66.2722 42.7642C65.9511 42.4234 65.4783 42.25 64.8656 42.25ZM65.8467 44.2751V46.6134C65.8467 47.0133 65.7619 47.3108 65.5965 47.4979C65.431 47.6791 65.1907 47.7678 64.8656 47.7678C64.5406 47.7678 64.3101 47.6791 64.1446 47.4979C63.9772 47.3088 63.8925 47.0113 63.8925 46.6114V44.2731C63.8925 43.8693 63.9772 43.5699 64.1446 43.3867C64.3101 43.1995 64.5465 43.1089 64.8656 43.1089C65.1848 43.1089 65.429 43.1995 65.5965 43.3886C65.7619 43.5718 65.8467 43.8693 65.8467 44.2731V44.2751Z" fill="#142678"/>
<path d="M62.3021 47.6864H62.1091L60.8267 42.4936C60.8109 42.3892 60.7321 42.3223 60.6218 42.3223H59.9087C59.8614 42.3223 59.7728 42.338 59.7097 42.4483L58.4115 47.6844H58.2185C58.1003 47.6844 58.0215 47.7672 58.0215 47.8913V49.5637C58.0215 49.6879 58.1003 49.7706 58.2185 49.7706H58.7307C58.8489 49.7706 58.9277 49.6879 58.9277 49.5637V48.5551H61.5949V49.5637C61.5949 49.6879 61.6737 49.7706 61.7919 49.7706H62.3041C62.3652 49.7706 62.4203 49.745 62.4558 49.6977C62.4775 49.6721 62.5011 49.6288 62.5011 49.5637V47.8913C62.5011 47.7672 62.4223 47.6844 62.3041 47.6844L62.3021 47.6864ZM60.0466 44.5581C60.1017 44.3257 60.153 44.0972 60.2022 43.8726C60.218 43.8096 60.2317 43.7446 60.2475 43.6815C60.2613 43.7426 60.2751 43.8037 60.2908 43.8647C60.346 44.0893 60.4012 44.3178 60.4544 44.5483L61.1675 47.6864H59.3256L60.0466 44.5581Z" fill="#142678"/>
<path d="M56.8475 45.3172C57.011 45.197 57.147 45.0434 57.2533 44.8543C57.4031 44.5804 57.4779 44.2515 57.4779 43.8713C57.4779 42.8095 56.9007 42.248 55.8094 42.248C55.2479 42.248 54.8185 42.3958 54.5329 42.6873C54.2531 42.973 54.1211 43.3945 54.1408 43.9343C54.1408 44.0072 54.1704 44.0525 54.196 44.0761L54.2137 44.0919C54.2531 44.1175 54.2945 44.1313 54.3378 44.1313H54.8579C54.9525 44.1313 55.047 44.0683 55.045 43.9205C55.0332 43.627 55.0844 43.4162 55.1967 43.2941C55.3051 43.17 55.4981 43.1069 55.77 43.1069C56.0556 43.1069 56.2625 43.1739 56.3846 43.3059C56.5067 43.4339 56.5698 43.6526 56.5698 43.9599C56.5698 44.3106 56.4949 44.5706 56.3452 44.7361C56.2053 44.8917 55.9729 44.9685 55.6518 44.9685H55.1396C55.045 44.9685 54.9525 45.0316 54.9525 45.1754V45.6225C54.9525 45.7644 55.047 45.8294 55.1396 45.8294H55.7424C56.1029 45.8294 56.359 45.9042 56.5067 46.052C56.6565 46.1919 56.7313 46.4282 56.7313 46.7553C56.7313 47.1276 56.6565 47.3935 56.5126 47.5452C56.3669 47.691 56.1206 47.7658 55.7779 47.7658C55.4981 47.7658 55.2933 47.7008 55.1751 47.5767C55.0588 47.4487 55.0017 47.2418 55.0076 46.9562C55.0076 46.8065 54.9131 46.7415 54.8185 46.7415H54.2984C54.2472 46.7415 54.2019 46.7592 54.1645 46.7966C54.129 46.8321 54.1093 46.8833 54.1113 46.9444C54.0916 47.494 54.2236 47.9195 54.5033 48.2051C54.783 48.4849 55.2086 48.6247 55.77 48.6247C56.3984 48.6247 56.8712 48.4652 57.1745 48.148C57.4838 47.8328 57.6394 47.3581 57.6394 46.7356C57.6394 46.3337 57.5528 46.0027 57.3814 45.7526C57.2514 45.5575 57.0721 45.4098 56.8436 45.3113L56.8475 45.3172Z" fill="#142678"/>
<path d="M143.946 32.2143C143.625 31.8735 143.152 31.7002 142.539 31.7002C141.927 31.7002 141.464 31.8735 141.143 32.2143C140.824 32.5532 140.662 33.0516 140.662 33.6977V36.0912C140.662 36.7294 140.824 37.2259 141.143 37.5647C141.464 37.9055 141.935 38.0788 142.539 38.0788C143.144 38.0788 143.625 37.9055 143.946 37.5647C144.265 37.2259 144.427 36.7294 144.427 36.0912V33.6977C144.427 33.0535 144.265 32.5532 143.946 32.2143ZM143.52 33.7253V36.0636C143.52 36.4635 143.436 36.761 143.27 36.9481C143.105 37.1293 142.866 37.218 142.539 37.218C142.212 37.218 141.984 37.1293 141.818 36.9501C141.651 36.761 141.566 36.4635 141.566 36.0636V33.7253C141.566 33.3215 141.651 33.022 141.818 32.8388C141.984 32.6517 142.22 32.5611 142.539 32.5611C142.859 32.5611 143.103 32.6517 143.27 32.8408C143.438 33.024 143.52 33.3215 143.52 33.7253Z" fill="#142678"/>
<path d="M139.995 31.7734H137.601C137.509 31.7734 137.414 31.8365 137.414 31.9803V37.7995C137.414 37.9236 137.493 38.0063 137.611 38.0063H138.123C138.241 38.0063 138.32 37.9236 138.32 37.7995V32.6422H139.997C140.095 32.6422 140.194 32.5752 140.194 32.4275V31.9803C140.194 31.8562 140.115 31.7734 139.997 31.7734H139.995Z" fill="#142678"/>
<path d="M134.502 31.7002C133.898 31.7002 133.427 31.8735 133.106 32.2143C132.787 32.5532 132.625 33.0516 132.625 33.6977V36.0912C132.625 36.7314 132.787 37.2259 133.106 37.5647C133.427 37.9055 133.898 38.0788 134.502 38.0788C135.107 38.0788 135.588 37.9055 135.909 37.5647C136.228 37.2259 136.39 36.7294 136.39 36.0912V33.6977C136.39 33.0535 136.228 32.5532 135.909 32.2143C135.588 31.8735 135.115 31.7002 134.502 31.7002ZM135.483 33.7253V36.0636C135.483 36.4635 135.399 36.761 135.233 36.9481C135.068 37.1293 134.829 37.218 134.502 37.218C134.175 37.218 133.947 37.1293 133.781 36.9501C133.614 36.761 133.529 36.4635 133.529 36.0636V33.7253C133.529 33.3215 133.614 33.022 133.781 32.8388C133.947 32.6517 134.183 32.5611 134.502 32.5611C134.821 32.5611 135.066 32.6517 135.233 32.8408C135.401 33.024 135.483 33.3215 135.483 33.7253Z" fill="#142678"/>
<path d="M130.652 34.7579L132.138 32.0551C132.165 31.998 132.165 31.9507 132.159 31.9153C132.15 31.8424 132.092 31.7754 131.99 31.7754H131.442C131.411 31.7754 131.379 31.7813 131.332 31.799C131.295 31.8168 131.265 31.8502 131.243 31.8956L129.862 34.3993H129.494V31.9842C129.494 31.8601 129.415 31.7774 129.297 31.7774H128.785C128.667 31.7774 128.588 31.8601 128.588 31.9842V37.8034C128.588 37.9275 128.667 38.0102 128.785 38.0102H129.297C129.415 38.0102 129.494 37.9275 129.494 37.8034V35.2681H129.882L131.342 37.8861C131.367 37.9354 131.397 37.9689 131.45 37.9945C131.482 38.0043 131.513 38.0102 131.545 38.0102H132.13C132.256 38.0102 132.293 37.9255 132.295 37.9137C132.325 37.8546 132.325 37.7896 132.293 37.7246L130.654 34.7598L130.652 34.7579Z" fill="#142678"/>
<path d="M125.791 34.0487H125.34V31.9803C125.34 31.8562 125.261 31.7734 125.143 31.7734H124.631C124.512 31.7734 124.434 31.8562 124.434 31.9803V37.7995C124.434 37.9236 124.512 38.0063 124.631 38.0063H125.809C126.463 38.0063 126.959 37.827 127.28 37.4725C127.605 37.1218 127.771 36.6096 127.771 35.9536C127.771 35.2977 127.603 34.8446 127.276 34.5313C126.949 34.2102 126.449 34.0487 125.791 34.0487ZM126.864 35.9556C126.87 36.3772 126.786 36.6884 126.614 36.8756C126.445 37.0607 126.165 37.1553 125.783 37.1553H125.34V34.8997H125.783C126.175 34.8997 126.455 34.9805 126.62 35.1381C126.784 35.2957 126.866 35.5695 126.866 35.9556H126.864Z" fill="#142678"/>
<path d="M122.701 34.0326H123.213C123.312 34.0326 123.41 33.9656 123.41 33.8336C123.468 33.4042 123.428 33.0259 123.292 32.7108C123.16 32.3877 122.944 32.1355 122.648 31.9661C122.362 31.7908 122.008 31.7021 121.596 31.7021C120.989 31.7021 120.519 31.8814 120.199 32.236C119.88 32.5807 119.719 33.0929 119.719 33.7548V36.0301C119.719 36.692 119.88 37.2061 120.199 37.5588C120.521 37.9074 120.991 38.0828 121.596 38.0828C122.201 38.0828 122.678 37.8937 123.007 37.5194C123.332 37.1411 123.471 36.6191 123.42 35.9651C123.406 35.8075 123.3 35.7523 123.206 35.7523H122.713C122.63 35.7523 122.583 35.7878 122.559 35.8193C122.536 35.8508 122.51 35.904 122.526 35.969C122.559 36.363 122.496 36.6762 122.339 36.9008C122.185 37.1175 121.947 37.2239 121.608 37.2239C121.289 37.2239 121.05 37.1293 120.881 36.9402C120.712 36.7393 120.627 36.4241 120.627 36.0065V33.7863C120.627 33.3687 120.712 33.0575 120.879 32.8624C121.05 32.6635 121.289 32.5669 121.608 32.5669C121.927 32.5669 122.167 32.6674 122.321 32.8723C122.479 33.0831 122.542 33.4022 122.506 33.8316C122.506 33.9558 122.585 34.0385 122.703 34.0385L122.701 34.0326Z" fill="#142678"/>
<path d="M119.031 37.1376H118.838L117.555 31.9448C117.539 31.8404 117.459 31.7734 117.35 31.7734H116.637C116.59 31.7734 116.501 31.7892 116.438 31.8995L115.142 37.1356H114.949C114.831 37.1356 114.752 37.2183 114.752 37.3424V39.0149C114.752 39.139 114.831 39.2218 114.949 39.2218H115.461C115.579 39.2218 115.658 39.139 115.658 39.0149V38.0063H118.325V39.0149C118.325 39.139 118.404 39.2218 118.522 39.2218H119.035C119.096 39.2218 119.151 39.1962 119.186 39.1489C119.208 39.1233 119.232 39.0799 119.232 39.0149V37.3424C119.232 37.2183 119.153 37.1356 119.035 37.1356L119.031 37.1376ZM116.775 34.0093C116.83 33.7769 116.881 33.5483 116.931 33.3238C116.946 33.2607 116.96 33.1957 116.976 33.1327C116.99 33.1938 117.004 33.2548 117.019 33.3159C117.075 33.5405 117.13 33.769 117.183 33.9995L117.896 37.1376H116.056L116.777 34.0093H116.775Z" fill="#142678"/>
<path d="M113.048 31.9133C113.011 31.8247 112.936 31.7734 112.844 31.7734H112.14C112.036 31.7734 111.957 31.8306 111.928 31.931L110.423 37.7561C110.395 37.8467 110.419 37.9039 110.444 37.9374C110.464 37.963 110.509 38.0063 110.596 38.0063H111.136C111.234 38.0063 111.309 37.9492 111.339 37.8487L111.654 36.5643H113.32L113.639 37.8507L113.651 37.8822C113.714 37.9925 113.797 38.0083 113.842 38.0083H114.4C114.481 38.0083 114.526 37.9728 114.551 37.9433C114.577 37.9118 114.603 37.8566 114.585 37.762L113.052 31.9153L113.048 31.9133ZM112.324 33.8182C112.373 33.6153 112.418 33.4164 112.461 33.2213C112.467 33.1977 112.471 33.176 112.477 33.1524L112.495 33.2351C112.544 33.4302 112.591 33.6271 112.641 33.8281L113.106 35.7035H111.863L112.324 33.8182Z" fill="#142678"/>
<path d="M109.704 31.7735H108.9C108.807 31.7735 108.732 31.8247 108.691 31.9232L107.657 35.1381L106.611 31.9113C106.573 31.8227 106.498 31.7715 106.406 31.7715H105.602C105.484 31.7715 105.405 31.8542 105.405 31.9764L105.305 37.7995C105.305 37.9236 105.383 38.0063 105.502 38.0063H106.004C106.122 38.0063 106.201 37.9236 106.201 37.8015L106.264 33.9896V33.6311C106.301 33.7454 106.339 33.8596 106.378 33.9739L107.426 37.0352C107.446 37.1317 107.525 37.1908 107.629 37.1908H107.667C107.773 37.1908 107.85 37.1297 107.87 37.0332L108.908 33.9995C108.953 33.8655 108.998 33.7316 109.042 33.5956L109.105 37.7975C109.105 37.9216 109.183 38.0044 109.302 38.0044H109.804C109.922 38.0044 110.001 37.9216 110.001 37.7955L109.901 31.9783C109.901 31.8542 109.822 31.7715 109.704 31.7715V31.7735Z" fill="#142678"/>
<path d="M102.491 31.7002C101.886 31.7002 101.415 31.8735 101.094 32.2143C100.775 32.5532 100.613 33.0516 100.613 33.6977V36.0912C100.613 36.7314 100.775 37.2259 101.094 37.5647C101.415 37.9055 101.886 38.0788 102.491 38.0788C103.095 38.0788 103.574 37.9055 103.897 37.5647C104.216 37.2259 104.378 36.7294 104.378 36.0912V33.6977C104.378 33.0535 104.216 32.5532 103.897 32.2143C103.576 31.8735 103.103 31.7002 102.491 31.7002ZM103.472 33.7253V36.0636C103.472 36.4635 103.387 36.761 103.221 36.9481C103.056 37.1293 102.818 37.218 102.491 37.218C102.164 37.218 101.935 37.1293 101.77 36.9501C101.602 36.761 101.517 36.4635 101.517 36.0636V33.7253C101.517 33.3215 101.602 33.022 101.77 32.8388C101.935 32.6517 102.172 32.5611 102.491 32.5611C102.81 32.5611 103.054 32.6517 103.221 32.8408C103.389 33.024 103.472 33.3215 103.472 33.7253Z" fill="#142678"/>
<path d="M98.0074 31.7734H96.8747C96.7565 31.7734 96.6777 31.8562 96.6777 31.9803V37.7995C96.6777 37.9236 96.7565 38.0063 96.8747 38.0063H97.3869C97.5051 38.0063 97.5839 37.9236 97.5839 37.7995V35.7133H98.035C98.6477 35.7133 99.1165 35.54 99.4337 35.1992C99.7469 34.8603 99.9045 34.3698 99.9045 33.7434C99.9045 33.1169 99.7449 32.5949 99.4317 32.2679C99.1165 31.9389 98.6378 31.7734 98.0074 31.7734ZM98.9983 33.771C98.9983 34.1531 98.9195 34.4348 98.7659 34.6101C98.6142 34.7776 98.3561 34.8623 97.9996 34.8623H97.5839V32.6166H98.0173C98.3561 32.6166 98.6043 32.7032 98.756 32.8786C98.9156 33.0559 98.9983 33.3553 98.9983 33.7729V33.771Z" fill="#142678"/>
<path d="M95.7564 31.7734H93.3629C93.2703 31.7734 93.1758 31.8365 93.1758 31.9803V37.7995C93.1758 37.9236 93.2546 38.0063 93.3728 38.0063H93.885C94.0032 38.0063 94.082 37.9236 94.082 37.7995V32.6422H95.7584C95.8569 32.6422 95.9554 32.5752 95.9554 32.4275V31.9803C95.9554 31.8562 95.8766 31.7734 95.7584 31.7734H95.7564Z" fill="#142678"/>
<path d="M89.8339 34.7694C89.9974 34.6492 90.1333 34.4955 90.2397 34.3064C90.3894 34.0326 90.4643 33.7036 90.4643 33.3234C90.4643 32.2616 89.8871 31.7002 88.7957 31.7002C88.2343 31.7002 87.8029 31.8479 87.5192 32.1395C87.2395 32.4251 87.1075 32.8467 87.1272 33.3865C87.1272 33.4593 87.1567 33.5047 87.1823 33.5303L87.2001 33.5441C87.2395 33.5697 87.2808 33.5835 87.3242 33.5835H87.8442C87.9388 33.5835 88.0334 33.5204 88.0334 33.3727C88.0215 33.0791 88.0728 32.8684 88.185 32.7462C88.2934 32.6221 88.4864 32.5611 88.7583 32.5611C89.0439 32.5611 89.2508 32.628 89.3729 32.76C89.495 32.8881 89.5581 33.1067 89.5581 33.414C89.5581 33.7647 89.4832 34.0247 89.3335 34.1902C89.1936 34.3458 88.9612 34.4226 88.6401 34.4226H88.1279C88.0353 34.4226 87.9408 34.4857 87.9408 34.6295V35.0767C87.9408 35.2185 88.0353 35.2835 88.1279 35.2835H88.7307C89.0912 35.2835 89.3473 35.3584 89.495 35.5061C89.6448 35.646 89.7196 35.8824 89.7196 36.2094C89.7196 36.5817 89.6448 36.8476 89.499 36.9993C89.3532 37.1451 89.107 37.218 88.7642 37.218C88.4845 37.218 88.2816 37.153 88.1614 37.0289C88.0452 36.9008 87.988 36.694 87.992 36.4103C87.992 36.2606 87.8974 36.1956 87.8048 36.1956H87.2848C87.2336 36.1956 87.1863 36.2153 87.1508 36.2507C87.1154 36.2862 87.0957 36.3374 87.0957 36.3985C87.076 36.9501 87.208 37.3736 87.4877 37.6592C87.7674 37.939 88.1929 38.0788 88.7544 38.0788C89.3828 38.0788 89.8555 37.9193 90.1589 37.6021C90.4682 37.2869 90.6238 36.8122 90.6238 36.1897C90.6238 35.7878 90.5371 35.4569 90.3658 35.2067C90.2357 35.0117 90.0565 34.8639 89.828 34.7654L89.8339 34.7694Z" fill="#142678"/>
<path d="M83.9984 34.6929C84.1777 34.5707 84.3195 34.423 84.4219 34.2536C84.5598 34.0152 84.6307 33.7178 84.6307 33.3691C84.6307 32.8411 84.4791 32.4373 84.1777 32.1714C83.8822 31.9074 83.4232 31.7734 82.8164 31.7734H81.6463C81.5222 31.7734 81.4395 31.8562 81.4395 31.9803V37.7995C81.4395 37.9236 81.5222 38.0063 81.6463 38.0063H82.9071C83.5453 38.0063 84.0299 37.8566 84.3451 37.5611C84.6682 37.2577 84.8317 36.8066 84.8317 36.2196C84.8317 35.7823 84.7391 35.4237 84.5559 35.1558C84.42 34.949 84.2328 34.7953 84.0004 34.6929H83.9984ZM83.5099 34.1433C83.3759 34.2871 83.1592 34.36 82.8617 34.36H82.3456V32.6245H82.8066C83.1434 32.6245 83.3818 32.6895 83.5197 32.8214C83.6556 32.9416 83.7246 33.1563 83.7246 33.4597C83.7246 33.7631 83.6537 33.9955 83.5118 34.1433H83.5099ZM83.9235 36.1644C83.9235 36.517 83.8447 36.7731 83.6891 36.9228C83.5315 37.0706 83.2636 37.1455 82.8972 37.1455H82.3456V35.1913H82.9248C83.2735 35.1913 83.5296 35.2681 83.6891 35.4218C83.8467 35.5734 83.9255 35.8236 83.9255 36.1644H83.9235Z" fill="#142678"/>
<path d="M80.1193 31.7734H79.6071C79.489 31.7734 79.4102 31.8562 79.4102 31.9803V37.7995C79.4102 37.9236 79.489 38.0063 79.6071 38.0063H80.1193C80.2375 38.0063 80.3163 37.9236 80.3163 37.7995V31.9803C80.3163 31.8562 80.2375 31.7734 80.1193 31.7734Z" fill="#142678"/>
<path d="M78.5215 37.1376H78.2339V31.9803C78.2339 31.8562 78.1551 31.7734 78.0369 31.7734H77.5248C77.4066 31.7734 77.3278 31.8562 77.3278 31.9803V37.1376H75.5292V31.9803C75.5292 31.8562 75.4504 31.7734 75.3322 31.7734H74.82C74.7018 31.7734 74.623 31.8562 74.623 31.9803V37.7995C74.623 37.9236 74.7018 38.0063 74.82 38.0063H77.8124V39.0149C77.8124 39.139 77.8912 39.2218 78.0094 39.2218H78.5215C78.6397 39.2218 78.7185 39.139 78.7185 39.0149V37.3424C78.7185 37.2183 78.6397 37.1356 78.5215 37.1356V37.1376Z" fill="#142678"/>
<path d="M72.932 34.6929C73.1113 34.5707 73.2531 34.423 73.3555 34.2536C73.4934 34.0172 73.5643 33.7178 73.5643 33.3691C73.5643 32.8411 73.4127 32.4373 73.1113 32.1714C72.8158 31.9074 72.3568 31.7734 71.75 31.7734H70.5799C70.4558 31.7734 70.373 31.8562 70.373 31.9803V37.7995C70.373 37.9236 70.4558 38.0063 70.5799 38.0063H71.8407C72.4789 38.0063 72.9635 37.8566 73.2767 37.5611C73.5998 37.2577 73.7633 36.8066 73.7633 36.2196C73.7633 35.7823 73.6707 35.4237 73.4875 35.1558C73.3516 34.949 73.1644 34.7953 72.932 34.6929ZM72.4435 34.1433C72.3095 34.2871 72.0928 34.36 71.7934 34.36H71.2773V32.6245H71.7382C72.0751 32.6245 72.3134 32.6895 72.4513 32.8214C72.5873 32.9416 72.6562 33.1583 72.6562 33.4597C72.6562 33.7611 72.5853 33.9955 72.4435 34.1433ZM71.2792 35.1932H71.8584C72.2071 35.1932 72.4632 35.2701 72.6227 35.4237C72.7803 35.5754 72.8591 35.8256 72.8591 36.1664C72.8591 36.5072 72.7803 36.7751 72.6247 36.9248C72.4671 37.0726 72.1992 37.1474 71.8328 37.1474H71.2812V35.1932H71.2792Z" fill="#142678"/>
<path d="M69.051 31.7734H68.5388C68.4206 31.7734 68.3418 31.8562 68.3418 31.9803V37.7995C68.3418 37.9236 68.4206 38.0063 68.5388 38.0063H69.051C69.1692 38.0063 69.248 37.9236 69.248 37.7995V31.9803C69.248 31.8562 69.1692 31.7734 69.051 31.7734Z" fill="#142678"/>
<path d="M67.7678 37.7285L66.3337 34.813L67.6831 32.0591C67.7245 31.9822 67.7284 31.9153 67.6949 31.8581C67.6733 31.8207 67.626 31.7754 67.5275 31.7754H66.9346C66.8498 31.7754 66.7809 31.8207 66.7395 31.9015L66.0619 33.3218L65.859 33.7808C65.8334 33.8438 65.8058 33.9069 65.7802 33.9699L65.7053 33.7926C65.6442 33.639 65.5792 33.4873 65.5103 33.3376L64.8188 31.9015C64.7873 31.8227 64.7184 31.7774 64.6297 31.7774H64.0092C63.9442 31.7774 63.8871 31.8069 63.8516 31.8601L63.8358 31.8916C63.8201 31.9389 63.824 31.9921 63.8516 32.0591L65.2128 34.7992L63.759 37.7364C63.7236 37.8132 63.7236 37.8802 63.759 37.9354C63.7767 37.9649 63.824 38.0122 63.9186 38.0122H64.5312C64.6179 38.0122 64.6908 37.961 64.7263 37.8783L65.4689 36.3397C65.5359 36.1861 65.6029 36.0305 65.6699 35.8748C65.7014 35.8039 65.7309 35.735 65.7605 35.666C65.788 35.733 65.8156 35.8019 65.8452 35.8729C65.9122 36.0324 65.9831 36.192 66.0579 36.3535L66.7888 37.8901C66.8282 37.9689 66.8991 38.0142 66.9818 38.0142H67.6122C67.7363 38.0142 67.7757 37.9295 67.7875 37.892C67.8013 37.8389 67.7954 37.7837 67.7698 37.7344L67.7678 37.7285Z" fill="#142678"/>
<path d="M63.7217 37.7601L62.1891 31.9133C62.1516 31.8247 62.0768 31.7734 61.9842 31.7734H61.2809C61.1765 31.7734 61.0977 31.8306 61.0701 31.931L59.5631 37.7561C59.5356 37.8467 59.5592 37.9039 59.5848 37.9374C59.6045 37.963 59.6498 38.0063 59.7365 38.0063H60.2763C60.3747 38.0063 60.4496 37.9492 60.4792 37.8487L60.7943 36.5643H62.4609L62.78 37.8507L62.7919 37.8822C62.851 37.9866 62.9278 38.0083 62.981 38.0083H63.5385C63.6192 38.0083 63.6645 37.9728 63.6902 37.9433C63.7158 37.9118 63.7414 37.8566 63.7236 37.762L63.7217 37.7601ZM61.4661 33.8182C61.5153 33.6173 61.5607 33.4183 61.604 33.2213C61.6099 33.1977 61.6138 33.176 61.6197 33.1524L61.6375 33.2351C61.6867 33.4302 61.734 33.6271 61.7833 33.8281L62.2482 35.7035H61.0051L61.4661 33.8182Z" fill="#142678"/>
<path d="M58.8963 32.6499C58.7072 32.317 58.4353 32.0728 58.0886 31.9211C57.803 31.797 57.4681 31.7241 57.0938 31.7063V31.3143C57.0938 31.1646 56.9992 31.0996 56.9066 31.0996H56.3866C56.2881 31.0996 56.1896 31.1666 56.1896 31.3143V31.7063C55.8153 31.726 55.4824 31.8009 55.1948 31.9309C54.8481 32.0806 54.5762 32.3269 54.3871 32.6618C54.2078 32.9888 54.1152 33.4222 54.1152 33.9462V35.8018C54.1152 36.3495 54.2059 36.7967 54.3871 37.1315C54.5762 37.4704 54.8441 37.7186 55.1869 37.8703C55.4725 37.9924 55.8094 38.0614 56.1896 38.0771V38.4691C56.1896 38.6189 56.2881 38.6839 56.3866 38.6839H56.9066C57.0012 38.6839 57.0938 38.6169 57.0938 38.4691V38.0771C57.472 38.0594 57.8049 37.9904 58.0866 37.8703C58.4333 37.7265 58.7072 37.4802 58.8963 37.1394C59.0834 36.8065 59.176 36.3554 59.176 35.7999V33.9442C59.176 33.4123 59.0814 32.977 58.8943 32.6499H58.8963ZM58.1122 33.1149C58.2186 33.3217 58.2718 33.6093 58.2718 33.9718V35.7723C58.2718 36.1643 58.2186 36.4716 58.1103 36.6883C58.0137 36.8932 57.8699 37.0311 57.6729 37.1119C57.5094 37.1808 57.3085 37.2222 57.078 37.234V32.5475C57.3144 32.5613 57.5153 32.6046 57.6808 32.6775C57.8739 32.7642 58.0157 32.906 58.1142 33.1149H58.1122ZM55.1731 36.6863C55.0726 36.4716 55.0214 36.1643 55.0214 35.7703V33.9698C55.0214 33.6073 55.0726 33.3178 55.1731 33.1109C55.2775 32.9041 55.4213 32.7622 55.6144 32.6756C55.7798 32.6027 55.9808 32.5593 56.2093 32.5455V37.23C55.9808 37.2163 55.7798 37.1749 55.6144 37.1079C55.4213 37.0271 55.2775 36.8892 55.177 36.6844L55.1731 36.6863Z" fill="#142678"/>
<path d="M104.327 25.4046C104.203 25.4046 104.172 25.3377 104.229 25.2057L105.395 22.6467C105.489 22.4379 105.59 22.2252 105.692 22.0065C105.797 21.78 105.901 21.5613 106.006 21.3525V21.3249C105.57 21.1259 105.237 20.8324 105.011 20.4443C104.784 20.0563 104.67 19.5638 104.67 18.9669C104.67 18.37 104.774 17.8302 104.983 17.4028C105.202 16.9773 105.529 16.6542 105.964 16.4355C106.409 16.209 106.969 16.0947 107.643 16.0947H109.989C110.093 16.0947 110.144 16.1459 110.144 16.2504V25.249C110.144 25.3534 110.093 25.4046 109.989 25.4046H108.694C108.6 25.4046 108.553 25.3534 108.553 25.249V21.6519H107.487L105.923 25.2904C105.913 25.3278 105.889 25.3574 105.852 25.3751C105.824 25.3948 105.791 25.4027 105.751 25.4027H104.329L104.327 25.4046ZM107.696 20.3577H108.549V17.5013H107.668C107.186 17.5013 106.829 17.6254 106.602 17.8716C106.384 18.108 106.275 18.4823 106.275 18.9945C106.275 19.4771 106.384 19.8278 106.602 20.0464C106.829 20.2552 107.195 20.3596 107.698 20.3596L107.696 20.3577Z" fill="#142678"/>
<path d="M101.775 25.4046C101.68 25.4046 101.633 25.3534 101.633 25.249V16.2504C101.633 16.1459 101.68 16.0947 101.775 16.0947H103.083C103.177 16.0947 103.225 16.1459 103.225 16.2504V25.249C103.225 25.3534 103.177 25.4046 103.083 25.4046H101.775Z" fill="#142678"/>
<path d="M99.2015 27.3529C99.1069 27.3529 99.0597 27.3017 99.0597 27.1973V25.4066H94.0422C93.9477 25.4066 93.9004 25.3554 93.9004 25.251V16.2523C93.9004 16.1479 93.9477 16.0967 94.0422 16.0967H95.3503C95.4448 16.0967 95.4921 16.1479 95.4921 16.2523V23.9567H98.2205V16.2523C98.2205 16.1479 98.2677 16.0967 98.3623 16.0967H99.6703C99.7649 16.0967 99.8122 16.1479 99.8122 16.2523V23.9567H100.466C100.571 23.9567 100.622 24.0138 100.622 24.1281V27.1992C100.622 27.3036 100.571 27.3549 100.466 27.3549H99.2015V27.3529Z" fill="#142678"/>
<path d="M93.1232 25.2352L90.777 16.2228C90.7395 16.1381 90.6765 16.0947 90.5918 16.0947H88.872C88.7873 16.0947 88.7302 16.1381 88.7006 16.2228L86.3545 25.2352C86.3269 25.3495 86.3643 25.4066 86.4687 25.4066H87.8752C87.9698 25.4066 88.023 25.3633 88.0309 25.2786L88.4485 23.417H90.9956L91.4133 25.2786C91.4408 25.3633 91.494 25.4066 91.5689 25.4066H93.005C93.1094 25.4066 93.1468 25.3495 93.1192 25.2352H93.1232ZM88.7519 22.0794L89.3271 19.5204C89.4039 19.1974 89.4689 18.8802 89.5261 18.569C89.593 18.2459 89.6541 17.9287 89.7112 17.6175H89.7388C89.7959 17.9307 89.8531 18.2479 89.9102 18.569C89.9772 18.8822 90.0481 19.1993 90.1229 19.5204L90.6982 22.0794H88.7519Z" fill="#142678"/>
<path d="M84.1282 25.4046C84.0336 25.4046 83.9863 25.3534 83.9863 25.249V16.2504C83.9863 16.1459 84.0336 16.0947 84.1282 16.0947H85.4362C85.5308 16.0947 85.578 16.1459 85.578 16.2504V25.249C85.578 25.3534 85.5308 25.4046 85.4362 25.4046H84.1282Z" fill="#142678"/>
<path d="M81.557 27.3529C81.4624 27.3529 81.4151 27.3017 81.4151 27.1973V25.4066H76.3977C76.3031 25.4066 76.2559 25.3554 76.2559 25.251V16.2523C76.2559 16.1479 76.3031 16.0967 76.3977 16.0967H77.7057C77.8003 16.0967 77.8476 16.1479 77.8476 16.2523V23.9567H80.5759V16.2523C80.5759 16.1479 80.6232 16.0967 80.7178 16.0967H82.0258C82.1204 16.0967 82.1676 16.1479 82.1676 16.2523V23.9567H82.8217C82.9261 23.9567 82.9773 24.0138 82.9773 24.1281V27.1992C82.9773 27.3036 82.9261 27.3549 82.8217 27.3549H81.557V27.3529Z" fill="#142678"/>
<path d="M71.7701 25.5189C70.7753 25.5189 70.0169 25.2529 69.4948 24.723C68.9827 24.1833 68.7266 23.3913 68.7266 22.3493V19.1658C68.7266 18.1139 68.9827 17.322 69.4948 16.7921C70.0149 16.2523 70.7733 15.9824 71.7701 15.9824C72.7669 15.9824 73.547 16.2523 74.0592 16.7921C74.5812 17.322 74.8412 18.1139 74.8412 19.1658V22.3493C74.8412 23.3913 74.5812 24.1833 74.0592 24.723C73.547 25.2529 72.7846 25.5189 71.7701 25.5189ZM71.7701 24.0828C72.2626 24.0828 72.6329 23.9351 72.8792 23.6415C73.1254 23.348 73.2495 22.893 73.2495 22.2764V19.2348C73.2495 18.6103 73.1274 18.1494 72.8792 17.8558C72.6329 17.5623 72.2626 17.4146 71.7701 17.4146C71.2776 17.4146 70.9368 17.5623 70.6906 17.8558C70.4443 18.1494 70.3202 18.6083 70.3202 19.2348V22.2764C70.3202 22.893 70.4424 23.346 70.6906 23.6415C70.9368 23.9351 71.2973 24.0828 71.7701 24.0828Z" fill="#142678"/>
<path d="M64.5513 25.5189C63.5664 25.5189 62.8119 25.253 62.2918 24.723C61.7698 24.1833 61.5098 23.3677 61.5098 22.2784V19.2368C61.5098 18.1572 61.7698 17.3456 62.2918 16.8059C62.8139 16.2563 63.5664 15.9805 64.5513 15.9805C65.2329 15.9805 65.8121 16.1125 66.2849 16.3784C66.7577 16.6443 67.1044 17.0226 67.323 17.515C67.5417 17.9977 67.6067 18.5709 67.522 19.2348C67.5122 19.3392 67.4649 19.3904 67.3802 19.3904H66.0721C65.9677 19.3904 65.9205 19.3392 65.9303 19.2348C65.9776 18.6478 65.887 18.1966 65.6604 17.8834C65.4339 17.5702 65.0675 17.4146 64.5651 17.4146C64.0628 17.4146 63.7181 17.5663 63.4699 17.8696C63.2236 18.1632 63.0995 18.632 63.0995 19.2762V22.2035C63.0995 22.8575 63.2216 23.3362 63.4699 23.6396C63.7259 23.9331 64.0904 24.0808 64.5651 24.0808C65.0872 24.0808 65.4555 23.9154 65.6742 23.5824C65.8929 23.2515 65.9815 22.8102 65.9441 22.2606C65.9342 22.1464 65.9776 22.0892 66.0721 22.0892H67.3802C67.4747 22.0892 67.5279 22.1503 67.5358 22.2744C67.6205 23.2692 67.4038 24.0611 66.8818 24.6482C66.3597 25.2254 65.5836 25.515 64.5513 25.515V25.5189Z" fill="#142678"/>
<path d="M61.0138 25.2352L58.6676 16.2228C58.6302 16.1381 58.5671 16.0947 58.4824 16.0947H56.7627C56.678 16.0947 56.6208 16.1381 56.5913 16.2228L54.2451 25.2352C54.2175 25.3495 54.2549 25.4066 54.3593 25.4066H55.7659C55.8604 25.4066 55.9136 25.3633 55.9215 25.2786L56.3391 23.417H58.8863L59.3039 25.2786C59.3315 25.3633 59.3846 25.4066 59.4595 25.4066H60.8956C61 25.4066 61.0374 25.3495 61.0098 25.2352H61.0138ZM56.6425 22.0794L57.2177 19.5204C57.2945 19.1974 57.3595 18.8802 57.4167 18.569C57.4837 18.2459 57.5447 17.9287 57.6019 17.6175H57.6294C57.6866 17.9307 57.7437 18.2479 57.8008 18.569C57.8678 18.8822 57.9387 19.1993 58.0136 19.5204L58.5888 22.0794H56.6425Z" fill="#142678"/>
<path d="M138.431 12.3407L136.084 3.32824C136.047 3.24353 135.984 3.2002 135.899 3.2002H134.179C134.095 3.2002 134.038 3.24353 134.008 3.32824L131.662 12.3407C131.632 12.4549 131.672 12.5121 131.776 12.5121H133.183C133.277 12.5121 133.328 12.4687 133.338 12.384L133.756 10.5224H136.303L136.721 12.384C136.748 12.4687 136.801 12.5121 136.876 12.5121H138.312C138.417 12.5121 138.454 12.4549 138.427 12.3407H138.431ZM134.061 9.18486L134.636 6.62591C134.713 6.30284 134.778 5.98568 134.835 5.67443C134.902 5.35136 134.963 5.0342 135.021 4.72295H135.048C135.105 5.03617 135.162 5.35333 135.22 5.67443C135.287 5.98765 135.357 6.30481 135.432 6.62591L136.008 9.18486H134.061Z" fill="#142678"/>
<path d="M125.456 12.5121C125.362 12.5121 125.314 12.4608 125.314 12.3564V3.35777C125.314 3.25337 125.362 3.20215 125.456 3.20215H126.764C126.859 3.20215 126.906 3.25337 126.906 3.35777V7.13808H127.574L129.506 3.30065C129.526 3.26322 129.55 3.23958 129.577 3.22973C129.615 3.21003 129.648 3.20215 129.678 3.20215H131.084C131.142 3.20215 131.175 3.22185 131.185 3.25928C131.195 3.29671 131.185 3.34398 131.157 3.40111L128.969 7.65223L131.427 12.3151C131.457 12.3722 131.461 12.4195 131.441 12.4569C131.421 12.4943 131.384 12.514 131.327 12.514H129.82C129.782 12.514 129.749 12.5101 129.719 12.5002C129.692 12.4904 129.668 12.4628 129.648 12.4155L127.602 8.54855H126.904V12.3584C126.904 12.4628 126.857 12.514 126.762 12.514H125.454L125.456 12.5121Z" fill="#142678"/>
<path d="M118.876 12.5121C118.782 12.5121 118.734 12.4608 118.734 12.3564V3.35777C118.734 3.25337 118.782 3.20215 118.876 3.20215H120.184C120.279 3.20215 120.326 3.25337 120.326 3.35777V6.49982H121.094C122.127 6.49982 122.891 6.74606 123.383 7.23855C123.886 7.73103 124.136 8.45597 124.136 9.41335C124.136 10.418 123.89 11.1863 123.397 11.7162C122.915 12.2461 122.136 12.5121 121.067 12.5121H118.878H118.876ZM120.326 11.0898H121.051C121.581 11.0898 121.965 10.9578 122.201 10.6918C122.438 10.416 122.552 9.99054 122.542 9.41335C122.542 8.85389 122.424 8.45597 122.188 8.21957C121.951 7.98318 121.571 7.86498 121.051 7.86498H120.326V11.0917V11.0898Z" fill="#142678"/>
<path d="M114.344 12.6263C113.359 12.6263 112.605 12.3604 112.085 11.8305C111.563 11.2907 111.303 10.4751 111.303 9.38577V6.34419C111.303 5.26467 111.563 4.45306 112.085 3.91329C112.607 3.36368 113.359 3.08789 114.344 3.08789C115.026 3.08789 115.605 3.21988 116.078 3.48582C116.553 3.75176 116.897 4.12999 117.116 4.62247C117.335 5.1051 117.4 5.67835 117.315 6.34222C117.305 6.44663 117.258 6.49785 117.173 6.49785H115.865C115.761 6.49785 115.713 6.44663 115.723 6.34222C115.771 5.75518 115.68 5.30407 115.453 4.99085C115.227 4.67763 114.86 4.522 114.358 4.522C113.856 4.522 113.509 4.67369 113.263 4.97706C113.017 5.27058 112.892 5.73942 112.892 6.38359V9.31091C112.892 9.96493 113.015 10.4436 113.263 10.747C113.519 11.0405 113.883 11.1883 114.358 11.1883C114.88 11.1883 115.249 11.0228 115.467 10.6899C115.686 10.3589 115.774 9.91765 115.737 9.36804C115.727 9.25379 115.771 9.19666 115.865 9.19666H117.173C117.268 9.19666 117.321 9.25773 117.329 9.38183C117.413 10.3766 117.197 11.1686 116.675 11.7556C116.153 12.3328 115.377 12.6224 114.344 12.6224V12.6263Z" fill="#142678"/>
<path d="M104.009 12.5121C103.914 12.5121 103.867 12.4608 103.867 12.3564V3.35777C103.867 3.25337 103.914 3.20215 104.009 3.20215H105.317C105.412 3.20215 105.459 3.25337 105.459 3.35777V7.03958H108.274V3.35777C108.274 3.25337 108.325 3.20215 108.43 3.20215H109.724C109.828 3.20215 109.879 3.25337 109.879 3.35777V12.3564C109.879 12.4608 109.828 12.5121 109.724 12.5121H108.43C108.325 12.5121 108.274 12.4608 108.274 12.3564V8.47566H105.459V12.3564C105.459 12.4608 105.412 12.5121 105.317 12.5121H104.009Z" fill="#142678"/>
<path d="M100.857 12.5118C100.762 12.5118 100.715 12.4606 100.715 12.3562V3.35752C100.715 3.25311 100.762 3.20189 100.857 3.20189H102.165C102.259 3.20189 102.306 3.25311 102.306 3.35752V12.3562C102.306 12.4606 102.259 12.5118 102.165 12.5118H100.857ZM100.415 2.3627C100.149 2.3627 99.9465 2.29572 99.8047 2.16374C99.653 2.0219 99.5781 1.82688 99.5781 1.58064V1.39546C99.5781 1.13937 99.655 0.944348 99.8047 0.812362C99.9465 0.670527 100.151 0.599609 100.415 0.599609C100.679 0.599609 100.884 0.670527 101.026 0.812362C101.168 0.944348 101.239 1.13937 101.239 1.39546V1.58064C101.239 1.82688 101.168 2.0219 101.026 2.16374C100.884 2.29572 100.679 2.3627 100.415 2.3627ZM102.661 2.3627C102.395 2.3627 102.188 2.29572 102.037 2.16374C101.895 2.0219 101.824 1.82688 101.824 1.58064V1.39546C101.824 1.13937 101.895 0.944348 102.037 0.812362C102.188 0.670527 102.397 0.599609 102.661 0.599609C102.925 0.599609 103.14 0.670527 103.272 0.812362C103.414 0.944348 103.485 1.13937 103.485 1.39546V1.58064C103.485 1.82688 103.414 2.0219 103.272 2.16374C103.14 2.29572 102.935 2.3627 102.661 2.3627Z" fill="#142678"/>
<path d="M99.9395 12.3407L97.5934 3.32824C97.5559 3.24353 97.4929 3.2002 97.4082 3.2002H95.6884C95.6037 3.2002 95.5466 3.24353 95.519 3.32824L93.1728 12.3407C93.1452 12.4549 93.1827 12.5121 93.2871 12.5121H94.6936C94.7882 12.5121 94.8414 12.4687 94.8492 12.384L95.2669 10.5224H97.814L98.2316 12.384C98.2592 12.4687 98.3124 12.5121 98.3872 12.5121H99.8233C99.9277 12.5121 99.9652 12.4549 99.9376 12.3407H99.9395ZM95.5702 9.18486L96.1454 6.62591C96.2203 6.30284 96.2873 5.98568 96.3444 5.67443C96.4114 5.35136 96.4725 5.0342 96.5296 4.72295H96.5572C96.6143 5.03617 96.6714 5.35333 96.7285 5.67443C96.7955 5.98765 96.8664 6.30481 96.9413 6.62591L97.5165 9.18486H95.5702Z" fill="#142678"/>
<path d="M88.1692 12.5121C88.0746 12.5121 88.0273 12.4608 88.0273 12.3564V3.35777C88.0273 3.25337 88.0746 3.20215 88.1692 3.20215H90.2869C91.3093 3.20215 92.0637 3.45233 92.5464 3.95466C93.029 4.457 93.2713 5.20951 93.2713 6.21418C93.2713 7.21885 93.0251 7.93393 92.5326 8.44612C92.0401 8.9583 91.3014 9.21439 90.3144 9.21439H89.6171V12.3564C89.6171 12.4608 89.5698 12.5121 89.4752 12.5121H88.1672H88.1692ZM89.619 7.80786H90.2731C90.7557 7.80786 91.1123 7.67981 91.3388 7.42372C91.5653 7.16763 91.6796 6.77364 91.6796 6.24373C91.6796 5.66654 91.5653 5.24891 91.3388 4.99282C91.1123 4.73673 90.7616 4.60868 90.2869 4.60868H89.619V7.80786Z" fill="#142678"/>
<path d="M81.2414 12.5121C81.1469 12.5121 81.0996 12.4608 81.0996 12.3564V3.35777C81.0996 3.25337 81.1469 3.20215 81.2414 3.20215H82.5495C82.644 3.20215 82.6913 3.25337 82.6913 3.35777V7.13808H83.3591L85.2916 3.30065C85.3113 3.26322 85.335 3.23958 85.3626 3.22973C85.4 3.21003 85.4335 3.20215 85.463 3.20215H86.8696C86.9267 3.20215 86.9602 3.22185 86.97 3.25928C86.9799 3.29671 86.97 3.34398 86.9424 3.40111L84.7538 7.65223L87.2123 12.3151C87.2399 12.3722 87.2458 12.4195 87.2261 12.4569C87.2064 12.4943 87.169 12.514 87.1118 12.514H85.6048C85.5674 12.514 85.5339 12.5101 85.5044 12.5002C85.4768 12.4904 85.4532 12.4628 85.4335 12.4155L83.3867 8.54855H82.6893V12.3584C82.6893 12.4628 82.6421 12.514 82.5475 12.514H81.2395L81.2414 12.5121Z" fill="#142678"/>
<path d="M75.1193 12.5121C75.072 12.5121 75.0346 12.4924 75.0051 12.4549C74.9854 12.4175 74.9854 12.3702 75.0051 12.3131L76.185 9.32865L73.8546 3.40111C73.8349 3.34398 73.8349 3.29671 73.8546 3.25928C73.8822 3.22185 73.9216 3.20215 73.9689 3.20215H75.4759C75.5507 3.20215 75.6039 3.23958 75.6315 3.3164L76.5692 6.07431C76.6539 6.34025 76.7347 6.60029 76.8115 6.85638C76.8883 7.10262 76.9592 7.36265 77.0242 7.63844H77.0518C77.1287 7.36462 77.2035 7.09868 77.2784 6.84259C77.3631 6.5865 77.4438 6.3304 77.5207 6.07431L78.4879 3.3164C78.4978 3.24155 78.549 3.20215 78.6435 3.20215H80.1367C80.184 3.20215 80.2175 3.22185 80.2352 3.25928C80.2549 3.29671 80.2549 3.34004 80.2352 3.38732L76.6953 12.3998C76.6756 12.4746 76.6184 12.514 76.5239 12.514H75.1173L75.1193 12.5121Z" fill="#142678"/>
<path d="M68.427 12.5121C68.3324 12.5121 68.2852 12.4608 68.2852 12.3564V3.35777C68.2852 3.25337 68.3324 3.20215 68.427 3.20215H72.8771C72.9716 3.20215 73.0189 3.25337 73.0189 3.35777V4.48064C73.0189 4.58504 72.9716 4.63626 72.8771 4.63626H69.8769V7.1105H72.621C72.7155 7.1105 72.7628 7.16172 72.7628 7.26612V8.31807C72.7628 8.42248 72.7155 8.47369 72.621 8.47369H69.8769V11.074H72.8771C72.9716 11.074 73.0189 11.1252 73.0189 11.2296V12.3525C73.0189 12.4569 72.9716 12.5081 72.8771 12.5081H68.427V12.5121Z" fill="#142678"/>
<path d="M63.899 12.6263C62.914 12.6263 62.1595 12.3604 61.6395 11.8305C61.1175 11.2907 60.8574 10.4751 60.8574 9.38577V6.34419C60.8574 5.26467 61.1175 4.45306 61.6395 3.91329C62.1595 3.36368 62.914 3.08789 63.899 3.08789C64.5806 3.08789 65.1598 3.21988 65.6325 3.48582C66.1053 3.75176 66.452 4.12999 66.6707 4.62247C66.8894 5.1051 66.9544 5.67835 66.8697 6.34222C66.8598 6.44663 66.8125 6.49785 66.7278 6.49785H65.4198C65.3154 6.49785 65.2681 6.44663 65.278 6.34222C65.3252 5.75518 65.2346 5.30407 65.0081 4.99085C64.7815 4.67763 64.4151 4.522 63.9128 4.522C63.4105 4.522 63.0657 4.67369 62.8175 4.97706C62.5713 5.27058 62.4472 5.73942 62.4472 6.38359V9.31091C62.4472 9.96493 62.5693 10.4436 62.8175 10.747C63.0736 11.0405 63.438 11.1883 63.9128 11.1883C64.4348 11.1883 64.8032 11.0228 65.0219 10.6899C65.2405 10.3589 65.3292 9.91765 65.2917 9.36804C65.2819 9.25379 65.3252 9.19666 65.4198 9.19666H66.7278C66.8224 9.19666 66.8756 9.25773 66.8835 9.38183C66.9682 10.3766 66.7515 11.1686 66.2294 11.7556C65.7074 12.3328 64.9312 12.6224 63.899 12.6224V12.6263Z" fill="#142678"/>
<path d="M54.3939 12.5121C54.2895 12.5121 54.2383 12.4608 54.2383 12.3564V3.35777C54.2383 3.25337 54.2895 3.20215 54.3939 3.20215H56.6258C57.5832 3.20215 58.2944 3.39717 58.7573 3.78525C59.2222 4.16348 59.4547 4.73673 59.4547 5.505C59.4547 6.02703 59.3503 6.45254 59.1414 6.78349C58.9425 7.10656 58.6253 7.37053 58.19 7.57934V7.60692C58.712 7.73891 59.104 7.995 59.37 8.3752C59.6457 8.74555 59.7817 9.23803 59.7817 9.85265C59.7817 10.7628 59.5315 11.4345 59.0272 11.8718C58.5347 12.2973 57.7566 12.5121 56.6968 12.5121H54.3939ZM55.83 11.1627H56.7263C57.2286 11.1627 57.599 11.0484 57.8354 10.8219C58.0718 10.5953 58.19 10.2348 58.19 9.74233C58.19 9.27743 58.0718 8.93269 57.8354 8.70418C57.599 8.46778 57.2286 8.34959 56.7263 8.34959H55.83V11.1646V11.1627ZM55.83 7.1105H56.6258C57.0533 7.1105 57.3646 7.00215 57.5635 6.78349C57.7723 6.55695 57.8767 6.22403 57.8767 5.78867C57.8767 5.35332 57.7723 5.0401 57.5635 4.85098C57.3547 4.65202 57.0179 4.55155 56.5549 4.55155H55.83V7.1105Z" fill="#142678"/>
<mask id="mask0_23_32704" style="mask-type:luminance" maskUnits="userSpaceOnUse" x="0" y="3" width="23" height="23">
<path d="M22.2603 3.13477H0V25.395H22.2603V3.13477Z" fill="white"/>
</mask>
<g mask="url(#mask0_23_32704)">
<path d="M22.2603 3.13477H0V25.395H22.2603V3.13477Z" fill="#1771DE"/>
<path d="M4.83811 25.6468C5.07253 22.3807 7.80483 19.7922 11.1301 19.7922C14.4553 19.7922 17.1876 22.3787 17.4221 25.6468H19.9652C19.7269 20.98 15.856 17.2549 11.1301 17.2549C6.40421 17.2549 2.53131 20.9781 2.29492 25.6468H4.83811Z" fill="white"/>
<path d="M11.1297 15.8249C8.67912 15.8249 6.68555 13.8313 6.68555 11.3807C6.68555 8.9301 8.67912 6.93652 11.1297 6.93652C13.5803 6.93652 15.5719 8.9301 15.5719 11.3807C15.5719 13.8313 13.5783 15.8249 11.1297 15.8249ZM11.1297 9.1133C9.87881 9.1133 8.86232 10.1318 8.86232 11.3807C8.86232 12.6296 9.88078 13.6481 11.1297 13.6481C12.3787 13.6481 13.3971 12.6296 13.3971 11.3807C13.3971 10.1318 12.3787 9.1133 11.1297 9.1133Z" fill="white"/>
</g>
<path d="M46.7407 3.13477H24.4805V25.395H46.7407V3.13477Z" fill="#142678"/>
<path d="M39.7323 22.2511C38.7433 22.2511 37.7525 21.8748 36.998 21.1203L35.6092 19.7315L34.2204 21.1203C32.7134 22.6273 30.2608 22.6273 28.7538 21.1203C28.023 20.3895 27.6211 19.4203 27.6211 18.386C27.6211 17.3518 28.023 16.3826 28.7538 15.6518L30.1426 14.263L28.7558 12.8761C28.0249 12.1453 27.6231 11.1761 27.6231 10.1419C27.6231 9.10765 28.0249 8.13844 28.7558 7.40759C30.2628 5.90059 32.7153 5.90059 34.2223 7.40759L35.6092 8.79443L36.996 7.40759C38.503 5.90059 40.9556 5.90059 42.4626 7.40759C43.1934 8.13844 43.5953 9.10765 43.5953 10.1419C43.5953 11.1761 43.1934 12.1453 42.4626 12.8761L41.0758 14.263L42.4646 15.6518C43.1954 16.3826 43.5973 17.3518 43.5973 18.386C43.5973 19.4203 43.1954 20.3895 42.4646 21.1203C41.7101 21.8748 40.7212 22.2511 39.7303 22.2511H39.7323ZM36.9566 18.388L38.3434 19.7748C39.1078 20.5392 40.3528 20.5392 41.1191 19.7748C41.4894 19.4045 41.6943 18.912 41.6943 18.388C41.6943 17.864 41.4894 17.3715 41.1191 17.0012L39.7323 15.6143L36.9566 18.39V18.388ZM31.4881 15.6124L30.1012 16.9992C29.7309 17.3696 29.526 17.862 29.526 18.386C29.526 18.91 29.7309 19.4025 30.1012 19.7729C30.8656 20.5372 32.1106 20.5372 32.8769 19.7729L34.2637 18.386L31.4881 15.6104V15.6124ZM32.8335 14.2669L35.6092 17.0425L38.3848 14.2669L35.6092 11.4913L32.8335 14.2669ZM31.4881 8.18375C30.9857 8.18375 30.4834 8.37483 30.1012 8.757C29.7309 9.12735 29.526 9.61983 29.526 10.1438C29.526 10.6678 29.7309 11.1603 30.1012 11.5307L31.4881 12.9175L34.2637 10.1419L32.8769 8.75503C32.4947 8.37286 31.9924 8.18178 31.49 8.18178L31.4881 8.18375ZM36.9546 10.1458L39.7303 12.9214L41.1171 11.5346C41.4875 11.1643 41.6923 10.6718 41.6923 10.1478C41.6923 9.62377 41.4875 9.13129 41.1171 8.76094C40.3508 7.9966 39.1058 7.9966 38.3415 8.76094L36.9546 10.1478V10.1458Z" fill="white"/>
<mask id="mask1_23_32704" style="mask-type:luminance" maskUnits="userSpaceOnUse" x="0" y="27" width="23" height="23">
<path d="M22.2603 27.6367H0V49.897H22.2603V27.6367Z" fill="white"/>
</mask>
<g mask="url(#mask1_23_32704)">
<path d="M22.2603 27.6357H0V49.896H22.2603V27.6357Z" fill="#00B1D9"/>
<path d="M21.4638 33.0358H17.1989H16.864V27.9395C16.864 27.78 16.8798 27.6243 16.9014 27.4727H14.5296C14.5178 27.6263 14.508 27.7819 14.508 27.9395V33.0358H10.9976C7.65851 33.0358 4.94197 35.7523 4.94197 39.0913V42.978H0.367786C0.190492 42.978 0.013198 42.9879 -0.160156 43.0036V45.3794C0.013198 45.3518 0.188522 45.3341 0.367786 45.3341H4.93803V49.7329C4.93803 49.8708 4.92621 50.0067 4.91046 50.1407H7.27832C7.28817 50.0048 7.29408 49.8688 7.29408 49.7329V45.3341H10.8045C14.1435 45.3341 16.8601 42.6175 16.8601 39.2785V35.3918H21.4638C21.7829 35.3918 22.0942 35.3642 22.3995 35.313V32.8998C22.1021 32.9865 21.7889 33.0358 21.4638 33.0358ZM14.504 39.2785C14.504 41.3193 12.8434 42.978 10.8045 42.978H7.29802V39.0913C7.29802 37.0505 8.95867 35.3918 10.9976 35.3918H14.504V39.2785Z" fill="white"/>
</g>
<path d="M46.6802 27.6367H24.4199V49.897H46.6802V27.6367Z" fill="#D91625"/>
<path d="M42.8914 32.9671L42.7515 32.8272C40.6949 30.7706 37.4997 30.6229 35.3091 32.4195C33.1619 30.7726 30.0651 30.9302 28.0991 32.8942C25.9617 35.0316 25.9617 38.5105 28.0991 40.6479L34.2079 46.7566C34.5999 47.1487 35.116 47.3457 35.6302 47.3457C36.1443 47.3457 36.6605 47.1487 37.0525 46.7566L40.6259 43.1832L43.1416 40.6676C43.2184 40.5809 43.2913 40.4923 43.3602 40.4016C45.0741 38.1933 44.9184 34.9942 42.8914 32.9671ZM35.642 45.3462C35.642 45.3462 35.6223 45.3521 35.6164 45.3462L29.5076 39.2374C28.1484 37.8782 28.1484 35.6639 29.5076 34.3027C30.1873 33.6231 31.0816 33.2823 31.974 33.2823C32.6182 33.2823 33.2604 33.4616 33.8257 33.8161C32.9688 34.6514 32.3424 35.2936 31.9622 35.7309C30.9752 36.8617 31.1112 38.6504 32.2616 39.7161C33.2288 40.6124 34.9703 41.0005 36.9244 39.4758L39.2174 41.7707L35.642 45.3462ZM41.4848 39.523L41.278 39.7299L40.6378 40.3721L36.9599 36.6883L36.8929 36.7553L36.2547 37.4054C35.2106 38.4672 34.2 38.7942 33.6169 38.2544C33.2938 37.955 33.156 37.3975 33.4652 37.0429C33.8198 36.6371 34.4463 35.9969 35.3012 35.1656C35.5258 34.9469 35.7641 34.7164 36.0183 34.4741C36.1325 34.3658 36.2487 34.2535 36.3689 34.1392C36.495 34.019 36.6309 33.9127 36.7708 33.8161C38.1616 32.8331 40.0803 32.9789 41.341 34.2397L41.4809 34.3795C42.7279 35.6265 42.8776 37.563 41.932 38.9774C41.802 39.1704 41.6542 39.3536 41.4848 39.525V39.523Z" fill="white"/>
</svg>
