<svg width="193" height="67" viewBox="0 0 193 67" fill="none" xmlns="http://www.w3.org/2000/svg">
<path d="M113.918 56.4309H112.201C111.667 56.4309 111.208 56.5228 110.835 56.704C110.462 56.8905 110.175 57.1768 109.981 57.555C109.792 57.9175 109.695 58.3824 109.695 58.934C109.695 59.4856 109.797 59.9268 109.997 60.284C110.183 60.6019 110.446 60.8514 110.782 61.0274C110.714 61.1745 110.643 61.3294 110.575 61.4844C110.485 61.6814 110.399 61.8784 110.317 62.0727L109.332 64.371C109.285 64.4734 109.285 64.5627 109.332 64.6363C109.356 64.6757 109.419 64.7387 109.545 64.7387H110.312C110.372 64.7387 110.43 64.7177 110.475 64.6783C110.517 64.6468 110.548 64.6126 110.575 64.5627L111.946 61.29H112.986V64.4629C112.986 64.6284 113.091 64.7387 113.249 64.7387H113.918C114.084 64.7387 114.194 64.6284 114.194 64.4629V56.704C114.194 56.5385 114.084 56.4282 113.918 56.4282V56.4309ZM112.986 57.5655V60.2315H112.201C111.72 60.2315 111.378 60.1317 111.187 59.94C111 59.7456 110.903 59.4146 110.903 58.9576C110.903 58.4612 111.005 58.1014 111.21 57.8886C111.413 57.6732 111.741 57.5629 112.185 57.5629H112.983L112.986 57.5655Z" fill="white"/>
<path d="M107.678 56.0894H108.324C108.477 56.0894 108.6 56.2128 108.6 56.3651V59.215C108.6 59.3673 108.477 59.4908 108.324 59.4908H107.678C107.526 59.4908 107.402 59.3673 107.402 59.215V56.3651C107.402 56.2128 107.526 56.0894 107.678 56.0894Z" fill="white"/>
<path d="M105.418 60.3236C105.657 60.1607 105.846 59.9637 105.982 59.7378C106.166 59.42 106.261 59.0234 106.261 58.5585C106.261 57.8546 106.059 57.3161 105.657 56.9615C105.263 56.6096 104.651 56.4336 103.842 56.4336H102.282C102.116 56.4336 102.006 56.5439 102.006 56.7094V64.4683C102.006 64.6338 102.116 64.7441 102.282 64.7441H103.963C104.814 64.7441 105.46 64.5445 105.877 64.1505C106.308 63.746 106.526 63.1445 106.526 62.3618C106.526 61.7787 106.403 61.3006 106.158 60.9434C105.977 60.6676 105.728 60.4628 105.418 60.3262V60.3236ZM104.766 59.5907C104.588 59.7825 104.299 59.8797 103.902 59.8797H103.214V57.5683H103.829C104.278 57.5683 104.596 57.655 104.78 57.8309C104.961 57.9912 105.053 58.2775 105.053 58.6819C105.053 59.0864 104.958 59.3964 104.769 59.5934L104.766 59.5907ZM103.214 60.9907H103.986C104.451 60.9907 104.793 61.0931 105.005 61.298C105.216 61.5003 105.321 61.8338 105.321 62.2882C105.321 62.7426 105.216 63.0999 105.008 63.2995C104.798 63.4965 104.441 63.5963 103.952 63.5963H103.217V60.9907H103.214Z" fill="white"/>
<path d="M98.1223 56.3335C97.3159 56.3335 96.6882 56.5646 96.26 57.019C95.8345 57.4708 95.6191 58.1353 95.6191 58.9969V62.1881C95.6191 63.0392 95.8345 63.7011 96.26 64.1528C96.6882 64.6072 97.3159 64.8384 98.1223 64.8384C98.9286 64.8384 99.5695 64.6072 99.9977 64.1528C100.423 63.7011 100.639 63.0392 100.639 62.1881V58.9969C100.639 58.138 100.423 57.4708 99.9977 57.019C99.5695 56.5646 98.9391 56.3335 98.1223 56.3335ZM99.4303 59.0336V62.1514C99.4303 62.6846 99.3174 63.0812 99.0967 63.3307C98.8761 63.5724 98.5557 63.6905 98.1223 63.6905C97.6889 63.6905 97.3816 63.5724 97.1609 63.3333C96.9377 63.0812 96.8247 62.6846 96.8247 62.1514V59.0336C96.8247 58.4952 96.9377 58.0959 97.1609 57.8517C97.3816 57.6021 97.6968 57.4813 98.1223 57.4813C98.5478 57.4813 98.8735 57.6021 99.0967 57.8543C99.32 58.0986 99.4303 58.4952 99.4303 59.0336Z" fill="white"/>
<path d="M92.1421 56.4307H90.6318C90.4742 56.4307 90.3691 56.541 90.3691 56.7065V64.4654C90.3691 64.6308 90.4742 64.7412 90.6318 64.7412H91.3147C91.4723 64.7412 91.5774 64.6308 91.5774 64.4654V61.6838H92.1789C92.9957 61.6838 93.6208 61.4527 94.0411 60.9983C94.4587 60.5465 94.6689 59.8925 94.6689 59.0572C94.6689 58.222 94.4561 57.5259 94.0385 57.0899C93.6182 56.6513 92.98 56.4307 92.1395 56.4307H92.1421ZM93.4633 59.094C93.4633 59.6036 93.3582 59.9792 93.1533 60.2129C92.9511 60.4362 92.607 60.5491 92.1316 60.5491H91.5774V57.5548H92.1552C92.607 57.5548 92.9379 57.6704 93.1402 57.9042C93.3529 58.1406 93.4633 58.5398 93.4633 59.0966V59.094Z" fill="white"/>
<path d="M86.4875 56.3335C85.6811 56.3335 85.0534 56.5646 84.6253 57.019C84.1998 57.4708 83.9844 58.1353 83.9844 58.9969V62.1881C83.9844 63.0392 84.1998 63.7011 84.6253 64.1528C85.0534 64.6072 85.6811 64.8384 86.4875 64.8384C87.2939 64.8384 87.9348 64.6072 88.3629 64.1528C88.7884 63.7011 89.0038 63.0392 89.0038 62.1881V58.9969C89.0038 58.138 88.7884 57.4708 88.3629 57.019C87.9348 56.5646 87.3044 56.3335 86.4875 56.3335ZM87.7955 59.0336V62.1514C87.7955 62.6846 87.6826 63.0812 87.462 63.3307C87.2413 63.5724 86.9209 63.6905 86.4875 63.6905C86.0541 63.6905 85.7468 63.5724 85.5262 63.3307C85.3029 63.0786 85.19 62.6819 85.19 62.1487V59.031C85.19 58.4925 85.3029 58.0933 85.5262 57.849C85.7468 57.5995 86.062 57.4787 86.4875 57.4787C86.913 57.4787 87.2387 57.5995 87.462 57.8517C87.6826 58.0959 87.7955 58.4925 87.7955 59.031V59.0336Z" fill="white"/>
<path d="M83.0708 63.5828H82.8134L81.1035 56.6592C81.0825 56.52 80.9775 56.4307 80.8304 56.4307H79.8795C79.8165 56.4307 79.6983 56.4517 79.6143 56.5988L77.8833 63.5802H77.6259C77.4683 63.5802 77.3633 63.6905 77.3633 63.856V66.086C77.3633 66.2514 77.4683 66.3618 77.6259 66.3618H78.3089C78.4664 66.3618 78.5715 66.2514 78.5715 66.086V64.7412H82.1279V66.086C82.1279 66.2514 82.233 66.3618 82.3906 66.3618H83.0735C83.1549 66.3618 83.2284 66.3276 83.2757 66.2646C83.3046 66.2304 83.3361 66.1726 83.3361 66.086V63.856C83.3361 63.6905 83.2311 63.5802 83.0735 63.5802L83.0708 63.5828ZM80.0634 59.4118C80.1369 59.1019 80.2052 58.7972 80.2709 58.4978C80.2919 58.4137 80.3103 58.3271 80.3313 58.243C80.3497 58.3244 80.3681 58.4059 80.3891 58.4873C80.4626 58.7867 80.5362 59.0914 80.6071 59.3987L81.5579 63.5828H79.1021L80.0634 59.4118Z" fill="white"/>
<path d="M75.7974 60.4233C76.0154 60.263 76.1966 60.0582 76.3384 59.806C76.5381 59.4409 76.6379 59.0023 76.6379 58.4954C76.6379 57.0796 75.8683 56.3311 74.4132 56.3311C73.6646 56.3311 73.092 56.528 72.7111 56.9168C72.3382 57.2976 72.1622 57.8597 72.1884 58.5794C72.1884 58.6766 72.2278 58.737 72.262 58.7685L72.2856 58.7895C72.3382 58.8237 72.3933 58.8421 72.4511 58.8421H73.1445C73.2706 58.8421 73.3967 58.758 73.394 58.561C73.3783 58.1697 73.4466 57.8886 73.5963 57.7258C73.7408 57.5603 73.9982 57.4762 74.3606 57.4762C74.7415 57.4762 75.0173 57.5655 75.1801 57.7415C75.343 57.9123 75.427 58.2038 75.427 58.6136C75.427 59.0811 75.3272 59.4278 75.1276 59.6484C74.9411 59.8559 74.6312 59.9584 74.203 59.9584H73.5201C73.394 59.9584 73.2706 60.0424 73.2706 60.2342V60.8304C73.2706 61.0195 73.3967 61.1062 73.5201 61.1062H74.3239C74.8045 61.1062 75.146 61.206 75.343 61.403C75.5426 61.5895 75.6424 61.9047 75.6424 62.3407C75.6424 62.8371 75.5426 63.1917 75.3508 63.3939C75.1565 63.5883 74.8282 63.6881 74.3711 63.6881C73.9982 63.6881 73.725 63.6014 73.5674 63.436C73.4124 63.2652 73.3363 62.9894 73.3441 62.6086C73.3441 62.409 73.2181 62.3223 73.092 62.3223H72.3986C72.3303 62.3223 72.2699 62.3459 72.22 62.3958C72.1727 62.4431 72.1464 62.5114 72.149 62.5928C72.1228 63.3256 72.2988 63.893 72.6717 64.2738C73.0447 64.6468 73.6121 64.8333 74.3606 64.8333C75.1985 64.8333 75.8289 64.6205 76.2334 64.1977C76.6457 63.7774 76.8533 63.1444 76.8533 62.3144C76.8533 61.7786 76.7377 61.3373 76.5092 61.0037C76.3358 60.7437 76.0968 60.5467 75.7921 60.4154L75.7974 60.4233Z" fill="white"/>
<path d="M191.929 42.9541C191.501 42.4997 190.871 42.2686 190.054 42.2686C189.237 42.2686 188.62 42.4997 188.192 42.9541C187.766 43.4059 187.551 44.0704 187.551 44.9319V48.1232C187.551 48.9742 187.766 49.6361 188.192 50.0879C188.62 50.5423 189.248 50.7734 190.054 50.7734C190.86 50.7734 191.501 50.5423 191.929 50.0879C192.355 49.6361 192.57 48.9742 192.57 48.1232V44.9319C192.57 44.073 192.355 43.4059 191.929 42.9541ZM191.362 44.9687V48.0864C191.362 48.6196 191.249 49.0162 191.028 49.2658C190.808 49.5074 190.49 49.6256 190.054 49.6256C189.618 49.6256 189.313 49.5074 189.093 49.2684C188.869 49.0162 188.756 48.6196 188.756 48.0864V44.9687C188.756 44.4302 188.869 44.031 189.093 43.7867C189.313 43.5372 189.628 43.4164 190.054 43.4164C190.479 43.4164 190.805 43.5372 191.028 43.7893C191.252 44.0336 191.362 44.4302 191.362 44.9687Z" fill="white"/>
<path d="M186.66 42.3657H183.468C183.345 42.3657 183.219 42.4498 183.219 42.6415V50.4004C183.219 50.5659 183.324 50.6762 183.481 50.6762H184.164C184.322 50.6762 184.427 50.5659 184.427 50.4004V43.524H186.662C186.794 43.524 186.925 43.4347 186.925 43.2377V42.6415C186.925 42.476 186.82 42.3657 186.662 42.3657H186.66Z" fill="white"/>
<path d="M179.337 42.2686C178.531 42.2686 177.903 42.4997 177.475 42.9541C177.049 43.4059 176.834 44.0704 176.834 44.9319V48.1232C176.834 48.9768 177.049 49.6361 177.475 50.0879C177.903 50.5423 178.531 50.7734 179.337 50.7734C180.143 50.7734 180.784 50.5423 181.212 50.0879C181.638 49.6361 181.853 48.9742 181.853 48.1232V44.9319C181.853 44.073 181.638 43.4059 181.212 42.9541C180.784 42.4997 180.154 42.2686 179.337 42.2686ZM180.645 44.9687V48.0864C180.645 48.6196 180.532 49.0162 180.312 49.2658C180.091 49.5074 179.773 49.6256 179.337 49.6256C178.901 49.6256 178.596 49.5074 178.376 49.2684C178.153 49.0162 178.04 48.6196 178.04 48.0864V44.9687C178.04 44.4302 178.153 44.031 178.376 43.7867C178.596 43.5372 178.912 43.4164 179.337 43.4164C179.763 43.4164 180.088 43.5372 180.312 43.7893C180.535 44.0336 180.645 44.4302 180.645 44.9687Z" fill="white"/>
<path d="M174.204 46.3448L176.184 42.7411C176.221 42.665 176.221 42.6019 176.213 42.5547C176.2 42.4575 176.124 42.3682 175.987 42.3682H175.257C175.215 42.3682 175.173 42.376 175.11 42.3997C175.06 42.4233 175.021 42.468 174.992 42.5284L173.151 45.8668H172.659V42.6466C172.659 42.4811 172.554 42.3708 172.397 42.3708H171.714C171.556 42.3708 171.451 42.4811 171.451 42.6466V50.4055C171.451 50.571 171.556 50.6813 171.714 50.6813H172.397C172.554 50.6813 172.659 50.571 172.659 50.4055V47.0251H173.177L175.123 50.5158C175.157 50.5815 175.197 50.6261 175.268 50.6603C175.31 50.6734 175.352 50.6813 175.394 50.6813H176.174C176.342 50.6813 176.392 50.5683 176.394 50.5526C176.434 50.4738 176.434 50.3871 176.392 50.3004L174.206 46.3474L174.204 46.3448Z" fill="white"/>
<path d="M167.722 45.3994H167.12V42.6415C167.12 42.476 167.015 42.3657 166.858 42.3657H166.175C166.017 42.3657 165.912 42.476 165.912 42.6415V50.4004C165.912 50.5659 166.017 50.6762 166.175 50.6762H167.745C168.617 50.6762 169.279 50.4372 169.708 49.9644C170.141 49.4969 170.362 48.814 170.362 47.9393C170.362 47.0647 170.138 46.4606 169.702 46.0429C169.266 45.6148 168.599 45.3994 167.722 45.3994ZM169.153 47.942C169.161 48.504 169.048 48.919 168.82 49.1686C168.594 49.4155 168.221 49.5415 167.711 49.5415H167.12V46.5341H167.711C168.234 46.5341 168.607 46.6418 168.828 46.8519C169.046 47.062 169.156 47.4271 169.156 47.942H169.153Z" fill="white"/>
<path d="M163.602 45.3782H164.285C164.416 45.3782 164.547 45.2889 164.547 45.113C164.623 44.5404 164.571 44.0361 164.39 43.6158C164.214 43.185 163.925 42.8488 163.531 42.623C163.15 42.3892 162.677 42.271 162.128 42.271C161.319 42.271 160.691 42.51 160.266 42.9828C159.84 43.4425 159.625 44.1254 159.625 45.0079V48.0416C159.625 48.9241 159.84 49.6097 160.266 50.0798C160.694 50.5447 161.322 50.7785 162.128 50.7785C162.934 50.7785 163.57 50.5263 164.009 50.0273C164.442 49.523 164.629 48.8269 164.56 47.9549C164.542 47.7448 164.4 47.6712 164.274 47.6712H163.617C163.507 47.6712 163.444 47.7185 163.413 47.7605C163.381 47.8026 163.347 47.8735 163.368 47.9602C163.413 48.4855 163.328 48.9031 163.118 49.2025C162.913 49.4915 162.596 49.6333 162.144 49.6333C161.718 49.6333 161.401 49.5072 161.175 49.2551C160.949 48.9872 160.836 48.5669 160.836 48.0101V45.0499C160.836 44.4931 160.949 44.0781 161.172 43.8181C161.401 43.5528 161.718 43.4241 162.144 43.4241C162.569 43.4241 162.89 43.558 163.095 43.8312C163.305 44.1122 163.389 44.5377 163.342 45.1103C163.342 45.2758 163.447 45.3861 163.604 45.3861L163.602 45.3782Z" fill="white"/>
<path d="M158.707 49.5179H158.449L156.74 42.5942C156.719 42.455 156.611 42.3657 156.466 42.3657H155.516C155.453 42.3657 155.334 42.3867 155.25 42.5338L153.522 49.5153H153.265C153.107 49.5153 153.002 49.6256 153.002 49.7911V52.021C153.002 52.1865 153.107 52.2968 153.265 52.2968H153.948C154.105 52.2968 154.21 52.1865 154.21 52.021V50.6762H157.767V52.021C157.767 52.1865 157.872 52.2968 158.029 52.2968H158.712C158.794 52.2968 158.867 52.2627 158.914 52.1996C158.943 52.1655 158.975 52.1077 158.975 52.021V49.7911C158.975 49.6256 158.87 49.5153 158.712 49.5153L158.707 49.5179ZM155.699 45.3469C155.773 45.037 155.841 44.7323 155.907 44.4328C155.928 44.3488 155.946 44.2621 155.967 44.1781C155.986 44.2595 156.004 44.3409 156.025 44.4223C156.099 44.7218 156.172 45.0264 156.243 45.3338L157.194 49.5179H154.741L155.702 45.3469H155.699Z" fill="white"/>
<path d="M150.731 42.5522C150.681 42.434 150.581 42.3657 150.457 42.3657H149.52C149.381 42.3657 149.275 42.4419 149.236 42.5758L147.229 50.3426C147.193 50.4635 147.224 50.5396 147.258 50.5843C147.285 50.6184 147.345 50.6762 147.461 50.6762H148.18C148.312 50.6762 148.411 50.6 148.451 50.4661L148.871 48.7536H151.093L151.519 50.4687L151.534 50.5107C151.618 50.6578 151.729 50.6788 151.789 50.6788H152.532C152.64 50.6788 152.701 50.6316 152.735 50.5922C152.769 50.5501 152.803 50.4766 152.779 50.3505L150.736 42.5548L150.731 42.5522ZM149.764 45.0921C149.83 44.8216 149.89 44.5563 149.948 44.2963C149.956 44.2647 149.961 44.2358 149.969 44.2043L149.993 44.3146C150.058 44.5747 150.121 44.8373 150.187 45.1052L150.807 47.6057H149.149L149.764 45.0921Z" fill="white"/>
<path d="M146.271 42.3659H145.2C145.076 42.3659 144.977 42.4342 144.921 42.5655L143.542 46.8521L142.148 42.5498C142.098 42.4316 141.998 42.3633 141.875 42.3633H140.803C140.645 42.3633 140.54 42.4736 140.54 42.6364L140.406 50.4006C140.406 50.5661 140.511 50.6764 140.669 50.6764H141.339C141.496 50.6764 141.601 50.5661 141.601 50.4032L141.685 45.3208V44.8428C141.735 44.9951 141.785 45.1475 141.838 45.2998L143.235 49.3815C143.261 49.5102 143.366 49.589 143.506 49.589H143.556C143.697 49.589 143.8 49.5076 143.826 49.3789L145.21 45.3339C145.271 45.1553 145.331 44.9767 145.389 44.7955L145.473 50.398C145.473 50.5635 145.578 50.6738 145.736 50.6738H146.405C146.563 50.6738 146.668 50.5635 146.668 50.3954L146.534 42.6391C146.534 42.4736 146.429 42.3633 146.271 42.3633V42.3659Z" fill="white"/>
<path d="M136.655 42.2686C135.849 42.2686 135.221 42.4997 134.793 42.9541C134.368 43.4059 134.152 44.0704 134.152 44.9319V48.1232C134.152 48.9768 134.368 49.6361 134.793 50.0879C135.221 50.5423 135.849 50.7734 136.655 50.7734C137.462 50.7734 138.1 50.5423 138.531 50.0879C138.956 49.6361 139.172 48.9742 139.172 48.1232V44.9319C139.172 44.073 138.956 43.4059 138.531 42.9541C138.103 42.4997 137.472 42.2686 136.655 42.2686ZM137.964 44.9687V48.0864C137.964 48.6196 137.851 49.0162 137.63 49.2658C137.409 49.5074 137.091 49.6256 136.655 49.6256C136.219 49.6256 135.915 49.5074 135.694 49.2684C135.471 49.0162 135.358 48.6196 135.358 48.0864V44.9687C135.358 44.4302 135.471 44.031 135.694 43.7867C135.915 43.5372 136.23 43.4164 136.655 43.4164C137.081 43.4164 137.407 43.5372 137.63 43.7893C137.853 44.0336 137.964 44.4302 137.964 44.9687Z" fill="white"/>
<path d="M130.677 42.3657H129.167C129.009 42.3657 128.904 42.476 128.904 42.6415V50.4004C128.904 50.5659 129.009 50.6762 129.167 50.6762H129.85C130.007 50.6762 130.113 50.5659 130.113 50.4004V47.6189H130.714C131.531 47.6189 132.156 47.3877 132.579 46.9333C132.997 46.4816 133.207 45.8276 133.207 44.9923C133.207 44.1571 132.994 43.461 132.576 43.025C132.156 42.5864 131.518 42.3657 130.677 42.3657ZM131.998 45.0291C131.998 45.5386 131.893 45.9142 131.688 46.148C131.486 46.3713 131.142 46.4842 130.667 46.4842H130.113V43.4899H130.69C131.142 43.4899 131.473 43.6055 131.675 43.8392C131.888 44.0756 131.998 44.4749 131.998 45.0317V45.0291Z" fill="white"/>
<path d="M127.675 42.3657H124.484C124.36 42.3657 124.234 42.4498 124.234 42.6415V50.4004C124.234 50.5659 124.339 50.6762 124.497 50.6762H125.18C125.338 50.6762 125.443 50.5659 125.443 50.4004V43.524H127.678C127.809 43.524 127.94 43.4347 127.94 43.2377V42.6415C127.94 42.476 127.835 42.3657 127.678 42.3657H127.675Z" fill="white"/>
<path d="M119.779 46.3608C119.997 46.2005 120.178 45.9957 120.32 45.7435C120.519 45.3784 120.619 44.9398 120.619 44.4329C120.619 43.0171 119.849 42.2686 118.394 42.2686C117.646 42.2686 117.071 42.4655 116.692 42.8543C116.319 43.2351 116.143 43.7972 116.17 44.5169C116.17 44.6141 116.209 44.6745 116.243 44.7086L116.267 44.727C116.319 44.7612 116.374 44.7796 116.432 44.7796H117.126C117.252 44.7796 117.378 44.6955 117.378 44.4985C117.362 44.1072 117.43 43.8261 117.58 43.6633C117.725 43.4978 117.982 43.4164 118.344 43.4164C118.725 43.4164 119.001 43.5057 119.164 43.6817C119.327 43.8524 119.411 44.1439 119.411 44.5537C119.411 45.0212 119.311 45.3679 119.111 45.5886C118.925 45.7961 118.615 45.8985 118.187 45.8985H117.504C117.38 45.8985 117.254 45.9825 117.254 46.1743V46.7705C117.254 46.9596 117.38 47.0463 117.504 47.0463H118.308C118.788 47.0463 119.13 47.1461 119.327 47.3431C119.526 47.5296 119.626 47.8448 119.626 48.2808C119.626 48.7772 119.526 49.1318 119.332 49.3341C119.138 49.5284 118.809 49.6256 118.352 49.6256C117.979 49.6256 117.709 49.5389 117.549 49.3735C117.394 49.2027 117.317 48.9269 117.323 48.5487C117.323 48.3491 117.197 48.2624 117.073 48.2624H116.38C116.311 48.2624 116.248 48.2887 116.201 48.336C116.154 48.3832 116.128 48.4515 116.128 48.5329C116.101 49.2684 116.277 49.8331 116.65 50.214C117.023 50.5869 117.591 50.7734 118.339 50.7734C119.177 50.7734 119.807 50.5607 120.212 50.1378C120.624 49.7175 120.832 49.0845 120.832 48.2545C120.832 47.7187 120.716 47.2774 120.488 46.9439C120.314 46.6838 120.075 46.4868 119.771 46.3555L119.779 46.3608Z" fill="white"/>
<path d="M112 46.2583C112.239 46.0955 112.428 45.8985 112.565 45.6726C112.748 45.3548 112.843 44.9582 112.843 44.4933C112.843 43.7893 112.641 43.2509 112.239 42.8963C111.845 42.5443 111.233 42.3657 110.424 42.3657H108.864C108.698 42.3657 108.588 42.476 108.588 42.6415V50.4004C108.588 50.5659 108.698 50.6762 108.864 50.6762H110.545C111.396 50.6762 112.042 50.4766 112.462 50.0826C112.893 49.6781 113.111 49.0766 113.111 48.2939C113.111 47.7108 112.987 47.2328 112.743 46.8756C112.562 46.5998 112.312 46.3949 112.002 46.2583H112ZM111.348 45.5255C111.17 45.7172 110.881 45.8144 110.484 45.8144H109.796V43.5004H110.411C110.86 43.5004 111.178 43.5871 111.362 43.7631C111.543 43.9233 111.635 44.2096 111.635 44.6141C111.635 45.0186 111.54 45.3285 111.351 45.5255H111.348ZM111.9 48.2204C111.9 48.6905 111.795 49.032 111.587 49.2316C111.377 49.4286 111.02 49.5284 110.532 49.5284H109.796V46.9228H110.568C111.033 46.9228 111.375 47.0253 111.587 47.2301C111.798 47.4324 111.903 47.766 111.903 48.2204H111.9Z" fill="white"/>
<path d="M106.826 42.3657H106.144C105.986 42.3657 105.881 42.476 105.881 42.6415V50.4004C105.881 50.5659 105.986 50.6762 106.144 50.6762H106.826C106.984 50.6762 107.089 50.5659 107.089 50.4004V42.6415C107.089 42.476 106.984 42.3657 106.826 42.3657Z" fill="white"/>
<path d="M104.698 49.5179H104.315V42.6415C104.315 42.476 104.209 42.3657 104.052 42.3657H103.369C103.211 42.3657 103.106 42.476 103.106 42.6415V49.5179H100.708V42.6415C100.708 42.476 100.603 42.3657 100.446 42.3657H99.7627C99.6051 42.3657 99.5 42.476 99.5 42.6415V50.4004C99.5 50.5659 99.6051 50.6762 99.7627 50.6762H103.752V52.021C103.752 52.1865 103.857 52.2968 104.015 52.2968H104.698C104.856 52.2968 104.961 52.1865 104.961 52.021V49.7911C104.961 49.6256 104.856 49.5153 104.698 49.5153V49.5179Z" fill="white"/>
<path d="M97.244 46.2583C97.483 46.0955 97.6721 45.8985 97.8087 45.6726C97.9925 45.3574 98.0871 44.9582 98.0871 44.4933C98.0871 43.7893 97.8849 43.2509 97.483 42.8963C97.089 42.5443 96.477 42.3657 95.668 42.3657H94.1078C93.9424 42.3657 93.832 42.476 93.832 42.6415V50.4004C93.832 50.5659 93.9424 50.6762 94.1078 50.6762H95.7888C96.6398 50.6762 97.286 50.4766 97.7036 50.0826C98.1344 49.6781 98.3524 49.0766 98.3524 48.2939C98.3524 47.7108 98.2289 47.2328 97.9847 46.8756C97.8034 46.5998 97.5539 46.3949 97.244 46.2583ZM96.5926 45.5255C96.414 45.7172 96.125 45.8144 95.7258 45.8144H95.0376V43.5004H95.6523C96.1014 43.5004 96.4192 43.5871 96.6031 43.7631C96.7843 43.9233 96.8762 44.2122 96.8762 44.6141C96.8762 45.0159 96.7817 45.3285 96.5926 45.5255ZM95.0403 46.9255H95.8125C96.2774 46.9255 96.6188 47.0279 96.8316 47.2328C97.0417 47.435 97.1468 47.7686 97.1468 48.223C97.1468 48.6774 97.0417 49.0346 96.8342 49.2342C96.6241 49.4312 96.2669 49.531 95.7783 49.531H95.0429V46.9255H95.0403Z" fill="white"/>
<path d="M92.0686 42.3657H91.3857C91.2281 42.3657 91.123 42.476 91.123 42.6415V50.4004C91.123 50.5659 91.2281 50.6762 91.3857 50.6762H92.0686C92.2262 50.6762 92.3313 50.5659 92.3313 50.4004V42.6415C92.3313 42.476 92.2262 42.3657 92.0686 42.3657Z" fill="white"/>
<path d="M90.3571 50.3057L88.445 46.4183L90.2442 42.7464C90.2993 42.644 90.3046 42.5547 90.2599 42.4785C90.231 42.4286 90.168 42.3682 90.0367 42.3682H89.2461C89.1331 42.3682 89.0412 42.4286 88.986 42.5363L88.0825 44.43L87.812 45.042C87.7778 45.1261 87.741 45.2101 87.7069 45.2942L87.6071 45.0578C87.5257 44.8529 87.439 44.6507 87.347 44.451L86.4251 42.5363C86.3831 42.4312 86.2912 42.3708 86.173 42.3708H85.3456C85.2589 42.3708 85.1827 42.4102 85.1355 42.4811L85.1145 42.5231C85.0934 42.5862 85.0987 42.6571 85.1355 42.7464L86.9504 46.4L85.012 50.3162C84.9647 50.4186 84.9647 50.5079 85.012 50.5815C85.0357 50.6209 85.0987 50.6839 85.2248 50.6839H86.0416C86.1572 50.6839 86.2544 50.6156 86.3017 50.5053L87.2919 48.4539C87.3812 48.2491 87.4705 48.0416 87.5598 47.8341C87.6018 47.7395 87.6412 47.6476 87.6806 47.5557C87.7174 47.645 87.7542 47.7369 87.7936 47.8315C87.8829 48.0442 87.9774 48.257 88.0772 48.4723L89.0517 50.5211C89.1042 50.6261 89.1988 50.6865 89.3091 50.6865H90.1496C90.3151 50.6865 90.3676 50.5736 90.3834 50.5237C90.4018 50.4528 90.3939 50.3792 90.3597 50.3136L90.3571 50.3057Z" fill="white"/>
<path d="M84.9635 50.3479L82.9201 42.5522C82.8701 42.434 82.7703 42.3657 82.6469 42.3657H81.7092C81.57 42.3657 81.4649 42.4419 81.4281 42.5758L79.4188 50.3426C79.382 50.4635 79.4136 50.5396 79.4477 50.5843C79.474 50.6184 79.5344 50.6762 79.65 50.6762H80.3696C80.501 50.6762 80.6008 50.6 80.6402 50.4661L81.0604 48.7536H83.2825L83.708 50.4687L83.7238 50.5107C83.8026 50.65 83.905 50.6788 83.9759 50.6788H84.7193C84.8269 50.6788 84.8874 50.6316 84.9215 50.5922C84.9557 50.5501 84.9898 50.4766 84.9662 50.3505L84.9635 50.3479ZM81.9561 45.0921C82.0218 44.8242 82.0822 44.5589 82.14 44.2963C82.1478 44.2647 82.1531 44.2358 82.161 44.2043L82.1846 44.3146C82.2503 44.5747 82.3133 44.8373 82.379 45.1052L82.9988 47.6057H81.3415L81.9561 45.0921Z" fill="white"/>
<path d="M78.529 43.5344C78.2769 43.0905 77.9144 42.7648 77.4521 42.5626C77.0713 42.3971 76.6247 42.2999 76.1257 42.2763V41.7536C76.1257 41.554 75.9996 41.4673 75.8762 41.4673H75.1827C75.0514 41.4673 74.9201 41.5566 74.9201 41.7536V42.2763C74.421 42.3025 73.9771 42.4023 73.5937 42.5757C73.1314 42.7753 72.7689 43.1036 72.5168 43.5502C72.2777 43.9862 72.1543 44.564 72.1543 45.2627V47.7369C72.1543 48.4671 72.2751 49.0634 72.5168 49.5099C72.7689 49.9616 73.1261 50.2926 73.5832 50.4948C73.964 50.6577 74.4132 50.7496 74.9201 50.7706V51.2933C74.9201 51.4929 75.0514 51.5796 75.1827 51.5796H75.8762C76.0022 51.5796 76.1257 51.4903 76.1257 51.2933V50.7706C76.63 50.747 77.0739 50.6551 77.4495 50.4948C77.9118 50.3031 78.2769 49.9748 78.529 49.5204C78.7785 49.0765 78.902 48.475 78.902 47.7343V45.2601C78.902 44.5509 78.7759 43.9704 78.5264 43.5344H78.529ZM77.4836 44.1543C77.6255 44.4301 77.6964 44.8135 77.6964 45.2968V47.6975C77.6964 48.2202 77.6255 48.63 77.481 48.9189C77.3523 49.1921 77.1606 49.3759 76.8979 49.4836C76.6799 49.5755 76.412 49.6307 76.1047 49.6465V43.3978C76.4199 43.4162 76.6878 43.474 76.9084 43.5712C77.1658 43.6867 77.3549 43.8759 77.4863 44.1543H77.4836ZM73.5648 48.9163C73.4308 48.63 73.3625 48.2202 73.3625 47.6949V45.2942C73.3625 44.8109 73.4308 44.4248 73.5648 44.149C73.704 43.8732 73.8957 43.6841 74.1531 43.5685C74.3738 43.4714 74.6417 43.4136 74.9464 43.3952V49.6412C74.6417 49.6228 74.3738 49.5677 74.1531 49.4784C73.8957 49.3707 73.704 49.1868 73.57 48.9136L73.5648 48.9163Z" fill="white"/>
<path d="M139.102 33.8737C138.936 33.8737 138.894 33.7844 138.97 33.6084L140.525 30.1965C140.651 29.918 140.785 29.6344 140.922 29.3428C141.061 29.0408 141.2 28.7492 141.339 28.4708V28.434C140.759 28.1687 140.315 27.7774 140.013 27.2599C139.711 26.7425 139.559 26.0859 139.559 25.29C139.559 24.4941 139.698 23.7745 139.976 23.2045C140.268 22.6372 140.704 22.2064 141.284 21.9148C141.878 21.6128 142.624 21.4604 143.522 21.4604H146.65C146.79 21.4604 146.858 21.5287 146.858 21.6679V33.6662C146.858 33.8054 146.79 33.8737 146.65 33.8737H144.925C144.799 33.8737 144.736 33.8054 144.736 33.6662V28.87H143.315L141.229 33.7213C141.216 33.7712 141.184 33.8106 141.135 33.8343C141.098 33.8605 141.053 33.871 141.001 33.871H139.104L139.102 33.8737ZM143.593 27.1444H144.73V23.3358H143.556C142.913 23.3358 142.437 23.5013 142.135 23.8296C141.844 24.1448 141.699 24.6439 141.699 25.3268C141.699 25.9703 141.844 26.4378 142.135 26.7294C142.437 27.0078 142.926 27.147 143.596 27.147L143.593 27.1444Z" fill="white"/>
<path d="M135.697 33.8737C135.571 33.8737 135.508 33.8054 135.508 33.6662V21.6679C135.508 21.5287 135.571 21.4604 135.697 21.4604H137.441C137.567 21.4604 137.63 21.5287 137.63 21.6679V33.6662C137.63 33.8054 137.567 33.8737 137.441 33.8737H135.697Z" fill="white"/>
<path d="M132.267 36.4712C132.141 36.4712 132.078 36.4029 132.078 36.2637V33.8761H125.388C125.262 33.8761 125.199 33.8078 125.199 33.6686V21.6704C125.199 21.5312 125.262 21.4629 125.388 21.4629H127.132C127.258 21.4629 127.321 21.5312 127.321 21.6704V31.9429H130.959V21.6704C130.959 21.5312 131.022 21.4629 131.148 21.4629H132.892C133.019 21.4629 133.082 21.5312 133.082 21.6704V31.9429H133.954C134.093 31.9429 134.161 32.0191 134.161 32.1715V36.2663C134.161 36.4055 134.093 36.4738 133.954 36.4738H132.267V36.4712Z" fill="white"/>
<path d="M124.164 33.6478L121.035 21.6312C120.985 21.5182 120.901 21.4604 120.788 21.4604H118.495C118.382 21.4604 118.306 21.5182 118.267 21.6312L115.139 33.6478C115.102 33.8001 115.152 33.8763 115.291 33.8763H117.166C117.292 33.8763 117.363 33.8185 117.374 33.7056L117.931 31.2234H121.327L121.884 33.7056C121.92 33.8185 121.991 33.8763 122.091 33.8763H124.006C124.145 33.8763 124.195 33.8001 124.158 33.6478H124.164ZM118.335 29.44L119.102 26.0281C119.205 25.5973 119.291 25.1744 119.367 24.7594C119.457 24.3287 119.538 23.9058 119.614 23.4908H119.651C119.727 23.9084 119.803 24.3313 119.88 24.7594C119.969 25.1771 120.063 25.5999 120.163 26.0281L120.93 29.44H118.335Z" fill="white"/>
<path d="M112.172 33.8737C112.045 33.8737 111.982 33.8054 111.982 33.6662V21.6679C111.982 21.5287 112.045 21.4604 112.172 21.4604H113.916C114.042 21.4604 114.105 21.5287 114.105 21.6679V33.6662C114.105 33.8054 114.042 33.8737 113.916 33.8737H112.172Z" fill="white"/>
<path d="M108.742 36.4712C108.616 36.4712 108.553 36.4029 108.553 36.2637V33.8761H101.863C101.737 33.8761 101.674 33.8078 101.674 33.6686V21.6704C101.674 21.5312 101.737 21.4629 101.863 21.4629H103.607C103.733 21.4629 103.796 21.5312 103.796 21.6704V31.9429H107.434V21.6704C107.434 21.5312 107.497 21.4629 107.623 21.4629H109.367C109.493 21.4629 109.556 21.5312 109.556 21.6704V31.9429H110.428C110.567 31.9429 110.636 32.0191 110.636 32.1715V36.2663C110.636 36.4055 110.567 36.4738 110.428 36.4738H108.742V36.4712Z" fill="white"/>
<path d="M95.6928 34.0258C94.3664 34.0258 93.3552 33.6712 92.6591 32.9647C91.9762 32.245 91.6348 31.1891 91.6348 29.7997V25.5551C91.6348 24.1525 91.9762 23.0966 92.6591 22.3901C93.3525 21.6704 94.3638 21.3105 95.6928 21.3105C97.0219 21.3105 98.062 21.6704 98.7449 22.3901C99.441 23.0966 99.7877 24.1525 99.7877 25.5551V29.7997C99.7877 31.1891 99.441 32.245 98.7449 32.9647C98.062 33.6712 97.0455 34.0258 95.6928 34.0258ZM95.6928 32.111C96.3495 32.111 96.8433 31.9141 97.1716 31.5227C97.4999 31.1313 97.6654 30.5246 97.6654 29.7025V25.647C97.6654 24.8144 97.5025 24.1998 97.1716 23.8084C96.8433 23.4171 96.3495 23.2201 95.6928 23.2201C95.0362 23.2201 94.5818 23.4171 94.2535 23.8084C93.9251 24.1998 93.7597 24.8118 93.7597 25.647V29.7025C93.7597 30.5246 93.9225 31.1287 94.2535 31.5227C94.5818 31.9141 95.0625 32.111 95.6928 32.111Z" fill="white"/>
<path d="M86.0691 34.026C84.7558 34.026 83.7498 33.6714 83.0564 32.9649C82.3604 32.2452 82.0137 31.1578 82.0137 29.7053V25.6498C82.0137 24.2105 82.3604 23.1283 83.0564 22.4086C83.7525 21.6758 84.7558 21.3081 86.0691 21.3081C86.9779 21.3081 87.7501 21.4841 88.3805 21.8387C89.0109 22.1933 89.4732 22.6976 89.7647 23.3542C90.0563 23.9977 90.1429 24.7621 90.03 25.6472C90.0169 25.7864 89.9538 25.8547 89.8409 25.8547H88.0968C87.9576 25.8547 87.8946 25.7864 87.9077 25.6472C87.9708 24.8645 87.8499 24.263 87.5479 23.8454C87.2458 23.4278 86.7573 23.2203 86.0875 23.2203C85.4177 23.2203 84.9581 23.4225 84.6271 23.827C84.2988 24.2184 84.1333 24.8435 84.1333 25.7024V29.6055C84.1333 30.4775 84.2962 31.1158 84.6271 31.5202C84.9686 31.9116 85.4545 32.1086 86.0875 32.1086C86.7835 32.1086 87.2747 31.888 87.5663 31.4441C87.8578 31.0028 87.976 30.4145 87.9261 29.6816C87.913 29.5293 87.9708 29.4531 88.0968 29.4531H89.8409C89.967 29.4531 90.0379 29.5346 90.0484 29.7C90.1613 31.0265 89.8724 32.0823 89.1764 32.8651C88.4803 33.6346 87.4454 34.0208 86.0691 34.0208V34.026Z" fill="white"/>
<path d="M81.3511 33.6478L78.2228 21.6312C78.1729 21.5182 78.0888 21.4604 77.9759 21.4604H75.6829C75.57 21.4604 75.4938 21.5182 75.4544 21.6312L72.3261 33.6478C72.2894 33.8001 72.3393 33.8763 72.4785 33.8763H74.3538C74.4799 33.8763 74.5508 33.8185 74.5613 33.7056L75.1182 31.2234H78.5144L79.0712 33.7056C79.108 33.8185 79.1789 33.8763 79.2787 33.8763H81.1935C81.3327 33.8763 81.3826 33.8001 81.3458 33.6478H81.3511ZM75.5227 29.44L76.2896 26.0281C76.3921 25.5973 76.4787 25.1744 76.5549 24.7594C76.6442 24.3287 76.7256 23.9058 76.8018 23.4908H76.8386C76.9148 23.9084 76.9909 24.3313 77.0671 24.7594C77.1564 25.1771 77.251 25.5999 77.3508 26.0281L78.1177 29.44H75.5227Z" fill="white"/>
<path d="M184.577 16.4544L181.448 4.43782C181.399 4.32487 181.314 4.26709 181.202 4.26709H178.909C178.796 4.26709 178.719 4.32487 178.68 4.43782L175.552 16.4544C175.512 16.6068 175.565 16.6829 175.704 16.6829H177.58C177.706 16.6829 177.774 16.6251 177.787 16.5122L178.344 14.0301H181.74L182.297 16.5122C182.334 16.6251 182.405 16.6829 182.504 16.6829H184.419C184.558 16.6829 184.608 16.6068 184.571 16.4544H184.577ZM178.751 12.2466L179.518 8.83471C179.62 8.40395 179.707 7.98107 179.783 7.56607C179.873 7.13531 179.954 6.71244 180.03 6.29744H180.067C180.143 6.71506 180.219 7.13794 180.295 7.56607C180.385 7.9837 180.479 8.40658 180.579 8.83471L181.346 12.2466H178.751Z" fill="white"/>
<path d="M167.275 16.6827C167.149 16.6827 167.086 16.6145 167.086 16.4752V4.47703C167.086 4.33782 167.149 4.26953 167.275 4.26953H169.019C169.145 4.26953 169.208 4.33782 169.208 4.47703V9.51744H170.099L172.675 4.40086C172.702 4.35096 172.733 4.31944 172.77 4.3063C172.82 4.28004 172.864 4.26953 172.904 4.26953H174.779C174.855 4.26953 174.9 4.2958 174.913 4.3457C174.926 4.39561 174.913 4.45865 174.876 4.53482L171.958 10.203L175.236 16.4201C175.276 16.4963 175.281 16.5593 175.255 16.6092C175.228 16.6591 175.178 16.6854 175.102 16.6854H173.093C173.043 16.6854 172.998 16.6801 172.959 16.667C172.922 16.6539 172.891 16.6171 172.864 16.554L170.135 11.3981H169.206V16.4779C169.206 16.6171 169.143 16.6854 169.016 16.6854H167.272L167.275 16.6827Z" fill="white"/>
<path d="M158.502 16.6827C158.376 16.6827 158.312 16.6145 158.312 16.4752V4.47703C158.312 4.33782 158.376 4.26953 158.502 4.26953H160.246C160.372 4.26953 160.435 4.33782 160.435 4.47703V8.66643H161.459C162.835 8.66643 163.855 8.99475 164.511 9.65139C165.181 10.308 165.515 11.2746 165.515 12.5511C165.515 13.8907 165.186 14.9151 164.53 15.6216C163.886 16.3282 162.849 16.6827 161.422 16.6827H158.504H158.502ZM160.435 14.7864H161.401C162.108 14.7864 162.62 14.6104 162.935 14.2558C163.25 13.8881 163.403 13.3207 163.39 12.5511C163.39 11.8052 163.232 11.2746 162.917 10.9594C162.602 10.6442 162.095 10.4866 161.401 10.4866H160.435V14.789V14.7864Z" fill="white"/>
<path d="M152.46 16.8351C151.146 16.8351 150.14 16.4805 149.447 15.7739C148.751 15.0543 148.404 13.9669 148.404 12.5144V8.45892C148.404 7.01956 148.751 5.93741 149.447 5.21772C150.143 4.48491 151.146 4.11719 152.46 4.11719C153.369 4.11719 154.141 4.29317 154.771 4.64776C155.404 5.00234 155.864 5.50665 156.155 6.16329C156.447 6.80681 156.534 7.57114 156.421 8.4563C156.407 8.59551 156.344 8.6638 156.232 8.6638H154.487C154.348 8.6638 154.285 8.59551 154.298 8.4563C154.361 7.67358 154.241 7.07209 153.939 6.65446C153.636 6.23684 153.148 6.02934 152.478 6.02934C151.808 6.02934 151.346 6.23158 151.018 6.63608C150.689 7.02744 150.524 7.65256 150.524 8.51146V12.4146C150.524 13.2866 150.687 13.9248 151.018 14.3293C151.359 14.7207 151.845 14.9177 152.478 14.9177C153.174 14.9177 153.665 14.6971 153.957 14.2532C154.248 13.8119 154.367 13.2235 154.317 12.4907C154.304 12.3384 154.361 12.2622 154.487 12.2622H156.232C156.358 12.2622 156.428 12.3436 156.439 12.5091C156.552 13.8355 156.263 14.8914 155.567 15.6741C154.871 16.4437 153.836 16.8298 152.46 16.8298V16.8351Z" fill="white"/>
<path d="M138.679 16.6827C138.553 16.6827 138.49 16.6145 138.49 16.4752V4.47703C138.49 4.33782 138.553 4.26953 138.679 4.26953H140.423C140.549 4.26953 140.613 4.33782 140.613 4.47703V9.38611H144.366V4.47703C144.366 4.33782 144.434 4.26953 144.573 4.26953H146.299C146.438 4.26953 146.507 4.33782 146.507 4.47703V16.4752C146.507 16.6145 146.438 16.6827 146.299 16.6827H144.573C144.434 16.6827 144.366 16.6145 144.366 16.4752V11.3009H140.613V16.4752C140.613 16.6145 140.549 16.6827 140.423 16.6827H138.679Z" fill="white"/>
<path d="M134.476 16.6827C134.35 16.6827 134.287 16.6144 134.287 16.4752V4.47702C134.287 4.33781 134.35 4.26952 134.476 4.26952H136.22C136.346 4.26952 136.409 4.33781 136.409 4.47702V16.4752C136.409 16.6144 136.346 16.6827 136.22 16.6827H134.476ZM133.888 3.15059C133.533 3.15059 133.263 3.06129 133.074 2.88531C132.871 2.6962 132.771 2.43616 132.771 2.10784V1.86094C132.771 1.51949 132.874 1.25946 133.074 1.08348C133.263 0.894362 133.536 0.799805 133.888 0.799805C134.24 0.799805 134.513 0.894362 134.702 1.08348C134.891 1.25946 134.986 1.51949 134.986 1.86094V2.10784C134.986 2.43616 134.891 2.6962 134.702 2.88531C134.513 3.06129 134.24 3.15059 133.888 3.15059ZM136.882 3.15059C136.527 3.15059 136.252 3.06129 136.049 2.88531C135.86 2.6962 135.766 2.43616 135.766 2.10784V1.86094C135.766 1.51949 135.86 1.25946 136.049 1.08348C136.252 0.894362 136.53 0.799805 136.882 0.799805C137.234 0.799805 137.52 0.894362 137.696 1.08348C137.885 1.25946 137.98 1.51949 137.98 1.86094V2.10784C137.98 2.43616 137.885 2.6962 137.696 2.88531C137.52 3.06129 137.247 3.15059 136.882 3.15059Z" fill="white"/>
<path d="M133.253 16.4544L130.124 4.43782C130.075 4.32487 129.991 4.26709 129.878 4.26709H127.585C127.472 4.26709 127.395 4.32487 127.359 4.43782L124.23 16.4544C124.194 16.6068 124.244 16.6829 124.383 16.6829H126.258C126.384 16.6829 126.455 16.6251 126.466 16.5122L127.022 14.0301H130.419L130.975 16.5122C131.012 16.6251 131.083 16.6829 131.183 16.6829H133.098C133.237 16.6829 133.287 16.6068 133.25 16.4544H133.253ZM127.427 12.2466L128.194 8.83471C128.294 8.40395 128.383 7.98107 128.459 7.56607C128.549 7.13531 128.63 6.71244 128.706 6.29744H128.743C128.819 6.71506 128.895 7.13794 128.971 7.56607C129.061 7.9837 129.155 8.40658 129.255 8.83471L130.022 12.2466H127.427Z" fill="white"/>
<path d="M117.558 16.6827C117.432 16.6827 117.369 16.6145 117.369 16.4752V4.47703C117.369 4.33782 117.432 4.26953 117.558 4.26953H120.382C121.745 4.26953 122.751 4.60311 123.395 5.27288C124.038 5.94266 124.361 6.94602 124.361 8.28557C124.361 9.62513 124.033 10.5786 123.376 11.2615C122.719 11.9444 121.735 12.2859 120.419 12.2859H119.489V16.4752C119.489 16.6145 119.426 16.6827 119.3 16.6827H117.556H117.558ZM119.491 10.4105H120.363C121.007 10.4105 121.482 10.2397 121.784 9.89829C122.086 9.55684 122.239 9.03152 122.239 8.32497C122.239 7.55538 122.086 6.99855 121.784 6.65709C121.482 6.31564 121.015 6.14491 120.382 6.14491H119.491V10.4105Z" fill="white"/>
<path d="M108.324 16.6827C108.198 16.6827 108.135 16.6145 108.135 16.4752V4.47703C108.135 4.33782 108.198 4.26953 108.324 4.26953H110.068C110.194 4.26953 110.257 4.33782 110.257 4.47703V9.51744H111.147L113.724 4.40086C113.75 4.35096 113.782 4.31944 113.819 4.3063C113.869 4.28004 113.913 4.26953 113.953 4.26953H115.828C115.904 4.26953 115.949 4.2958 115.962 4.3457C115.975 4.39561 115.962 4.45865 115.925 4.53482L113.007 10.203L116.285 16.4201C116.322 16.4963 116.33 16.5593 116.303 16.6092C116.277 16.6591 116.227 16.6854 116.151 16.6854H114.142C114.092 16.6854 114.047 16.6801 114.008 16.667C113.971 16.6539 113.94 16.6171 113.913 16.554L111.184 11.3981H110.254V16.4779C110.254 16.6171 110.191 16.6854 110.065 16.6854H108.321L108.324 16.6827Z" fill="white"/>
<path d="M100.161 16.6827C100.098 16.6827 100.048 16.6565 100.009 16.6066C99.9824 16.5567 99.9824 16.4936 100.009 16.4175L101.582 12.4382L98.4748 4.53482C98.4485 4.45865 98.4485 4.39561 98.4748 4.3457C98.5115 4.2958 98.5641 4.26953 98.6271 4.26953H100.636C100.736 4.26953 100.807 4.31944 100.844 4.42187L102.094 8.09908C102.207 8.45367 102.315 8.80038 102.417 9.14184C102.52 9.47016 102.614 9.81687 102.701 10.1846H102.738C102.84 9.81949 102.94 9.46491 103.04 9.12345C103.153 8.782 103.26 8.44054 103.363 8.09908L104.652 4.42187C104.666 4.32206 104.734 4.26953 104.86 4.26953H106.851C106.914 4.26953 106.959 4.2958 106.982 4.3457C107.009 4.39561 107.009 4.45339 106.982 4.51643L102.262 16.533C102.236 16.6328 102.16 16.6854 102.034 16.6854H100.158L100.161 16.6827Z" fill="white"/>
<path d="M91.2379 16.6827C91.1119 16.6827 91.0488 16.6145 91.0488 16.4752V4.47703C91.0488 4.33782 91.1119 4.26953 91.2379 4.26953H97.1714C97.2975 4.26953 97.3605 4.33782 97.3605 4.47703V5.97418C97.3605 6.11339 97.2975 6.18168 97.1714 6.18168H93.1711V9.48067H96.8299C96.956 9.48067 97.019 9.54896 97.019 9.68817V11.0908C97.019 11.23 96.956 11.2983 96.8299 11.2983H93.1711V14.7653H97.1714C97.2975 14.7653 97.3605 14.8336 97.3605 14.9728V16.47C97.3605 16.6092 97.2975 16.6775 97.1714 16.6775H91.2379V16.6827Z" fill="white"/>
<path d="M85.2 16.8351C83.8867 16.8351 82.8807 16.4805 82.1873 15.7739C81.4912 15.0543 81.1445 13.9669 81.1445 12.5144V8.45892C81.1445 7.01956 81.4912 5.93741 82.1873 5.21772C82.8807 4.48491 83.8867 4.11719 85.2 4.11719C86.1088 4.11719 86.881 4.29317 87.5114 4.64776C88.1417 5.00234 88.604 5.50665 88.8956 6.16329C89.1871 6.80681 89.2738 7.57114 89.1609 8.4563C89.1477 8.59551 89.0847 8.6638 88.9717 8.6638H87.2277C87.0885 8.6638 87.0254 8.59551 87.0386 8.4563C87.1016 7.67358 86.9808 7.07209 86.6787 6.65446C86.3767 6.23684 85.8881 6.02934 85.2184 6.02934C84.5486 6.02934 84.0889 6.23158 83.758 6.63608C83.4297 7.02744 83.2642 7.65256 83.2642 8.51146V12.4146C83.2642 13.2866 83.427 13.9248 83.758 14.3293C84.0994 14.7207 84.5854 14.9177 85.2184 14.9177C85.9144 14.9177 86.4056 14.6971 86.6971 14.2532C86.9887 13.8119 87.1069 13.2235 87.057 12.4907C87.0438 12.3384 87.1016 12.2622 87.2277 12.2622H88.9717C89.0978 12.2622 89.1687 12.3436 89.1792 12.5091C89.2922 13.8355 89.0033 14.8914 88.3072 15.6741C87.6112 16.4437 86.5763 16.8298 85.2 16.8298V16.8351Z" fill="white"/>
<path d="M72.5259 16.6827C72.3866 16.6827 72.3184 16.6145 72.3184 16.4752V4.47703C72.3184 4.33782 72.3866 4.26953 72.5259 4.26953H75.5018C76.7783 4.26953 77.7265 4.52956 78.3437 5.047C78.9636 5.5513 79.2735 6.31564 79.2735 7.34C79.2735 8.03605 79.1343 8.60339 78.8559 9.04465C78.5906 9.47541 78.1678 9.82737 77.5873 10.1058V10.1426C78.2833 10.3185 78.806 10.66 79.1606 11.1669C79.5283 11.6607 79.7096 12.3174 79.7096 13.1369C79.7096 14.3503 79.376 15.246 78.7036 15.8291C78.0469 16.3965 77.0094 16.6827 75.5963 16.6827H72.5259ZM74.4406 14.8835H75.6357C76.3055 14.8835 76.7993 14.7312 77.1145 14.4291C77.4297 14.1271 77.5873 13.6464 77.5873 12.9898C77.5873 12.3699 77.4297 11.9103 77.1145 11.6056C76.7993 11.2904 76.3055 11.1328 75.6357 11.1328H74.4406V14.8862V14.8835ZM74.4406 9.48067H75.5018C76.0717 9.48067 76.4867 9.3362 76.752 9.04465C77.0304 8.7426 77.1696 8.29871 77.1696 7.71823C77.1696 7.13776 77.0304 6.72013 76.752 6.46798C76.4736 6.20269 76.0245 6.06874 75.4072 6.06874H74.4406V9.48067Z" fill="white"/>
<mask id="mask0_2009_10010" style="mask-type:luminance" maskUnits="userSpaceOnUse" x="0" y="4" width="30" height="30">
<path d="M29.6804 4.18018H0V33.8605H29.6804V4.18018Z" fill="white"/>
</mask>
<g mask="url(#mask0_2009_10010)">
<path d="M29.6804 4.18018H0V33.8605H29.6804V4.18018Z" fill="white"/>
<path d="M6.45146 34.1966C6.76402 29.8417 10.4071 26.3904 14.8408 26.3904C19.2744 26.3904 22.9175 29.8391 23.2301 34.1966H26.621C26.3032 27.9742 21.1419 23.0073 14.8408 23.0073C8.53959 23.0073 3.37574 27.9716 3.06055 34.1966H6.45146Z" fill="#1771DE"/>
<path d="M14.8396 21.1006C11.5722 21.1006 8.91406 18.4425 8.91406 15.1751C8.91406 11.9076 11.5722 9.24951 14.8396 9.24951C18.1071 9.24951 20.7626 11.9076 20.7626 15.1751C20.7626 18.4425 18.1045 21.1006 14.8396 21.1006ZM14.8396 12.1519C13.1717 12.1519 11.8164 13.5098 11.8164 15.1751C11.8164 16.8403 13.1744 18.1983 14.8396 18.1983C16.5049 18.1983 17.8628 16.8403 17.8628 15.1751C17.8628 13.5098 16.5049 12.1519 14.8396 12.1519Z" fill="#1771DE"/>
</g>
<path d="M62.321 4.18018H32.6406V33.8605H62.321V4.18018Z" fill="white"/>
<path d="M52.9763 29.6684C51.6578 29.6684 50.3366 29.1667 49.3306 28.1607L47.4789 26.309L45.6272 28.1607C43.6178 30.1701 40.3477 30.1701 38.3384 28.1607C37.3639 27.1863 36.8281 25.894 36.8281 24.515C36.8281 23.1361 37.3639 21.8438 38.3384 20.8694L40.1901 19.0176L38.341 17.1685C37.3666 16.194 36.8308 14.9018 36.8308 13.5228C36.8308 12.1439 37.3666 10.8516 38.341 9.87712C40.3504 7.86778 43.6205 7.86778 45.6298 9.87712L47.4789 11.7262L49.328 9.87712C51.3374 7.86778 54.6074 7.86778 56.6168 9.87712C57.5912 10.8516 58.1271 12.1439 58.1271 13.5228C58.1271 14.9018 57.5912 16.194 56.6168 17.1685L54.7677 19.0176L56.6194 20.8694C57.5939 21.8438 58.1297 23.1361 58.1297 24.515C58.1297 25.894 57.5939 27.1863 56.6194 28.1607C55.6134 29.1667 54.2949 29.6684 52.9737 29.6684H52.9763ZM49.2755 24.5177L51.1246 26.3668C52.1437 27.3859 53.8037 27.3859 54.8254 26.3668C55.3192 25.873 55.5924 25.2163 55.5924 24.5177C55.5924 23.819 55.3192 23.1624 54.8254 22.6686L52.9763 20.8194L49.2755 24.5203V24.5177ZM41.9841 20.8168L40.135 22.6659C39.6412 23.1597 39.368 23.8164 39.368 24.515C39.368 25.2137 39.6412 25.8704 40.135 26.3642C41.1541 27.3833 42.8141 27.3833 43.8358 26.3642L45.685 24.515L41.9841 20.8142V20.8168ZM43.7781 19.0229L47.4789 22.7237L51.1798 19.0229L47.4789 15.322L43.7781 19.0229ZM41.9841 10.912C41.3143 10.912 40.6445 11.1668 40.135 11.6763C39.6412 12.1701 39.368 12.8268 39.368 13.5254C39.368 14.2241 39.6412 14.8808 40.135 15.3745L41.9841 17.2237L45.685 13.5228L43.8358 11.6737C43.3263 11.1641 42.6565 10.9094 41.9867 10.9094L41.9841 10.912ZM49.2729 13.5281L52.9737 17.2289L54.8228 15.3798C55.3166 14.886 55.5898 14.2294 55.5898 13.5307C55.5898 12.832 55.3166 12.1754 54.8228 11.6816C53.8011 10.6625 52.1411 10.6625 51.122 11.6816L49.2729 13.5307V13.5281Z" fill="#1771DE"/>
<mask id="mask1_2009_10010" style="mask-type:luminance" maskUnits="userSpaceOnUse" x="0" y="36" width="30" height="31">
<path d="M29.6804 36.8496H0V66.53H29.6804V36.8496Z" fill="white"/>
</mask>
<g mask="url(#mask1_2009_10010)">
<path d="M29.6804 36.8496H0V66.53H29.6804V36.8496Z" fill="white"/>
<path d="M28.6191 44.0488H22.9325H22.486V37.2538C22.486 37.0411 22.507 36.8336 22.5359 36.6313H19.3735C19.3578 36.8362 19.3446 37.0437 19.3446 37.2538V44.0488H14.6641C10.212 44.0488 6.58995 47.6709 6.58995 52.1229V57.3052H0.491033C0.254641 57.3052 0.0182484 57.3183 -0.212891 57.3393V60.507C0.0182484 60.4702 0.252014 60.4465 0.491033 60.4465H6.5847V66.3117C6.5847 66.4956 6.56894 66.6768 6.54792 66.8554H9.70507C9.71821 66.6742 9.72609 66.4929 9.72609 66.3117V60.4465H14.4067C18.8587 60.4465 22.4808 56.8245 22.4808 52.3724V47.1902H28.6191C29.0446 47.1902 29.4596 47.1534 29.8667 47.0851V43.8676C29.4701 43.9831 29.0525 44.0488 28.6191 44.0488ZM19.3394 52.3724C19.3394 55.0936 17.1252 57.3052 14.4067 57.3052H9.73134V52.1229C9.73134 49.4018 11.9455 47.1902 14.6641 47.1902H19.3394V52.3724Z" fill="#1771DE"/>
</g>
<path d="M62.2389 36.8496H32.5586V66.53H62.2389V36.8496Z" fill="white"/>
<path d="M57.1885 43.957L57.002 43.7705C54.2599 41.0283 49.9995 40.8313 47.0788 43.2268C44.2158 41.0309 40.0868 41.2411 37.4655 43.8598C34.6157 46.7096 34.6157 51.3482 37.4655 54.198L45.6105 62.343C46.1332 62.8657 46.8214 63.1284 47.5069 63.1284C48.1925 63.1284 48.8806 62.8657 49.4033 62.343L54.1679 57.5784L57.5221 54.2243C57.6245 54.1087 57.7217 53.9905 57.8136 53.8697C60.0987 50.9253 59.8912 46.6597 57.1885 43.957ZM47.5227 60.4624C47.5227 60.4624 47.4964 60.4703 47.4885 60.4624L39.3435 52.3174C37.5312 50.505 37.5312 47.5527 39.3435 45.7378C40.2497 44.8316 41.4421 44.3772 42.632 44.3772C43.4909 44.3772 44.3471 44.6162 45.101 45.089C43.9584 46.2027 43.1232 47.0589 42.6162 47.642C41.3003 49.1497 41.4815 51.5346 43.0155 52.9556C44.3051 54.1507 46.627 54.6681 49.2326 52.6352L52.2899 55.6951L47.5227 60.4624ZM55.3131 52.6982L55.0373 52.974L54.1837 53.8303L49.2799 48.9186L49.1906 49.0079L48.3395 49.8746C46.9475 51.2904 45.6 51.7264 44.8226 51.0067C44.3918 50.6075 44.2079 49.8641 44.6203 49.3913C45.0931 48.8503 45.9283 47.9966 47.0683 46.8882C47.3677 46.5967 47.6855 46.2894 48.0244 45.9663C48.1767 45.8218 48.3317 45.6721 48.4919 45.5198C48.66 45.3595 48.8412 45.2177 49.0277 45.089C50.8821 43.7783 53.4404 43.9727 55.1214 45.6537L55.3079 45.8402C56.9705 47.5028 57.1701 50.0848 55.9093 51.9707C55.736 52.2281 55.539 52.4723 55.3131 52.7008V52.6982Z" fill="#1771DE"/>
</svg>
