<svg width="42" height="42" viewBox="0 0 42 42" fill="none" xmlns="http://www.w3.org/2000/svg">
<path d="M20.8477 41C9.67227 41 0.695312 32.023 0.695312 20.8477C0.695312 9.67227 9.67227 0.695312 20.8477 0.695312C21.9469 0.695312 22.6797 1.42812 22.6797 2.52734C22.6797 3.62656 21.9469 4.35938 20.8477 4.35938C11.6875 4.35938 4.35938 11.6875 4.35938 20.8477C4.35938 30.0078 11.6875 37.3359 20.8477 37.3359C30.0078 37.3359 37.3359 30.0078 37.3359 20.8477C37.3359 19.7484 38.0687 19.0156 39.168 19.0156C40.2672 19.0156 41 19.7484 41 20.8477C41 32.023 32.023 41 20.8477 41ZM20.8477 31.8398C14.802 31.8398 9.85547 26.8934 9.85547 20.8477C9.85547 14.802 14.802 9.85547 20.8477 9.85547C21.9469 9.85547 22.6797 10.5883 22.6797 11.6875C22.6797 12.7867 21.9469 13.5195 20.8477 13.5195C16.8172 13.5195 13.5195 16.8172 13.5195 20.8477C13.5195 24.8781 16.8172 28.1758 20.8477 28.1758C24.8781 28.1758 28.1758 24.8781 28.1758 20.8477C28.1758 19.7484 28.9086 19.0156 30.0078 19.0156C31.107 19.0156 31.8398 19.7484 31.8398 20.8477C31.8398 26.8934 26.8934 31.8398 20.8477 31.8398ZM20.8477 22.6797C20.298 22.6797 19.9316 22.4965 19.5652 22.1301C18.8324 21.3973 18.8324 20.298 19.5652 19.5652L26.3438 12.7867V8.02344C26.3438 7.47383 26.527 7.10742 26.8934 6.74102L32.3895 1.24492C32.7559 0.878516 33.3055 0.695312 34.0383 0.695312C34.5879 0.878516 35.1375 1.24492 35.3207 1.61133L36.9695 4.72578L40.084 6.37461C40.6336 6.55781 41 7.10742 41 7.65703C41 8.20664 40.8168 8.75625 40.4504 9.30586L34.9543 14.802C34.5879 15.1684 34.2215 15.3516 33.6719 15.3516H28.9086L22.1301 22.1301C21.7637 22.4965 21.3973 22.6797 20.8477 22.6797ZM30.0078 11.6875H32.9391L36.0535 8.57305L34.5879 7.84023C34.2215 7.65703 33.8551 7.29063 33.8551 7.10742L33.1223 5.6418L30.0078 8.75625V11.6875Z" fill="white" stroke="white" stroke-width="0.293126"/>
</svg>
