<svg width="32" height="32" viewBox="0 0 32 32" fill="none" xmlns="http://www.w3.org/2000/svg">
<g id="Frame">
<path id="Vector" d="M9.33398 13.3334V22.6667" stroke="black" stroke-width="2" stroke-linecap="round" stroke-linejoin="round"/>
<path id="Vector_2" d="M14.666 17.3334V22.6667M14.666 17.3334C14.666 15.1242 16.4568 13.3334 18.666 13.3334C20.8752 13.3334 22.666 15.1242 22.666 17.3334V22.6667M14.666 17.3334V13.3334" stroke="black" stroke-width="2" stroke-linecap="round" stroke-linejoin="round"/>
<path id="Vector_3" d="M9.34402 9.33337H9.33203" stroke="black" stroke-width="2" stroke-linecap="round" stroke-linejoin="round"/>
<path id="Vector_4" d="M3.33398 16C3.33398 10.0289 3.33398 7.04336 5.18897 5.18836C7.04397 3.33337 10.0295 3.33337 16.0007 3.33337C21.9717 3.33337 24.9573 3.33337 26.8124 5.18836C28.6673 7.04336 28.6673 10.0289 28.6673 16C28.6673 21.9711 28.6673 24.9567 26.8124 26.8118C24.9573 28.6667 21.9717 28.6667 16.0007 28.6667C10.0295 28.6667 7.04397 28.6667 5.18897 26.8118C3.33398 24.9567 3.33398 21.9711 3.33398 16Z" stroke="black" stroke-width="2" stroke-linejoin="round"/>
</g>
</svg>
