<svg width="32" height="32" viewBox="0 0 32 32" fill="none" xmlns="http://www.w3.org/2000/svg">
<g id="Frame">
<path id="Vector" d="M3.33398 16C3.33398 10.0289 3.33398 7.04336 5.18897 5.18836C7.04397 3.33337 10.0295 3.33337 16.0006 3.33337C21.9718 3.33337 24.9573 3.33337 26.8124 5.18836C28.6673 7.04336 28.6673 10.0289 28.6673 16C28.6673 21.9711 28.6673 24.9567 26.8124 26.8118C24.9573 28.6667 21.9718 28.6667 16.0006 28.6667C10.0295 28.6667 7.04397 28.6667 5.18897 26.8118C3.33398 24.9567 3.33398 21.9711 3.33398 16Z" stroke="black" stroke-width="2" stroke-linecap="round" stroke-linejoin="round"/>
<path id="Vector_2" d="M9.33398 22.6667L14.9254 17.0754M14.9254 17.0754L9.33398 9.33337H13.0377L17.076 14.9247M14.9254 17.0754L18.9636 22.6667H22.6673L17.076 14.9247M22.6673 9.33337L17.076 14.9247" stroke="black" stroke-width="2" stroke-linecap="round" stroke-linejoin="round"/>
</g>
</svg>
