<svg width="32" height="32" viewBox="0 0 32 32" fill="none" xmlns="http://www.w3.org/2000/svg">
<g id="Frame">
<path id="Vector" d="M15.9993 27.3332C18.4123 27.3332 20.7261 27.0948 22.8705 26.6577C25.5491 26.1117 26.8884 25.8386 28.1105 24.2673C29.3327 22.696 29.3327 20.8922 29.3327 17.2845V14.7152C29.3327 11.1075 29.3327 9.30366 28.1105 7.73233C26.8884 6.16101 25.5491 5.88801 22.8705 5.342C20.7261 4.90486 18.4123 4.6665 15.9993 4.6665C13.5864 4.6665 11.2725 4.90486 9.1281 5.342C6.44956 5.88801 5.1103 6.16101 3.88815 7.73233C2.66602 9.30366 2.66602 11.1075 2.66602 14.7152V17.2845C2.66602 20.8922 2.66602 22.696 3.88815 24.2673C5.1103 25.8386 6.44956 26.1117 9.1281 26.6577C11.2725 27.0948 13.5864 27.3332 15.9993 27.3332Z" stroke="#0B0B0B" stroke-width="2"/>
<path id="Vector_2" d="M21.2828 16.4174C21.0849 17.2251 20.0321 17.8052 17.9265 18.9656C15.6363 20.2275 14.4912 20.8586 13.5637 20.6155C13.2496 20.5331 12.9603 20.3883 12.7173 20.1919C12 19.612 12 18.408 12 16.0002C12 13.5923 12 12.3883 12.7173 11.8084C12.9603 11.612 13.2496 11.4672 13.5637 11.3849C14.4912 11.1418 15.6363 11.7728 17.9265 13.0347C20.0321 14.1951 21.0849 14.7752 21.2828 15.583C21.3501 15.8579 21.3501 16.1424 21.2828 16.4174Z" stroke="#0B0B0B" stroke-width="2" stroke-linejoin="round"/>
</g>
</svg>
