<svg width="32" height="32" viewBox="0 0 32 32" fill="none" xmlns="http://www.w3.org/2000/svg">
<g id="Frame">
<path id="Vector" d="M3.33398 16.0002C3.33398 10.029 3.33398 7.04348 5.18897 5.18848C7.04397 3.3335 10.0295 3.3335 16.0007 3.3335C21.9717 3.3335 24.9573 3.3335 26.8124 5.18848C28.6673 7.04348 28.6673 10.029 28.6673 16.0002C28.6673 21.9712 28.6673 24.9568 26.8124 26.8119C24.9573 28.6668 21.9717 28.6668 16.0007 28.6668C10.0295 28.6668 7.04397 28.6668 5.18897 26.8119C3.33398 24.9568 3.33398 21.9712 3.33398 16.0002Z" stroke="#0B0B0B" stroke-width="2" stroke-linejoin="round"/>
<path id="Vector_2" d="M22.5694 10.7017H18.6428C17.2511 10.7017 16.1199 11.8245 16.1096 13.2162L15.9959 28.5689M13.4434 18.6688H19.847" stroke="#0B0B0B" stroke-width="2" stroke-linecap="round" stroke-linejoin="round"/>
</g>
</svg>
