<svg width="20" height="20" viewBox="0 0 20 20" fill="none" xmlns="http://www.w3.org/2000/svg">
<g id="Frame" clip-path="url(#clip0_25_23151)">
<path id="Vector" d="M10.418 1.6763C10.28 1.6698 10.1411 1.6665 10.0013 1.6665C5.39945 1.6665 1.66797 5.23615 1.66797 9.63875C1.66797 11.7541 2.52908 13.6761 3.93371 15.1024C4.24297 15.4165 4.44945 15.8455 4.36612 16.2872C4.22859 17.0092 3.91692 17.6827 3.46056 18.244C4.66126 18.4673 5.90975 18.2663 6.98046 17.6968C7.35895 17.4956 7.54819 17.3949 7.68174 17.3745C7.81529 17.3541 8.00658 17.39 8.38914 17.4619C8.92064 17.5617 9.46022 17.6118 10.0013 17.611C14.6031 17.611 18.3346 14.0414 18.3346 9.63875C18.3346 9.48025 18.3298 9.32275 18.3202 9.1665" stroke="#1771DE" stroke-width="2" stroke-linecap="round" stroke-linejoin="round"/>
<path id="Vector_2" d="M12.5 4.58335H18.3333M15.4167 1.66669V7.50002" stroke="#1771DE" stroke-width="2" stroke-linecap="round" stroke-linejoin="round"/>
</g>
<defs>
<clipPath id="clip0_25_23151">
<rect width="20" height="20" fill="white"/>
</clipPath>
</defs>
</svg>
