<svg width="40" height="40" viewBox="0 0 40 40" fill="none" xmlns="http://www.w3.org/2000/svg">
<g id="Frame 1321315409">
<g id="health">
<path id="Vector" d="M28.3477 16.8867H23.4704V12.0094C23.4704 11.0751 22.7063 10.311 21.772 10.311H18.2936C17.3593 10.311 16.5952 11.0751 16.5952 12.0094V16.8867H11.7179C10.7836 16.8867 10.0195 17.6508 10.0195 18.5851V22.0635C10.0195 22.9978 10.7836 23.7619 11.7179 23.7619H16.5952V28.6392C16.5952 29.5735 17.3593 30.3376 18.2936 30.3376H21.772C22.7063 30.3376 23.4704 29.5735 23.4704 28.6392V23.7619H28.3477C29.282 23.7619 30.0461 22.9978 30.0461 22.0635V18.5851C30.0461 17.6508 29.282 16.8867 28.3477 16.8867Z" stroke="white" stroke-width="2.8" stroke-linejoin="round"/>
<path id="Vector_2" d="M20.0342 38.1963C29.9047 38.1963 37.9062 30.1947 37.9062 20.3242C37.9062 10.4537 29.9047 2.45215 20.0342 2.45215C10.1637 2.45215 2.16211 10.4537 2.16211 20.3242C2.16211 30.1947 10.1637 38.1963 20.0342 38.1963Z" stroke="white" stroke-width="2.8" stroke-linejoin="round"/>
</g>
</g>
</svg>
